<svg version="1.1" viewBox="0.0 0.0 488.54330708661416 227.41469816272965" fill="none" stroke="none" stroke-linecap="square" stroke-miterlimit="10" xmlns:xlink="http://www.w3.org/1999/xlink" xmlns="http://www.w3.org/2000/svg"><clipPath id="p.0"><path d="m0 0l488.5433 0l0 227.4147l-488.5433 0l0 -227.4147z" clip-rule="nonzero"/></clipPath><g clip-path="url(#p.0)"><path fill="#000000" fill-opacity="0.0" d="m0 0l488.5433 0l0 227.4147l-488.5433 0z" fill-rule="evenodd"/><path fill="#000000" fill-opacity="0.0" d="m31.83558 81.36862l0 21.102364" fill-rule="evenodd"/><path stroke="#000000" stroke-width="3.0" stroke-linejoin="round" stroke-linecap="round" d="m31.83558 81.36862l0 21.102364" fill-rule="evenodd"/><path fill="#000000" fill-opacity="0.0" d="m58.3427 81.36862l0 21.102364" fill-rule="evenodd"/><path stroke="#000000" stroke-width="3.0" stroke-linejoin="round" stroke-linecap="round" d="m58.3427 81.36862l0 21.102364" fill-rule="evenodd"/><path fill="#000000" fill-opacity="0.0" d="m45.051907 128.69653l0 -10.20472" fill-rule="evenodd"/><path stroke="#000000" stroke-width="3.0" stroke-linejoin="round" stroke-linecap="round" d="m45.051907 128.69653l0 -10.20472" fill-rule="evenodd"/><path fill="#000000" fill-opacity="0.0" d="m18.146605 128.69653l0 -17.448814" fill-rule="evenodd"/><path stroke="#000000" stroke-width="3.0" stroke-linejoin="round" stroke-linecap="round" d="m18.146605 128.69653l0 -17.448814" fill-rule="evenodd"/><path fill="#000000" fill-opacity="0.0" d="m71.35433 128.69595l-52.72441 0" fill-rule="evenodd"/><path stroke="#000000" stroke-width="3.0" stroke-linejoin="round" stroke-linecap="round" d="m71.35433 128.69595l-52.72441 0" fill-rule="evenodd"/><path fill="#000000" fill-opacity="0.0" d="m71.56655 128.69653l0 -17.448814" fill-rule="evenodd"/><path stroke="#000000" stroke-width="3.0" stroke-linejoin="round" stroke-linecap="round" d="m71.56655 128.69653l0 -17.448814" fill-rule="evenodd"/><path fill="#000000" fill-opacity="0.0" d="m168.13742 75.020996l31.055115 0l0 37.16535l-31.055115 0z" fill-rule="evenodd"/><path fill="#000000" d="m180.1988 93.7118q0 -1.859375 0.375 -2.984375q0.390625 -1.140625 1.140625 -1.75q0.765625 -0.625 1.90625 -0.625q0.84375 0 1.46875 0.34375q0.640625 0.328125 1.0625 0.96875q0.421875 0.640625 0.65625 1.5625q0.234375 0.921875 0.234375 2.484375q0 1.84375 -0.390625 2.984375q-0.375 1.125 -1.125 1.75q-0.75 0.609375 -1.90625 0.609375q-1.515625 0 -2.390625 -1.078125q-1.03125 -1.3125 -1.03125 -4.265625zm1.328125 0q0 2.578125 0.59375 3.4375q0.609375 0.859375 1.5 0.859375q0.890625 0 1.484375 -0.859375q0.609375 -0.859375 0.609375 -3.4375q0 -2.59375 -0.609375 -3.4375q-0.59375 -0.859375 -1.5 -0.859375q-0.890625 0 -1.421875 0.75q-0.65625 0.96875 -0.65625 3.546875z" fill-rule="nonzero"/><path fill="#000000" fill-opacity="0.0" d="m292.82443 75.020996l31.055115 0l0 37.16535l-31.055115 0z" fill-rule="evenodd"/><path fill="#000000" d="m309.72955 98.883675l-1.28125 0l0 -8.203125q-0.46875 0.4375 -1.21875 0.890625q-0.75 0.4375 -1.359375 0.65625l0 -1.25q1.078125 -0.5 1.890625 -1.21875q0.8125 -0.734375 1.140625 -1.40625l0.828125 0l0 10.53125z" fill-rule="nonzero"/><path fill="#000000" fill-opacity="0.0" d="m417.51144 75.020996l31.055115 0l0 37.16535l-31.055115 0z" fill-rule="evenodd"/><path fill="#000000" d="m436.33844 97.6493l0 1.234375l-6.9375 0q-0.015625 -0.46875 0.15625 -0.890625q0.265625 -0.71875 0.84375 -1.40625q0.59375 -0.6875 1.6875 -1.578125q1.71875 -1.40625 2.3125 -2.21875q0.609375 -0.828125 0.609375 -1.5625q0 -0.765625 -0.5625 -1.28125q-0.546875 -0.53125 -1.421875 -0.53125q-0.921875 0 -1.484375 0.5625q-0.5625 0.5625 -0.5625 1.546875l-1.328125 -0.140625q0.140625 -1.484375 1.015625 -2.25q0.890625 -0.78125 2.390625 -0.78125q1.515625 0 2.390625 0.84375q0.875 0.828125 0.875 2.0625q0 0.640625 -0.265625 1.25q-0.25 0.59375 -0.84375 1.265625q-0.59375 0.671875 -1.984375 1.859375q-1.15625 0.96875 -1.484375 1.3125q-0.328125 0.34375 -0.546875 0.703125l5.140625 0z" fill-rule="nonzero"/><path fill="#000000" fill-opacity="0.0" d="m168.07968 199.71654l31.055115 0l0 37.16536l-31.055115 0z" fill-rule="evenodd"/><path fill="#000000" d="m180.14105 220.81358l1.296875 -0.171875q0.21875 1.09375 0.75 1.578125q0.53125 0.484375 1.296875 0.484375q0.90625 0 1.53125 -0.625q0.640625 -0.640625 0.640625 -1.5625q0 -0.890625 -0.59375 -1.46875q-0.578125 -0.578125 -1.46875 -0.578125q-0.359375 0 -0.90625 0.140625l0.140625 -1.125q0.125 0.015625 0.203125 0.015625q0.828125 0 1.484375 -0.421875q0.65625 -0.4375 0.65625 -1.34375q0 -0.703125 -0.484375 -1.15625q-0.46875 -0.46875 -1.234375 -0.46875q-0.75 0 -1.25 0.46875q-0.5 0.46875 -0.640625 1.421875l-1.28125 -0.234375q0.234375 -1.296875 1.0625 -2.0q0.84375 -0.71875 2.09375 -0.71875q0.859375 0 1.578125 0.375q0.71875 0.359375 1.09375 1.0q0.390625 0.640625 0.390625 1.34375q0 0.6875 -0.375 1.25q-0.359375 0.546875 -1.0625 0.875q0.921875 0.21875 1.4375 0.90625q0.515625 0.671875 0.515625 1.6875q0 1.375 -1.0 2.328125q-1.0 0.953125 -2.53125 0.953125q-1.390625 0 -2.296875 -0.8125q-0.90625 -0.828125 -1.046875 -2.140625z" fill-rule="nonzero"/><path fill="#000000" fill-opacity="0.0" d="m292.7667 199.71654l31.055115 0l0 37.16536l-31.055115 0z" fill-rule="evenodd"/><path fill="#000000" d="m308.95306 223.57921l0 -2.515625l-4.546875 0l0 -1.171875l4.78125 -6.796875l1.0625 0l0 6.796875l1.40625 0l0 1.171875l-1.40625 0l0 2.515625l-1.296875 0zm0 -3.6875l0 -4.734375l-3.28125 4.734375l3.28125 0z" fill-rule="nonzero"/><path fill="#000000" fill-opacity="0.0" d="m417.4537 199.71654l31.055115 0l0 37.16536l-31.055115 0z" fill-rule="evenodd"/><path fill="#000000" d="m429.51508 220.82921l1.34375 -0.109375q0.15625 0.984375 0.703125 1.484375q0.546875 0.5 1.328125 0.5q0.921875 0 1.5625 -0.703125q0.65625 -0.703125 0.65625 -1.859375q0 -1.109375 -0.625 -1.734375q-0.625 -0.640625 -1.625 -0.640625q-0.625 0 -1.125 0.28125q-0.5 0.28125 -0.78125 0.734375l-1.203125 -0.15625l1.015625 -5.390625l5.21875 0l0 1.21875l-4.1875 0l-0.578125 2.828125q0.953125 -0.65625 1.984375 -0.65625q1.375 0 2.3125 0.953125q0.953125 0.953125 0.953125 2.4375q0 1.4375 -0.828125 2.46875q-1.015625 1.265625 -2.75 1.265625q-1.4375 0 -2.34375 -0.796875q-0.90625 -0.796875 -1.03125 -2.125z" fill-rule="nonzero"/><path fill="#000000" fill-opacity="0.0" d="m243.08136 0l0 223.84251" fill-rule="evenodd"/><path stroke="#000000" stroke-width="1.0" stroke-linejoin="round" stroke-linecap="butt" stroke-dasharray="4.0,3.0" d="m243.08136 0l0 223.84251" fill-rule="evenodd"/><path fill="#000000" fill-opacity="0.0" d="m369.2257 0l0 223.84251" fill-rule="evenodd"/><path stroke="#000000" stroke-width="1.0" stroke-linejoin="round" stroke-linecap="butt" stroke-dasharray="4.0,3.0" d="m369.2257 0l0 223.84251" fill-rule="evenodd"/><path fill="#000000" fill-opacity="0.0" d="m134.53543 109.56431l348.09448 0" fill-rule="evenodd"/><path stroke="#000000" stroke-width="1.0" stroke-linejoin="round" stroke-linecap="butt" stroke-dasharray="4.0,3.0" d="m134.53543 109.56431l348.09448 0" fill-rule="evenodd"/><path fill="#000000" fill-opacity="0.0" d="m170.58493 18.507732l0 21.10236" fill-rule="evenodd"/><path stroke="#d9d9d9" stroke-width="3.0" stroke-linejoin="round" stroke-linecap="round" d="m170.58493 18.507732l0 21.10236" fill-rule="evenodd"/><path fill="#000000" fill-opacity="0.0" d="m197.09204 18.507732l0 21.10236" fill-rule="evenodd"/><path stroke="#d9d9d9" stroke-width="3.0" stroke-linejoin="round" stroke-linecap="round" d="m197.09204 18.507732l0 21.10236" fill-rule="evenodd"/><path fill="#000000" fill-opacity="0.0" d="m183.80125 65.83565l0 -10.204727" fill-rule="evenodd"/><path stroke="#d9d9d9" stroke-width="3.0" stroke-linejoin="round" stroke-linecap="round" d="m183.80125 65.83565l0 -10.204727" fill-rule="evenodd"/><path fill="#000000" fill-opacity="0.0" d="m156.89595 65.83565l0 -17.448822" fill-rule="evenodd"/><path stroke="#d9d9d9" stroke-width="3.0" stroke-linejoin="round" stroke-linecap="round" d="m156.89595 65.83565l0 -17.448822" fill-rule="evenodd"/><path fill="#000000" fill-opacity="0.0" d="m210.10367 65.83507l-52.724396 0" fill-rule="evenodd"/><path stroke="#d9d9d9" stroke-width="3.0" stroke-linejoin="round" stroke-linecap="round" d="m210.10367 65.83507l-52.724396 0" fill-rule="evenodd"/><path fill="#000000" fill-opacity="0.0" d="m210.3159 65.83565l0 -17.448822" fill-rule="evenodd"/><path stroke="#d9d9d9" stroke-width="3.0" stroke-linejoin="round" stroke-linecap="round" d="m210.3159 65.83565l0 -17.448822" fill-rule="evenodd"/><path fill="#000000" fill-opacity="0.0" d="m295.56262 18.507732l0 21.10236" fill-rule="evenodd"/><path stroke="#000000" stroke-width="3.0" stroke-linejoin="round" stroke-linecap="round" d="m295.56262 18.507732l0 21.10236" fill-rule="evenodd"/><path fill="#000000" fill-opacity="0.0" d="m322.06973 18.507732l0 21.10236" fill-rule="evenodd"/><path stroke="#d9d9d9" stroke-width="3.0" stroke-linejoin="round" stroke-linecap="round" d="m322.06973 18.507732l0 21.10236" fill-rule="evenodd"/><path fill="#000000" fill-opacity="0.0" d="m308.77893 65.83565l0 -10.204727" fill-rule="evenodd"/><path stroke="#d9d9d9" stroke-width="3.0" stroke-linejoin="round" stroke-linecap="round" d="m308.77893 65.83565l0 -10.204727" fill-rule="evenodd"/><path fill="#000000" fill-opacity="0.0" d="m281.87363 65.83565l0 -17.448822" fill-rule="evenodd"/><path stroke="#d9d9d9" stroke-width="3.0" stroke-linejoin="round" stroke-linecap="round" d="m281.87363 65.83565l0 -17.448822" fill-rule="evenodd"/><path fill="#000000" fill-opacity="0.0" d="m335.08136 65.83507l-52.724396 0" fill-rule="evenodd"/><path stroke="#d9d9d9" stroke-width="3.0" stroke-linejoin="round" stroke-linecap="round" d="m335.08136 65.83507l-52.724396 0" fill-rule="evenodd"/><path fill="#000000" fill-opacity="0.0" d="m335.29358 65.83565l0 -17.448822" fill-rule="evenodd"/><path stroke="#d9d9d9" stroke-width="3.0" stroke-linejoin="round" stroke-linecap="round" d="m335.29358 65.83565l0 -17.448822" fill-rule="evenodd"/><path fill="#000000" fill-opacity="0.0" d="m420.54163 18.507732l0 21.10236" fill-rule="evenodd"/><path stroke="#000000" stroke-width="3.0" stroke-linejoin="round" stroke-linecap="round" d="m420.54163 18.507732l0 21.10236" fill-rule="evenodd"/><path fill="#000000" fill-opacity="0.0" d="m447.04874 18.507732l0 21.10236" fill-rule="evenodd"/><path stroke="#000000" stroke-width="3.0" stroke-linejoin="round" stroke-linecap="round" d="m447.04874 18.507732l0 21.10236" fill-rule="evenodd"/><path fill="#000000" fill-opacity="0.0" d="m433.75793 65.83565l0 -10.204727" fill-rule="evenodd"/><path stroke="#d9d9d9" stroke-width="3.0" stroke-linejoin="round" stroke-linecap="round" d="m433.75793 65.83565l0 -10.204727" fill-rule="evenodd"/><path fill="#000000" fill-opacity="0.0" d="m406.85263 65.83565l0 -17.448822" fill-rule="evenodd"/><path stroke="#d9d9d9" stroke-width="3.0" stroke-linejoin="round" stroke-linecap="round" d="m406.85263 65.83565l0 -17.448822" fill-rule="evenodd"/><path fill="#000000" fill-opacity="0.0" d="m460.06036 65.83507l-52.724396 0" fill-rule="evenodd"/><path stroke="#d9d9d9" stroke-width="3.0" stroke-linejoin="round" stroke-linecap="round" d="m460.06036 65.83507l-52.724396 0" fill-rule="evenodd"/><path fill="#000000" fill-opacity="0.0" d="m460.27258 65.83565l0 -17.448822" fill-rule="evenodd"/><path stroke="#d9d9d9" stroke-width="3.0" stroke-linejoin="round" stroke-linecap="round" d="m460.27258 65.83565l0 -17.448822" fill-rule="evenodd"/><path fill="#000000" fill-opacity="0.0" d="m170.58493 144.42111l0 21.102371" fill-rule="evenodd"/><path stroke="#d9d9d9" stroke-width="3.0" stroke-linejoin="round" stroke-linecap="round" d="m170.58493 144.42111l0 21.102371" fill-rule="evenodd"/><path fill="#000000" fill-opacity="0.0" d="m197.09204 144.42111l0 21.102371" fill-rule="evenodd"/><path stroke="#d9d9d9" stroke-width="3.0" stroke-linejoin="round" stroke-linecap="round" d="m197.09204 144.42111l0 21.102371" fill-rule="evenodd"/><path fill="#000000" fill-opacity="0.0" d="m183.80125 191.74904l0 -10.204727" fill-rule="evenodd"/><path stroke="#000000" stroke-width="3.0" stroke-linejoin="round" stroke-linecap="round" d="m183.80125 191.74904l0 -10.204727" fill-rule="evenodd"/><path fill="#000000" fill-opacity="0.0" d="m156.89595 191.74904l0 -17.448822" fill-rule="evenodd"/><path stroke="#000000" stroke-width="3.0" stroke-linejoin="round" stroke-linecap="round" d="m156.89595 191.74904l0 -17.448822" fill-rule="evenodd"/><path fill="#000000" fill-opacity="0.0" d="m210.10367 191.74846l-52.724396 0" fill-rule="evenodd"/><path stroke="#000000" stroke-width="3.0" stroke-linejoin="round" stroke-linecap="round" d="m210.10367 191.74846l-52.724396 0" fill-rule="evenodd"/><path fill="#000000" fill-opacity="0.0" d="m210.3159 191.74904l0 -17.448822" fill-rule="evenodd"/><path stroke="#000000" stroke-width="3.0" stroke-linejoin="round" stroke-linecap="round" d="m210.3159 191.74904l0 -17.448822" fill-rule="evenodd"/><path fill="#000000" fill-opacity="0.0" d="m295.56262 144.42111l0 21.102371" fill-rule="evenodd"/><path stroke="#d9d9d9" stroke-width="3.0" stroke-linejoin="round" stroke-linecap="round" d="m295.56262 144.42111l0 21.102371" fill-rule="evenodd"/><path fill="#000000" fill-opacity="0.0" d="m322.06973 144.42111l0 21.102371" fill-rule="evenodd"/><path stroke="#000000" stroke-width="3.0" stroke-linejoin="round" stroke-linecap="round" d="m322.06973 144.42111l0 21.102371" fill-rule="evenodd"/><path fill="#000000" fill-opacity="0.0" d="m308.77893 191.74904l0 -10.204727" fill-rule="evenodd"/><path stroke="#000000" stroke-width="3.0" stroke-linejoin="round" stroke-linecap="round" d="m308.77893 191.74904l0 -10.204727" fill-rule="evenodd"/><path fill="#000000" fill-opacity="0.0" d="m281.87363 191.74904l0 -17.448822" fill-rule="evenodd"/><path stroke="#000000" stroke-width="3.0" stroke-linejoin="round" stroke-linecap="round" d="m281.87363 191.74904l0 -17.448822" fill-rule="evenodd"/><path fill="#000000" fill-opacity="0.0" d="m335.08136 191.74846l-52.724396 0" fill-rule="evenodd"/><path stroke="#000000" stroke-width="3.0" stroke-linejoin="round" stroke-linecap="round" d="m335.08136 191.74846l-52.724396 0" fill-rule="evenodd"/><path fill="#000000" fill-opacity="0.0" d="m335.29358 191.74904l0 -17.448822" fill-rule="evenodd"/><path stroke="#000000" stroke-width="3.0" stroke-linejoin="round" stroke-linecap="round" d="m335.29358 191.74904l0 -17.448822" fill-rule="evenodd"/><path fill="#000000" fill-opacity="0.0" d="m420.54163 144.42111l0 21.102371" fill-rule="evenodd"/><path stroke="#000000" stroke-width="3.0" stroke-linejoin="round" stroke-linecap="round" d="m420.54163 144.42111l0 21.102371" fill-rule="evenodd"/><path fill="#000000" fill-opacity="0.0" d="m447.04874 144.42111l0 21.102371" fill-rule="evenodd"/><path stroke="#000000" stroke-width="3.0" stroke-linejoin="round" stroke-linecap="round" d="m447.04874 144.42111l0 21.102371" fill-rule="evenodd"/><path fill="#000000" fill-opacity="0.0" d="m433.75793 191.74904l0 -10.204727" fill-rule="evenodd"/><path stroke="#000000" stroke-width="3.0" stroke-linejoin="round" stroke-linecap="round" d="m433.75793 191.74904l0 -10.204727" fill-rule="evenodd"/><path fill="#000000" fill-opacity="0.0" d="m406.85263 191.74904l0 -17.448822" fill-rule="evenodd"/><path stroke="#000000" stroke-width="3.0" stroke-linejoin="round" stroke-linecap="round" d="m406.85263 191.74904l0 -17.448822" fill-rule="evenodd"/><path fill="#000000" fill-opacity="0.0" d="m460.06036 191.74846l-52.724396 0" fill-rule="evenodd"/><path stroke="#000000" stroke-width="3.0" stroke-linejoin="round" stroke-linecap="round" d="m460.06036 191.74846l-52.724396 0" fill-rule="evenodd"/><path fill="#000000" fill-opacity="0.0" d="m460.27258 191.74904l0 -17.448822" fill-rule="evenodd"/><path stroke="#000000" stroke-width="3.0" stroke-linejoin="round" stroke-linecap="round" d="m460.27258 191.74904l0 -17.448822" fill-rule="evenodd"/></g></svg>