<svg version="1.1" viewBox="0.0 0.0 732.4225721784777 227.20472440944883" fill="none" stroke="none" stroke-linecap="square" stroke-miterlimit="10" xmlns:xlink="http://www.w3.org/1999/xlink" xmlns="http://www.w3.org/2000/svg"><clipPath id="p.0"><path d="m0 0l732.42255 0l0 227.20473l-732.42255 0l0 -227.20473z" clip-rule="nonzero"/></clipPath><g clip-path="url(#p.0)"><path fill="#000000" fill-opacity="0.0" d="m0 0l732.42255 0l0 227.20473l-732.42255 0z" fill-rule="evenodd"/><path fill="#000000" fill-opacity="0.0" d="m18.628233 120.30826l0 21.102356" fill-rule="evenodd"/><path stroke="#000000" stroke-width="3.0" stroke-linejoin="round" stroke-linecap="round" d="m18.628233 120.30826l0 21.102356" fill-rule="evenodd"/><path fill="#000000" fill-opacity="0.0" d="m29.165361 108.39061l21.493029 47.434586" fill-rule="evenodd"/><path stroke="#000000" stroke-width="3.0" stroke-linejoin="round" stroke-linecap="round" d="m29.165361 108.39061l21.493029 47.434586" fill-rule="evenodd"/><path fill="#000000" fill-opacity="0.0" d="m72.28347 108.0848l-21.631367 47.73905" fill-rule="evenodd"/><path stroke="#000000" stroke-width="3.0" stroke-linejoin="round" stroke-linecap="round" d="m72.28347 108.0848l-21.631367 47.73905" fill-rule="evenodd"/><path fill="#000000" fill-opacity="0.0" d="m82.82246 120.30826l0 21.102356" fill-rule="evenodd"/><path stroke="#000000" stroke-width="3.0" stroke-linejoin="round" stroke-linecap="round" d="m82.82246 120.30826l0 21.102356" fill-rule="evenodd"/><path fill="#000000" fill-opacity="0.0" d="m50.802563 84.392075l0 10.204727" fill-rule="evenodd"/><path stroke="#000000" stroke-width="3.0" stroke-linejoin="round" stroke-linecap="round" d="m50.802563 84.392075l0 10.204727" fill-rule="evenodd"/><path fill="#000000" fill-opacity="0.0" d="m23.89726 84.392075l0 17.448822" fill-rule="evenodd"/><path stroke="#000000" stroke-width="3.0" stroke-linejoin="round" stroke-linecap="round" d="m23.89726 84.392075l0 17.448822" fill-rule="evenodd"/><path fill="#000000" fill-opacity="0.0" d="m77.10499 84.392654l-52.72441 0" fill-rule="evenodd"/><path stroke="#000000" stroke-width="3.0" stroke-linejoin="round" stroke-linecap="round" d="m77.10499 84.392654l-52.72441 0" fill-rule="evenodd"/><path fill="#000000" fill-opacity="0.0" d="m77.31721 84.392075l0 17.448822" fill-rule="evenodd"/><path stroke="#000000" stroke-width="3.0" stroke-linejoin="round" stroke-linecap="round" d="m77.31721 84.392075l0 17.448822" fill-rule="evenodd"/><path fill="#000000" fill-opacity="0.0" d="m151.56787 39.25156l0 21.102364" fill-rule="evenodd"/><path stroke="#d9d9d9" stroke-width="3.0" stroke-linejoin="round" stroke-linecap="round" d="m151.56787 39.25156l0 21.102364" fill-rule="evenodd"/><path fill="#000000" fill-opacity="0.0" d="m162.105 27.333918l21.493027 47.434586" fill-rule="evenodd"/><path stroke="#d9d9d9" stroke-width="3.0" stroke-linejoin="round" stroke-linecap="round" d="m162.105 27.333918l21.493027 47.434586" fill-rule="evenodd"/><path fill="#000000" fill-opacity="0.0" d="m205.2231 27.028103l-21.631363 47.739063" fill-rule="evenodd"/><path stroke="#d9d9d9" stroke-width="3.0" stroke-linejoin="round" stroke-linecap="round" d="m205.2231 27.028103l-21.631363 47.739063" fill-rule="evenodd"/><path fill="#000000" fill-opacity="0.0" d="m215.76208 39.25156l0 21.102364" fill-rule="evenodd"/><path stroke="#d9d9d9" stroke-width="3.0" stroke-linejoin="round" stroke-linecap="round" d="m215.76208 39.25156l0 21.102364" fill-rule="evenodd"/><path fill="#000000" fill-opacity="0.0" d="m183.7422 3.3353808l0 10.204724" fill-rule="evenodd"/><path stroke="#d9d9d9" stroke-width="3.0" stroke-linejoin="round" stroke-linecap="round" d="m183.7422 3.3353808l0 10.204724" fill-rule="evenodd"/><path fill="#000000" fill-opacity="0.0" d="m156.8369 3.3353808l0 17.44882" fill-rule="evenodd"/><path stroke="#d9d9d9" stroke-width="3.0" stroke-linejoin="round" stroke-linecap="round" d="m156.8369 3.3353808l0 17.44882" fill-rule="evenodd"/><path fill="#000000" fill-opacity="0.0" d="m210.04462 3.335958l-52.72441 0" fill-rule="evenodd"/><path stroke="#d9d9d9" stroke-width="3.0" stroke-linejoin="round" stroke-linecap="round" d="m210.04462 3.335958l-52.72441 0" fill-rule="evenodd"/><path fill="#000000" fill-opacity="0.0" d="m210.25684 3.3353808l0 17.44882" fill-rule="evenodd"/><path stroke="#d9d9d9" stroke-width="3.0" stroke-linejoin="round" stroke-linecap="round" d="m210.25684 3.3353808l0 17.44882" fill-rule="evenodd"/><path fill="#000000" fill-opacity="0.0" d="m276.25488 39.25156l0 21.102364" fill-rule="evenodd"/><path stroke="#000000" stroke-width="3.0" stroke-linejoin="round" stroke-linecap="round" d="m276.25488 39.25156l0 21.102364" fill-rule="evenodd"/><path fill="#000000" fill-opacity="0.0" d="m286.792 27.333918l21.493042 47.434586" fill-rule="evenodd"/><path stroke="#d9d9d9" stroke-width="3.0" stroke-linejoin="round" stroke-linecap="round" d="m286.792 27.333918l21.493042 47.434586" fill-rule="evenodd"/><path fill="#000000" fill-opacity="0.0" d="m329.91013 27.028103l-21.631378 47.739063" fill-rule="evenodd"/><path stroke="#d9d9d9" stroke-width="3.0" stroke-linejoin="round" stroke-linecap="round" d="m329.91013 27.028103l-21.631378 47.739063" fill-rule="evenodd"/><path fill="#000000" fill-opacity="0.0" d="m340.4491 39.25156l0 21.102364" fill-rule="evenodd"/><path stroke="#d9d9d9" stroke-width="3.0" stroke-linejoin="round" stroke-linecap="round" d="m340.4491 39.25156l0 21.102364" fill-rule="evenodd"/><path fill="#000000" fill-opacity="0.0" d="m308.4292 3.3353808l0 10.204724" fill-rule="evenodd"/><path stroke="#d9d9d9" stroke-width="3.0" stroke-linejoin="round" stroke-linecap="round" d="m308.4292 3.3353808l0 10.204724" fill-rule="evenodd"/><path fill="#000000" fill-opacity="0.0" d="m281.5239 3.3353808l0 17.44882" fill-rule="evenodd"/><path stroke="#d9d9d9" stroke-width="3.0" stroke-linejoin="round" stroke-linecap="round" d="m281.5239 3.3353808l0 17.44882" fill-rule="evenodd"/><path fill="#000000" fill-opacity="0.0" d="m334.73163 3.335958l-52.724396 0" fill-rule="evenodd"/><path stroke="#d9d9d9" stroke-width="3.0" stroke-linejoin="round" stroke-linecap="round" d="m334.73163 3.335958l-52.724396 0" fill-rule="evenodd"/><path fill="#000000" fill-opacity="0.0" d="m334.94385 3.3353808l0 17.44882" fill-rule="evenodd"/><path stroke="#d9d9d9" stroke-width="3.0" stroke-linejoin="round" stroke-linecap="round" d="m334.94385 3.3353808l0 17.44882" fill-rule="evenodd"/><path fill="#000000" fill-opacity="0.0" d="m400.9419 39.25156l0 21.102364" fill-rule="evenodd"/><path stroke="#000000" stroke-width="3.0" stroke-linejoin="round" stroke-linecap="round" d="m400.9419 39.25156l0 21.102364" fill-rule="evenodd"/><path fill="#000000" fill-opacity="0.0" d="m411.479 27.333918l21.493042 47.434586" fill-rule="evenodd"/><path stroke="#d9d9d9" stroke-width="3.0" stroke-linejoin="round" stroke-linecap="round" d="m411.479 27.333918l21.493042 47.434586" fill-rule="evenodd"/><path fill="#000000" fill-opacity="0.0" d="m454.5971 27.028103l-21.631348 47.739063" fill-rule="evenodd"/><path stroke="#d9d9d9" stroke-width="3.0" stroke-linejoin="round" stroke-linecap="round" d="m454.5971 27.028103l-21.631348 47.739063" fill-rule="evenodd"/><path fill="#000000" fill-opacity="0.0" d="m465.1361 39.25156l0 21.102364" fill-rule="evenodd"/><path stroke="#000000" stroke-width="3.0" stroke-linejoin="round" stroke-linecap="round" d="m465.1361 39.25156l0 21.102364" fill-rule="evenodd"/><path fill="#000000" fill-opacity="0.0" d="m433.1162 3.3353808l0 10.204724" fill-rule="evenodd"/><path stroke="#d9d9d9" stroke-width="3.0" stroke-linejoin="round" stroke-linecap="round" d="m433.1162 3.3353808l0 10.204724" fill-rule="evenodd"/><path fill="#000000" fill-opacity="0.0" d="m406.2109 3.3353808l0 17.44882" fill-rule="evenodd"/><path stroke="#d9d9d9" stroke-width="3.0" stroke-linejoin="round" stroke-linecap="round" d="m406.2109 3.3353808l0 17.44882" fill-rule="evenodd"/><path fill="#000000" fill-opacity="0.0" d="m459.41864 3.335958l-52.724426 0" fill-rule="evenodd"/><path stroke="#d9d9d9" stroke-width="3.0" stroke-linejoin="round" stroke-linecap="round" d="m459.41864 3.335958l-52.724426 0" fill-rule="evenodd"/><path fill="#000000" fill-opacity="0.0" d="m459.63086 3.3353808l0 17.44882" fill-rule="evenodd"/><path stroke="#d9d9d9" stroke-width="3.0" stroke-linejoin="round" stroke-linecap="round" d="m459.63086 3.3353808l0 17.44882" fill-rule="evenodd"/><path fill="#000000" fill-opacity="0.0" d="m525.6289 39.25156l0 21.102364" fill-rule="evenodd"/><path stroke="#d9d9d9" stroke-width="3.0" stroke-linejoin="round" stroke-linecap="round" d="m525.6289 39.25156l0 21.102364" fill-rule="evenodd"/><path fill="#000000" fill-opacity="0.0" d="m536.166 27.333918l21.493042 47.434586" fill-rule="evenodd"/><path stroke="#d9d9d9" stroke-width="3.0" stroke-linejoin="round" stroke-linecap="round" d="m536.166 27.333918l21.493042 47.434586" fill-rule="evenodd"/><path fill="#000000" fill-opacity="0.0" d="m579.2841 27.028103l-21.631348 47.739063" fill-rule="evenodd"/><path stroke="#d9d9d9" stroke-width="3.0" stroke-linejoin="round" stroke-linecap="round" d="m579.2841 27.028103l-21.631348 47.739063" fill-rule="evenodd"/><path fill="#000000" fill-opacity="0.0" d="m589.8231 39.25156l0 21.102364" fill-rule="evenodd"/><path stroke="#d9d9d9" stroke-width="3.0" stroke-linejoin="round" stroke-linecap="round" d="m589.8231 39.25156l0 21.102364" fill-rule="evenodd"/><path fill="#000000" fill-opacity="0.0" d="m557.8032 3.3353808l0 10.204724" fill-rule="evenodd"/><path stroke="#000000" stroke-width="3.0" stroke-linejoin="round" stroke-linecap="round" d="m557.8032 3.3353808l0 10.204724" fill-rule="evenodd"/><path fill="#000000" fill-opacity="0.0" d="m530.8979 3.3353808l0 17.44882" fill-rule="evenodd"/><path stroke="#000000" stroke-width="3.0" stroke-linejoin="round" stroke-linecap="round" d="m530.8979 3.3353808l0 17.44882" fill-rule="evenodd"/><path fill="#000000" fill-opacity="0.0" d="m584.10565 3.335958l-52.724426 0" fill-rule="evenodd"/><path stroke="#000000" stroke-width="3.0" stroke-linejoin="round" stroke-linecap="round" d="m584.10565 3.335958l-52.724426 0" fill-rule="evenodd"/><path fill="#000000" fill-opacity="0.0" d="m584.3179 3.3353808l0 17.44882" fill-rule="evenodd"/><path stroke="#000000" stroke-width="3.0" stroke-linejoin="round" stroke-linecap="round" d="m584.3179 3.3353808l0 17.44882" fill-rule="evenodd"/><path fill="#000000" fill-opacity="0.0" d="m650.3159 39.25156l0 21.102364" fill-rule="evenodd"/><path stroke="#000000" stroke-width="3.0" stroke-linejoin="round" stroke-linecap="round" d="m650.3159 39.25156l0 21.102364" fill-rule="evenodd"/><path fill="#000000" fill-opacity="0.0" d="m660.853 27.333918l21.493042 47.434586" fill-rule="evenodd"/><path stroke="#000000" stroke-width="3.0" stroke-linejoin="round" stroke-linecap="round" d="m660.853 27.333918l21.493042 47.434586" fill-rule="evenodd"/><path fill="#000000" fill-opacity="0.0" d="m703.9711 27.028103l-21.631348 47.739063" fill-rule="evenodd"/><path stroke="#000000" stroke-width="3.0" stroke-linejoin="round" stroke-linecap="round" d="m703.9711 27.028103l-21.631348 47.739063" fill-rule="evenodd"/><path fill="#000000" fill-opacity="0.0" d="m714.51013 39.25156l0 21.102364" fill-rule="evenodd"/><path stroke="#d9d9d9" stroke-width="3.0" stroke-linejoin="round" stroke-linecap="round" d="m714.51013 39.25156l0 21.102364" fill-rule="evenodd"/><path fill="#000000" fill-opacity="0.0" d="m682.49023 3.3353808l0 10.204724" fill-rule="evenodd"/><path stroke="#d9d9d9" stroke-width="3.0" stroke-linejoin="round" stroke-linecap="round" d="m682.49023 3.3353808l0 10.204724" fill-rule="evenodd"/><path fill="#000000" fill-opacity="0.0" d="m655.5849 3.3353808l0 17.44882" fill-rule="evenodd"/><path stroke="#d9d9d9" stroke-width="3.0" stroke-linejoin="round" stroke-linecap="round" d="m655.5849 3.3353808l0 17.44882" fill-rule="evenodd"/><path fill="#000000" fill-opacity="0.0" d="m708.79266 3.335958l-52.724426 0" fill-rule="evenodd"/><path stroke="#d9d9d9" stroke-width="3.0" stroke-linejoin="round" stroke-linecap="round" d="m708.79266 3.335958l-52.724426 0" fill-rule="evenodd"/><path fill="#000000" fill-opacity="0.0" d="m709.0049 3.3353808l0 17.44882" fill-rule="evenodd"/><path stroke="#d9d9d9" stroke-width="3.0" stroke-linejoin="round" stroke-linecap="round" d="m709.0049 3.3353808l0 17.44882" fill-rule="evenodd"/><path fill="#000000" fill-opacity="0.0" d="m151.45107 159.10983l0 21.102356" fill-rule="evenodd"/><path stroke="#d9d9d9" stroke-width="3.0" stroke-linejoin="round" stroke-linecap="round" d="m151.45107 159.10983l0 21.102356" fill-rule="evenodd"/><path fill="#000000" fill-opacity="0.0" d="m161.98819 147.19218l21.493042 47.434586" fill-rule="evenodd"/><path stroke="#000000" stroke-width="3.0" stroke-linejoin="round" stroke-linecap="round" d="m161.98819 147.19218l21.493042 47.434586" fill-rule="evenodd"/><path fill="#000000" fill-opacity="0.0" d="m205.10631 146.88637l-21.631363 47.73906" fill-rule="evenodd"/><path stroke="#000000" stroke-width="3.0" stroke-linejoin="round" stroke-linecap="round" d="m205.10631 146.88637l-21.631363 47.73906" fill-rule="evenodd"/><path fill="#000000" fill-opacity="0.0" d="m215.6453 159.10983l0 21.102356" fill-rule="evenodd"/><path stroke="#d9d9d9" stroke-width="3.0" stroke-linejoin="round" stroke-linecap="round" d="m215.6453 159.10983l0 21.102356" fill-rule="evenodd"/><path fill="#000000" fill-opacity="0.0" d="m183.6254 123.19365l0 10.204727" fill-rule="evenodd"/><path stroke="#d9d9d9" stroke-width="3.0" stroke-linejoin="round" stroke-linecap="round" d="m183.6254 123.19365l0 10.204727" fill-rule="evenodd"/><path fill="#000000" fill-opacity="0.0" d="m156.7201 123.19365l0 17.448822" fill-rule="evenodd"/><path stroke="#d9d9d9" stroke-width="3.0" stroke-linejoin="round" stroke-linecap="round" d="m156.7201 123.19365l0 17.448822" fill-rule="evenodd"/><path fill="#000000" fill-opacity="0.0" d="m209.92783 123.19423l-52.72441 0" fill-rule="evenodd"/><path stroke="#d9d9d9" stroke-width="3.0" stroke-linejoin="round" stroke-linecap="round" d="m209.92783 123.19423l-52.72441 0" fill-rule="evenodd"/><path fill="#000000" fill-opacity="0.0" d="m210.14005 123.19365l0 17.448822" fill-rule="evenodd"/><path stroke="#d9d9d9" stroke-width="3.0" stroke-linejoin="round" stroke-linecap="round" d="m210.14005 123.19365l0 17.448822" fill-rule="evenodd"/><path fill="#000000" fill-opacity="0.0" d="m276.16727 159.10983l0 21.102356" fill-rule="evenodd"/><path stroke="#d9d9d9" stroke-width="3.0" stroke-linejoin="round" stroke-linecap="round" d="m276.16727 159.10983l0 21.102356" fill-rule="evenodd"/><path fill="#000000" fill-opacity="0.0" d="m286.7044 147.19218l21.493011 47.434586" fill-rule="evenodd"/><path stroke="#000000" stroke-width="3.0" stroke-linejoin="round" stroke-linecap="round" d="m286.7044 147.19218l21.493011 47.434586" fill-rule="evenodd"/><path fill="#000000" fill-opacity="0.0" d="m329.8225 146.88637l-21.631378 47.73906" fill-rule="evenodd"/><path stroke="#000000" stroke-width="3.0" stroke-linejoin="round" stroke-linecap="round" d="m329.8225 146.88637l-21.631378 47.73906" fill-rule="evenodd"/><path fill="#000000" fill-opacity="0.0" d="m340.3615 159.10983l0 21.102356" fill-rule="evenodd"/><path stroke="#000000" stroke-width="3.0" stroke-linejoin="round" stroke-linecap="round" d="m340.3615 159.10983l0 21.102356" fill-rule="evenodd"/><path fill="#000000" fill-opacity="0.0" d="m308.3416 123.19365l0 10.204727" fill-rule="evenodd"/><path stroke="#d9d9d9" stroke-width="3.0" stroke-linejoin="round" stroke-linecap="round" d="m308.3416 123.19365l0 10.204727" fill-rule="evenodd"/><path fill="#000000" fill-opacity="0.0" d="m281.4363 123.19365l0 17.448822" fill-rule="evenodd"/><path stroke="#d9d9d9" stroke-width="3.0" stroke-linejoin="round" stroke-linecap="round" d="m281.4363 123.19365l0 17.448822" fill-rule="evenodd"/><path fill="#000000" fill-opacity="0.0" d="m334.64404 123.19423l-52.724426 0" fill-rule="evenodd"/><path stroke="#d9d9d9" stroke-width="3.0" stroke-linejoin="round" stroke-linecap="round" d="m334.64404 123.19423l-52.724426 0" fill-rule="evenodd"/><path fill="#000000" fill-opacity="0.0" d="m334.85626 123.19365l0 17.448822" fill-rule="evenodd"/><path stroke="#d9d9d9" stroke-width="3.0" stroke-linejoin="round" stroke-linecap="round" d="m334.85626 123.19365l0 17.448822" fill-rule="evenodd"/><path fill="#000000" fill-opacity="0.0" d="m400.88348 159.10983l0 21.102356" fill-rule="evenodd"/><path stroke="#000000" stroke-width="3.0" stroke-linejoin="round" stroke-linecap="round" d="m400.88348 159.10983l0 21.102356" fill-rule="evenodd"/><path fill="#000000" fill-opacity="0.0" d="m411.42062 147.19218l21.493011 47.434586" fill-rule="evenodd"/><path stroke="#000000" stroke-width="3.0" stroke-linejoin="round" stroke-linecap="round" d="m411.42062 147.19218l21.493011 47.434586" fill-rule="evenodd"/><path fill="#000000" fill-opacity="0.0" d="m454.53873 146.88637l-21.631378 47.73906" fill-rule="evenodd"/><path stroke="#000000" stroke-width="3.0" stroke-linejoin="round" stroke-linecap="round" d="m454.53873 146.88637l-21.631378 47.73906" fill-rule="evenodd"/><path fill="#000000" fill-opacity="0.0" d="m465.0777 159.10983l0 21.102356" fill-rule="evenodd"/><path stroke="#000000" stroke-width="3.0" stroke-linejoin="round" stroke-linecap="round" d="m465.0777 159.10983l0 21.102356" fill-rule="evenodd"/><path fill="#000000" fill-opacity="0.0" d="m433.0578 123.19365l0 10.204727" fill-rule="evenodd"/><path stroke="#d9d9d9" stroke-width="3.0" stroke-linejoin="round" stroke-linecap="round" d="m433.0578 123.19365l0 10.204727" fill-rule="evenodd"/><path fill="#000000" fill-opacity="0.0" d="m406.1525 123.19365l0 17.448822" fill-rule="evenodd"/><path stroke="#d9d9d9" stroke-width="3.0" stroke-linejoin="round" stroke-linecap="round" d="m406.1525 123.19365l0 17.448822" fill-rule="evenodd"/><path fill="#000000" fill-opacity="0.0" d="m459.36023 123.19423l-52.724396 0" fill-rule="evenodd"/><path stroke="#d9d9d9" stroke-width="3.0" stroke-linejoin="round" stroke-linecap="round" d="m459.36023 123.19423l-52.724396 0" fill-rule="evenodd"/><path fill="#000000" fill-opacity="0.0" d="m459.57245 123.19365l0 17.448822" fill-rule="evenodd"/><path stroke="#d9d9d9" stroke-width="3.0" stroke-linejoin="round" stroke-linecap="round" d="m459.57245 123.19365l0 17.448822" fill-rule="evenodd"/><path fill="#000000" fill-opacity="0.0" d="m525.5997 159.10983l0 21.102356" fill-rule="evenodd"/><path stroke="#d9d9d9" stroke-width="3.0" stroke-linejoin="round" stroke-linecap="round" d="m525.5997 159.10983l0 21.102356" fill-rule="evenodd"/><path fill="#000000" fill-opacity="0.0" d="m536.13684 147.19218l21.492981 47.434586" fill-rule="evenodd"/><path stroke="#000000" stroke-width="3.0" stroke-linejoin="round" stroke-linecap="round" d="m536.13684 147.19218l21.492981 47.434586" fill-rule="evenodd"/><path fill="#000000" fill-opacity="0.0" d="m579.25494 146.88637l-21.631409 47.73906" fill-rule="evenodd"/><path stroke="#000000" stroke-width="3.0" stroke-linejoin="round" stroke-linecap="round" d="m579.25494 146.88637l-21.631409 47.73906" fill-rule="evenodd"/><path fill="#000000" fill-opacity="0.0" d="m589.79395 159.10983l0 21.102356" fill-rule="evenodd"/><path stroke="#d9d9d9" stroke-width="3.0" stroke-linejoin="round" stroke-linecap="round" d="m589.79395 159.10983l0 21.102356" fill-rule="evenodd"/><path fill="#000000" fill-opacity="0.0" d="m557.77405 123.19365l0 10.204727" fill-rule="evenodd"/><path stroke="#000000" stroke-width="3.0" stroke-linejoin="round" stroke-linecap="round" d="m557.77405 123.19365l0 10.204727" fill-rule="evenodd"/><path fill="#000000" fill-opacity="0.0" d="m530.8687 123.19365l0 17.448822" fill-rule="evenodd"/><path stroke="#000000" stroke-width="3.0" stroke-linejoin="round" stroke-linecap="round" d="m530.8687 123.19365l0 17.448822" fill-rule="evenodd"/><path fill="#000000" fill-opacity="0.0" d="m584.0764 123.19423l-52.724365 0" fill-rule="evenodd"/><path stroke="#000000" stroke-width="3.0" stroke-linejoin="round" stroke-linecap="round" d="m584.0764 123.19423l-52.724365 0" fill-rule="evenodd"/><path fill="#000000" fill-opacity="0.0" d="m584.28864 123.19365l0 17.448822" fill-rule="evenodd"/><path stroke="#000000" stroke-width="3.0" stroke-linejoin="round" stroke-linecap="round" d="m584.28864 123.19365l0 17.448822" fill-rule="evenodd"/><path fill="#000000" fill-opacity="0.0" d="m650.3159 159.10983l0 21.102356" fill-rule="evenodd"/><path stroke="#d9d9d9" stroke-width="3.0" stroke-linejoin="round" stroke-linecap="round" d="m650.3159 159.10983l0 21.102356" fill-rule="evenodd"/><path fill="#000000" fill-opacity="0.0" d="m660.853 147.19218l21.493042 47.434586" fill-rule="evenodd"/><path stroke="#000000" stroke-width="3.0" stroke-linejoin="round" stroke-linecap="round" d="m660.853 147.19218l21.493042 47.434586" fill-rule="evenodd"/><path fill="#000000" fill-opacity="0.0" d="m703.9711 146.88637l-21.631348 47.73906" fill-rule="evenodd"/><path stroke="#000000" stroke-width="3.0" stroke-linejoin="round" stroke-linecap="round" d="m703.9711 146.88637l-21.631348 47.73906" fill-rule="evenodd"/><path fill="#000000" fill-opacity="0.0" d="m714.51013 159.10983l0 21.102356" fill-rule="evenodd"/><path stroke="#000000" stroke-width="3.0" stroke-linejoin="round" stroke-linecap="round" d="m714.51013 159.10983l0 21.102356" fill-rule="evenodd"/><path fill="#000000" fill-opacity="0.0" d="m682.49023 123.19365l0 10.204727" fill-rule="evenodd"/><path stroke="#000000" stroke-width="3.0" stroke-linejoin="round" stroke-linecap="round" d="m682.49023 123.19365l0 10.204727" fill-rule="evenodd"/><path fill="#000000" fill-opacity="0.0" d="m655.5849 123.19365l0 17.448822" fill-rule="evenodd"/><path stroke="#000000" stroke-width="3.0" stroke-linejoin="round" stroke-linecap="round" d="m655.5849 123.19365l0 17.448822" fill-rule="evenodd"/><path fill="#000000" fill-opacity="0.0" d="m708.79266 123.19423l-52.724426 0" fill-rule="evenodd"/><path stroke="#000000" stroke-width="3.0" stroke-linejoin="round" stroke-linecap="round" d="m708.79266 123.19423l-52.724426 0" fill-rule="evenodd"/><path fill="#000000" fill-opacity="0.0" d="m709.0049 123.19365l0 17.448822" fill-rule="evenodd"/><path stroke="#000000" stroke-width="3.0" stroke-linejoin="round" stroke-linecap="round" d="m709.0049 123.19365l0 17.448822" fill-rule="evenodd"/><path fill="#000000" fill-opacity="0.0" d="m168.13742 75.020996l31.055115 0l0 37.16535l-31.055115 0z" fill-rule="evenodd"/><path fill="#000000" d="m180.1988 93.7118q0 -1.859375 0.375 -2.984375q0.390625 -1.140625 1.140625 -1.75q0.765625 -0.625 1.90625 -0.625q0.84375 0 1.46875 0.34375q0.640625 0.328125 1.0625 0.96875q0.421875 0.640625 0.65625 1.5625q0.234375 0.921875 0.234375 2.484375q0 1.84375 -0.390625 2.984375q-0.375 1.125 -1.125 1.75q-0.75 0.609375 -1.90625 0.609375q-1.515625 0 -2.390625 -1.078125q-1.03125 -1.3125 -1.03125 -4.265625zm1.328125 0q0 2.578125 0.59375 3.4375q0.609375 0.859375 1.5 0.859375q0.890625 0 1.484375 -0.859375q0.609375 -0.859375 0.609375 -3.4375q0 -2.59375 -0.609375 -3.4375q-0.59375 -0.859375 -1.5 -0.859375q-0.890625 0 -1.421875 0.75q-0.65625 0.96875 -0.65625 3.546875z" fill-rule="nonzero"/><path fill="#000000" fill-opacity="0.0" d="m292.82443 75.020996l31.055115 0l0 37.16535l-31.055115 0z" fill-rule="evenodd"/><path fill="#000000" d="m309.72955 98.883675l-1.28125 0l0 -8.203125q-0.46875 0.4375 -1.21875 0.890625q-0.75 0.4375 -1.359375 0.65625l0 -1.25q1.078125 -0.5 1.890625 -1.21875q0.8125 -0.734375 1.140625 -1.40625l0.828125 0l0 10.53125z" fill-rule="nonzero"/><path fill="#000000" fill-opacity="0.0" d="m417.51144 75.020996l31.055115 0l0 37.16535l-31.055115 0z" fill-rule="evenodd"/><path fill="#000000" d="m436.33844 97.6493l0 1.234375l-6.9375 0q-0.015625 -0.46875 0.15625 -0.890625q0.265625 -0.71875 0.84375 -1.40625q0.59375 -0.6875 1.6875 -1.578125q1.71875 -1.40625 2.3125 -2.21875q0.609375 -0.828125 0.609375 -1.5625q0 -0.765625 -0.5625 -1.28125q-0.546875 -0.53125 -1.421875 -0.53125q-0.921875 0 -1.484375 0.5625q-0.5625 0.5625 -0.5625 1.546875l-1.328125 -0.140625q0.140625 -1.484375 1.015625 -2.25q0.890625 -0.78125 2.390625 -0.78125q1.515625 0 2.390625 0.84375q0.875 0.828125 0.875 2.0625q0 0.640625 -0.265625 1.25q-0.25 0.59375 -0.84375 1.265625q-0.59375 0.671875 -1.984375 1.859375q-1.15625 0.96875 -1.484375 1.3125q-0.328125 0.34375 -0.546875 0.703125l5.140625 0z" fill-rule="nonzero"/><path fill="#000000" fill-opacity="0.0" d="m542.1984 75.020996l31.055115 0l0 37.16535l-31.055115 0z" fill-rule="evenodd"/><path fill="#000000" d="m554.2598 96.11805l1.296875 -0.171875q0.21875 1.09375 0.75 1.578125q0.53125 0.484375 1.296875 0.484375q0.90625 0 1.53125 -0.625q0.640625 -0.640625 0.640625 -1.5625q0 -0.890625 -0.59375 -1.46875q-0.578125 -0.578125 -1.46875 -0.578125q-0.359375 0 -0.90625 0.140625l0.140625 -1.125q0.125 0.015625 0.203125 0.015625q0.828125 0 1.484375 -0.421875q0.65625 -0.4375 0.65625 -1.34375q0 -0.703125 -0.484375 -1.15625q-0.46875 -0.46875 -1.234375 -0.46875q-0.75 0 -1.25 0.46875q-0.5 0.46875 -0.640625 1.421875l-1.28125 -0.234375q0.234375 -1.296875 1.0625 -2.0q0.84375 -0.71875 2.09375 -0.71875q0.859375 0 1.578125 0.375q0.71875 0.359375 1.09375 1.0q0.390625 0.640625 0.390625 1.34375q0 0.6875 -0.375 1.25q-0.359375 0.546875 -1.0625 0.875q0.921875 0.21875 1.4375 0.90625q0.515625 0.671875 0.515625 1.6875q0 1.375 -1.0 2.328125q-1.0 0.953125 -2.53125 0.953125q-1.390625 0 -2.296875 -0.8125q-0.90625 -0.828125 -1.046875 -2.140625z" fill-rule="nonzero"/><path fill="#000000" fill-opacity="0.0" d="m666.88544 75.020996l31.055115 0l0 37.16535l-31.055115 0z" fill-rule="evenodd"/><path fill="#000000" d="m683.07184 98.883675l0 -2.515625l-4.546875 0l0 -1.171875l4.78125 -6.796875l1.0625 0l0 6.796875l1.40625 0l0 1.171875l-1.40625 0l0 2.515625l-1.296875 0zm0 -3.6875l0 -4.734375l-3.28125 4.734375l3.28125 0z" fill-rule="nonzero"/><path fill="#000000" fill-opacity="0.0" d="m168.07968 199.71654l31.055115 0l0 37.16536l-31.055115 0z" fill-rule="evenodd"/><path fill="#000000" d="m180.14105 220.82921l1.34375 -0.109375q0.15625 0.984375 0.703125 1.484375q0.546875 0.5 1.328125 0.5q0.921875 0 1.5625 -0.703125q0.65625 -0.703125 0.65625 -1.859375q0 -1.109375 -0.625 -1.734375q-0.625 -0.640625 -1.625 -0.640625q-0.625 0 -1.125 0.28125q-0.5 0.28125 -0.78125 0.734375l-1.203125 -0.15625l1.015625 -5.390625l5.21875 0l0 1.21875l-4.1875 0l-0.578125 2.828125q0.953125 -0.65625 1.984375 -0.65625q1.375 0 2.3125 0.953125q0.953125 0.953125 0.953125 2.4375q0 1.4375 -0.828125 2.46875q-1.015625 1.265625 -2.75 1.265625q-1.4375 0 -2.34375 -0.796875q-0.90625 -0.796875 -1.03125 -2.125z" fill-rule="nonzero"/><path fill="#000000" fill-opacity="0.0" d="m292.7667 199.71654l31.055115 0l0 37.16536l-31.055115 0z" fill-rule="evenodd"/><path fill="#000000" d="m311.51556 215.65733l-1.28125 0.09375q-0.171875 -0.75 -0.484375 -1.09375q-0.53125 -0.546875 -1.296875 -0.546875q-0.609375 0 -1.078125 0.34375q-0.609375 0.4375 -0.96875 1.296875q-0.34375 0.84375 -0.359375 2.421875q0.46875 -0.71875 1.140625 -1.0625q0.671875 -0.34375 1.40625 -0.34375q1.296875 0 2.203125 0.953125q0.90625 0.953125 0.90625 2.453125q0 0.984375 -0.4375 1.84375q-0.421875 0.84375 -1.171875 1.296875q-0.734375 0.4375 -1.6875 0.4375q-1.609375 0 -2.625 -1.171875q-1.015625 -1.1875 -1.015625 -3.90625q0 -3.046875 1.125 -4.421875q0.984375 -1.203125 2.640625 -1.203125q1.234375 0 2.03125 0.703125q0.796875 0.6875 0.953125 1.90625zm-5.265625 4.515625q0 0.671875 0.28125 1.28125q0.28125 0.609375 0.78125 0.9375q0.515625 0.3125 1.078125 0.3125q0.8125 0 1.390625 -0.65625q0.59375 -0.671875 0.59375 -1.796875q0 -1.09375 -0.578125 -1.71875q-0.578125 -0.625 -1.453125 -0.625q-0.875 0 -1.484375 0.625q-0.609375 0.625 -0.609375 1.640625z" fill-rule="nonzero"/><path fill="#000000" fill-opacity="0.0" d="m417.4537 199.71654l31.055115 0l0 37.16536l-31.055115 0z" fill-rule="evenodd"/><path fill="#000000" d="m429.5932 214.45421l0 -1.234375l6.796875 0l0 1.0q-1.0 1.078125 -1.984375 2.84375q-0.984375 1.765625 -1.515625 3.625q-0.390625 1.328125 -0.5 2.890625l-1.328125 0q0.03125 -1.234375 0.484375 -2.984375q0.46875 -1.765625 1.34375 -3.390625q0.875 -1.625 1.84375 -2.75l-5.140625 0z" fill-rule="nonzero"/><path fill="#000000" fill-opacity="0.0" d="m542.1407 199.71654l31.055115 0l0 37.16536l-31.055115 0z" fill-rule="evenodd"/><path fill="#000000" d="m556.18646 217.89171q-0.796875 -0.296875 -1.1875 -0.84375q-0.390625 -0.546875 -0.390625 -1.296875q0 -1.140625 0.8125 -1.921875q0.828125 -0.78125 2.203125 -0.78125q1.375 0 2.203125 0.796875q0.84375 0.796875 0.84375 1.9375q0 0.734375 -0.390625 1.28125q-0.375 0.53125 -1.15625 0.828125q0.96875 0.3125 1.46875 1.015625q0.5 0.703125 0.5 1.671875q0 1.34375 -0.953125 2.265625q-0.9375 0.90625 -2.5 0.90625q-1.546875 0 -2.5 -0.90625q-0.953125 -0.921875 -0.953125 -2.296875q0 -1.03125 0.515625 -1.71875q0.515625 -0.6875 1.484375 -0.9375zm-0.265625 -2.1875q0 0.75 0.484375 1.21875q0.484375 0.46875 1.25 0.46875q0.734375 0 1.203125 -0.46875q0.484375 -0.46875 0.484375 -1.140625q0 -0.71875 -0.5 -1.1875q-0.484375 -0.484375 -1.203125 -0.484375q-0.734375 0 -1.234375 0.46875q-0.484375 0.46875 -0.484375 1.125zm-0.40625 4.84375q0 0.5625 0.25 1.078125q0.265625 0.5 0.78125 0.796875q0.515625 0.28125 1.109375 0.28125q0.921875 0 1.515625 -0.59375q0.609375 -0.59375 0.609375 -1.515625q0 -0.9375 -0.625 -1.53125q-0.609375 -0.609375 -1.546875 -0.609375q-0.90625 0 -1.5 0.609375q-0.59375 0.59375 -0.59375 1.484375z" fill-rule="nonzero"/><path fill="#000000" fill-opacity="0.0" d="m666.8277 199.71654l31.055115 0l0 37.16536l-31.055115 0z" fill-rule="evenodd"/><path fill="#000000" d="m679.0766 221.15733l1.25 -0.125q0.15625 0.875 0.59375 1.28125q0.4375 0.390625 1.140625 0.390625q0.59375 0 1.03125 -0.265625q0.453125 -0.28125 0.734375 -0.734375q0.296875 -0.453125 0.484375 -1.21875q0.1875 -0.78125 0.1875 -1.59375q0 -0.078125 0 -0.25q-0.390625 0.609375 -1.0625 1.0q-0.65625 0.375 -1.4375 0.375q-1.3125 0 -2.21875 -0.9375q-0.890625 -0.953125 -0.890625 -2.484375q0 -1.609375 0.9375 -2.578125q0.9375 -0.96875 2.359375 -0.96875q1.03125 0 1.875 0.546875q0.84375 0.546875 1.28125 1.578125q0.4375 1.015625 0.4375 2.953125q0 2.0 -0.4375 3.203125q-0.421875 1.1875 -1.296875 1.8125q-0.859375 0.609375 -2.015625 0.609375q-1.234375 0 -2.015625 -0.671875q-0.78125 -0.6875 -0.9375 -1.921875zm5.28125 -4.640625q0 -1.109375 -0.59375 -1.75q-0.59375 -0.65625 -1.421875 -0.65625q-0.859375 0 -1.5 0.703125q-0.625 0.703125 -0.625 1.8125q0 1.0 0.59375 1.640625q0.609375 0.625 1.5 0.625q0.890625 0 1.46875 -0.625q0.578125 -0.640625 0.578125 -1.75z" fill-rule="nonzero"/><path fill="#000000" fill-opacity="0.0" d="m134.53543 109.56431l588.81885 0" fill-rule="evenodd"/><path stroke="#000000" stroke-width="1.0" stroke-linejoin="round" stroke-linecap="butt" stroke-dasharray="4.0,3.0" d="m134.53543 109.56431l588.81885 0" fill-rule="evenodd"/><path fill="#000000" fill-opacity="0.0" d="m243.08136 0l0 223.84251" fill-rule="evenodd"/><path stroke="#000000" stroke-width="1.0" stroke-linejoin="round" stroke-linecap="butt" stroke-dasharray="4.0,3.0" d="m243.08136 0l0 223.84251" fill-rule="evenodd"/><path fill="#000000" fill-opacity="0.0" d="m369.2257 0l0 223.84251" fill-rule="evenodd"/><path stroke="#000000" stroke-width="1.0" stroke-linejoin="round" stroke-linecap="butt" stroke-dasharray="4.0,3.0" d="m369.2257 0l0 223.84251" fill-rule="evenodd"/><path fill="#000000" fill-opacity="0.0" d="m495.3701 0l0 223.84251" fill-rule="evenodd"/><path stroke="#000000" stroke-width="1.0" stroke-linejoin="round" stroke-linecap="butt" stroke-dasharray="4.0,3.0" d="m495.3701 0l0 223.84251" fill-rule="evenodd"/><path fill="#000000" fill-opacity="0.0" d="m621.51447 0l0 223.84251" fill-rule="evenodd"/><path stroke="#000000" stroke-width="1.0" stroke-linejoin="round" stroke-linecap="butt" stroke-dasharray="4.0,3.0" d="m621.51447 0l0 223.84251" fill-rule="evenodd"/></g></svg>