<svg version="1.1" viewBox="0.0 0.0 785.7690288713911 212.14173228346456" fill="none" stroke="none" stroke-linecap="square" stroke-miterlimit="10" xmlns:xlink="http://www.w3.org/1999/xlink" xmlns="http://www.w3.org/2000/svg"><clipPath id="p.0"><path d="m0 0l785.76904 0l0 212.14174l-785.76904 0l0 -212.14174z" clip-rule="nonzero"/></clipPath><g clip-path="url(#p.0)"><path fill="#000000" fill-opacity="0.0" d="m0 0l785.76904 0l0 212.14174l-785.76904 0z" fill-rule="evenodd"/><path fill="#000000" fill-opacity="0.0" d="m34.35162 4.1528797l0 0c7.0669365 0 13.596989 3.77037 17.13012 9.890711c3.5331306 6.1203403 3.532505 13.660719 -0.0016403198 19.780476c-3.5341415 6.119755 -10.064823 9.889042 -17.13176 9.887867l0.0032806396 -19.779526z" fill-rule="evenodd"/><path fill="#000000" fill-opacity="0.0" d="m34.35162 4.1528797l0 0c7.0669365 0 13.596989 3.77037 17.13012 9.890711c3.5331306 6.1203403 3.532505 13.660719 -0.0016403198 19.780476c-3.5341415 6.119755 -10.064823 9.889042 -17.13176 9.887867" fill-rule="evenodd"/><path stroke="#000000" stroke-width="4.0" stroke-linejoin="round" stroke-linecap="round" d="m34.35162 4.1528797l0 0c7.0669365 0 13.596989 3.77037 17.13012 9.890711c3.5331306 6.1203403 3.532505 13.660719 -0.0016403198 19.780476c-3.5341415 6.119755 -10.064823 9.889042 -17.13176 9.887867" fill-rule="evenodd"/><path fill="#000000" fill-opacity="0.0" d="m24.141645 4.1528797l0 0c-7.0669346 0 -13.596991 3.77037 -17.13012 9.890711c-3.5331292 6.1203403 -3.532504 13.660719 0.001639843 19.780476c3.5341444 6.119755 10.064824 9.889042 17.13176 9.887867l-0.0032806396 -19.779526z" fill-rule="evenodd"/><path fill="#000000" fill-opacity="0.0" d="m24.141645 4.1528797l0 0c-7.0669346 0 -13.596991 3.77037 -17.13012 9.890711c-3.5331292 6.1203403 -3.532504 13.660719 0.001639843 19.780476c3.5341444 6.119755 10.064824 9.889042 17.13176 9.887867" fill-rule="evenodd"/><path stroke="#000000" stroke-width="4.0" stroke-linejoin="round" stroke-linecap="round" d="m24.141645 4.1528797l0 0c-7.0669346 0 -13.596991 3.77037 -17.13012 9.890711c-3.5331292 6.1203403 -3.532504 13.660719 0.001639843 19.780476c3.5341444 6.119755 10.064824 9.889042 17.13176 9.887867" fill-rule="evenodd"/><path fill="#000000" fill-opacity="0.0" d="m34.35162 55.756554l0 0c7.0669365 0 13.596989 3.7703705 17.13012 9.890709c3.5331306 6.120346 3.532505 13.660721 -0.0016403198 19.78048c-3.5341415 6.119751 -10.064823 9.889038 -17.13176 9.887871l0.0032806396 -19.779533z" fill-rule="evenodd"/><path fill="#000000" fill-opacity="0.0" d="m34.35162 55.756554l0 0c7.0669365 0 13.596989 3.7703705 17.13012 9.890709c3.5331306 6.120346 3.532505 13.660721 -0.0016403198 19.78048c-3.5341415 6.119751 -10.064823 9.889038 -17.13176 9.887871" fill-rule="evenodd"/><path stroke="#000000" stroke-width="4.0" stroke-linejoin="round" stroke-linecap="round" d="m34.35162 55.756554l0 0c7.0669365 0 13.596989 3.7703705 17.13012 9.890709c3.5331306 6.120346 3.532505 13.660721 -0.0016403198 19.78048c-3.5341415 6.119751 -10.064823 9.889038 -17.13176 9.887871" fill-rule="evenodd"/><path fill="#000000" fill-opacity="0.0" d="m24.141645 55.756554l0 0c-7.0669346 0 -13.596991 3.7703705 -17.13012 9.890709c-3.5331292 6.120346 -3.532504 13.660721 0.001639843 19.78048c3.5341444 6.119751 10.064824 9.889038 17.13176 9.887871l-0.0032806396 -19.779533z" fill-rule="evenodd"/><path fill="#000000" fill-opacity="0.0" d="m24.141645 55.756554l0 0c-7.0669346 0 -13.596991 3.7703705 -17.13012 9.890709c-3.5331292 6.120346 -3.532504 13.660721 0.001639843 19.78048c3.5341444 6.119751 10.064824 9.889038 17.13176 9.887871" fill-rule="evenodd"/><path stroke="#000000" stroke-width="4.0" stroke-linejoin="round" stroke-linecap="round" d="m24.141645 55.756554l0 0c-7.0669346 0 -13.596991 3.7703705 -17.13012 9.890709c-3.5331292 6.120346 -3.532504 13.660721 0.001639843 19.78048c3.5341444 6.119751 10.064824 9.889038 17.13176 9.887871" fill-rule="evenodd"/><path fill="#000000" fill-opacity="0.0" d="m108.681274 4.1528797l0 0c7.0669403 0 13.5969925 3.77037 17.130127 9.890711c3.5331268 6.1203403 3.5325012 13.660719 -0.0016403198 19.780476c-3.5341492 6.119755 -10.064827 9.889042 -17.13176 9.887867l0.0032730103 -19.779526z" fill-rule="evenodd"/><path fill="#000000" fill-opacity="0.0" d="m108.681274 4.1528797l0 0c7.0669403 0 13.5969925 3.77037 17.130127 9.890711c3.5331268 6.1203403 3.5325012 13.660719 -0.0016403198 19.780476c-3.5341492 6.119755 -10.064827 9.889042 -17.13176 9.887867" fill-rule="evenodd"/><path stroke="#efefef" stroke-width="4.0" stroke-linejoin="round" stroke-linecap="round" d="m108.681274 4.1528797l0 0c7.0669403 0 13.5969925 3.77037 17.130127 9.890711c3.5331268 6.1203403 3.5325012 13.660719 -0.0016403198 19.780476c-3.5341492 6.119755 -10.064827 9.889042 -17.13176 9.887867" fill-rule="evenodd"/><path fill="#000000" fill-opacity="0.0" d="m98.471306 4.1528797l0 0c-7.0669403 0 -13.5969925 3.77037 -17.13012 9.890711c-3.5331345 6.1203403 -3.5325089 13.660719 0.0016403198 19.780476c3.5341415 6.119755 10.064819 9.889042 17.13176 9.887867l-0.0032806396 -19.779526z" fill-rule="evenodd"/><path fill="#000000" fill-opacity="0.0" d="m98.471306 4.1528797l0 0c-7.0669403 0 -13.5969925 3.77037 -17.13012 9.890711c-3.5331345 6.1203403 -3.5325089 13.660719 0.0016403198 19.780476c3.5341415 6.119755 10.064819 9.889042 17.13176 9.887867" fill-rule="evenodd"/><path stroke="#efefef" stroke-width="4.0" stroke-linejoin="round" stroke-linecap="round" d="m98.471306 4.1528797l0 0c-7.0669403 0 -13.5969925 3.77037 -17.13012 9.890711c-3.5331345 6.1203403 -3.5325089 13.660719 0.0016403198 19.780476c3.5341415 6.119755 10.064819 9.889042 17.13176 9.887867" fill-rule="evenodd"/><path fill="#000000" fill-opacity="0.0" d="m108.681274 55.756554l0 0c7.0669403 0 13.5969925 3.7703705 17.130127 9.890709c3.5331268 6.120346 3.5325012 13.660721 -0.0016403198 19.78048c-3.5341492 6.119751 -10.064827 9.889038 -17.13176 9.887871l0.0032730103 -19.779533z" fill-rule="evenodd"/><path fill="#000000" fill-opacity="0.0" d="m108.681274 55.756554l0 0c7.0669403 0 13.5969925 3.7703705 17.130127 9.890709c3.5331268 6.120346 3.5325012 13.660721 -0.0016403198 19.78048c-3.5341492 6.119751 -10.064827 9.889038 -17.13176 9.887871" fill-rule="evenodd"/><path stroke="#000000" stroke-width="4.0" stroke-linejoin="round" stroke-linecap="round" d="m108.681274 55.756554l0 0c7.0669403 0 13.5969925 3.7703705 17.130127 9.890709c3.5331268 6.120346 3.5325012 13.660721 -0.0016403198 19.78048c-3.5341492 6.119751 -10.064827 9.889038 -17.13176 9.887871" fill-rule="evenodd"/><path fill="#000000" fill-opacity="0.0" d="m98.471306 55.756554l0 0c-7.0669403 0 -13.5969925 3.7703705 -17.13012 9.890709c-3.5331345 6.120346 -3.5325089 13.660721 0.0016403198 19.78048c3.5341415 6.119751 10.064819 9.889038 17.13176 9.887871l-0.0032806396 -19.779533z" fill-rule="evenodd"/><path fill="#000000" fill-opacity="0.0" d="m98.471306 55.756554l0 0c-7.0669403 0 -13.5969925 3.7703705 -17.13012 9.890709c-3.5331345 6.120346 -3.5325089 13.660721 0.0016403198 19.78048c3.5341415 6.119751 10.064819 9.889038 17.13176 9.887871" fill-rule="evenodd"/><path stroke="#000000" stroke-width="4.0" stroke-linejoin="round" stroke-linecap="round" d="m98.471306 55.756554l0 0c-7.0669403 0 -13.5969925 3.7703705 -17.13012 9.890709c-3.5331345 6.120346 -3.5325089 13.660721 0.0016403198 19.78048c3.5341415 6.119751 10.064819 9.889038 17.13176 9.887871" fill-rule="evenodd"/><path fill="#000000" fill-opacity="0.0" d="m87.592865 108.791985l31.968498 0l0 42.015755l-31.968498 0z" fill-rule="evenodd"/><path fill="#000000" d="m99.1705 129.11824q0 -2.3593826 0.484375 -3.7968826q0.484375 -1.453125 1.4375 -2.234375q0.96875 -0.78125 2.421875 -0.78125q1.0781326 0 1.8906326 0.4375q0.8125 0.421875 1.328125 1.25q0.53125 0.8125 0.828125 1.984375q0.3125 1.15625 0.3125 3.1406326q0 2.359375 -0.484375 3.8125q-0.484375 1.4375 -1.453125 2.234375q-0.953125 0.78125 -2.4218826 0.78125q-1.921875 0 -3.03125 -1.390625q-1.3125 -1.671875 -1.3125 -5.4375zm1.671875 0q0 3.296875 0.765625 4.390625q0.78125 1.078125 1.90625 1.078125q1.1406326 0 1.9062576 -1.09375q0.765625 -1.09375 0.765625 -4.375q0 -3.2968826 -0.765625 -4.3750076q-0.765625 -1.078125 -1.9218826 -1.078125q-1.125 0 -1.796875 0.953125q-0.859375 1.21875 -0.859375 4.5000076z" fill-rule="nonzero"/><path fill="#000000" fill-opacity="0.0" d="m183.01094 4.1528797l0 0c7.066925 0 13.596985 3.77037 17.130112 9.890711c3.5331268 6.1203403 3.5325165 13.660719 -0.0016326904 19.780476c-3.5341492 6.119755 -10.064835 9.889042 -17.13176 9.887867l0.0032806396 -19.779526z" fill-rule="evenodd"/><path fill="#000000" fill-opacity="0.0" d="m183.01094 4.1528797l0 0c7.066925 0 13.596985 3.77037 17.130112 9.890711c3.5331268 6.1203403 3.5325165 13.660719 -0.0016326904 19.780476c-3.5341492 6.119755 -10.064835 9.889042 -17.13176 9.887867" fill-rule="evenodd"/><path stroke="#efefef" stroke-width="4.0" stroke-linejoin="round" stroke-linecap="round" d="m183.01094 4.1528797l0 0c7.066925 0 13.596985 3.77037 17.130112 9.890711c3.5331268 6.1203403 3.5325165 13.660719 -0.0016326904 19.780476c-3.5341492 6.119755 -10.064835 9.889042 -17.13176 9.887867" fill-rule="evenodd"/><path fill="#000000" fill-opacity="0.0" d="m172.80096 4.1528797l0 0c-7.0669403 0 -13.596985 3.77037 -17.130127 9.890711c-3.5331268 6.1203403 -3.5325012 13.660719 0.0016479492 19.780476c3.5341492 6.119755 10.064819 9.889042 17.13176 9.887867l-0.0032806396 -19.779526z" fill-rule="evenodd"/><path fill="#000000" fill-opacity="0.0" d="m172.80096 4.1528797l0 0c-7.0669403 0 -13.596985 3.77037 -17.130127 9.890711c-3.5331268 6.1203403 -3.5325012 13.660719 0.0016479492 19.780476c3.5341492 6.119755 10.064819 9.889042 17.13176 9.887867" fill-rule="evenodd"/><path stroke="#efefef" stroke-width="4.0" stroke-linejoin="round" stroke-linecap="round" d="m172.80096 4.1528797l0 0c-7.0669403 0 -13.596985 3.77037 -17.130127 9.890711c-3.5331268 6.1203403 -3.5325012 13.660719 0.0016479492 19.780476c3.5341492 6.119755 10.064819 9.889042 17.13176 9.887867" fill-rule="evenodd"/><path fill="#000000" fill-opacity="0.0" d="m183.01094 55.756554l0 0c7.066925 0 13.596985 3.7703705 17.130112 9.890709c3.5331268 6.120346 3.5325165 13.660721 -0.0016326904 19.78048c-3.5341492 6.119751 -10.064835 9.889038 -17.13176 9.887871l0.0032806396 -19.779533z" fill-rule="evenodd"/><path fill="#000000" fill-opacity="0.0" d="m183.01094 55.756554l0 0c7.066925 0 13.596985 3.7703705 17.130112 9.890709c3.5331268 6.120346 3.5325165 13.660721 -0.0016326904 19.78048c-3.5341492 6.119751 -10.064835 9.889038 -17.13176 9.887871" fill-rule="evenodd"/><path stroke="#000000" stroke-width="4.0" stroke-linejoin="round" stroke-linecap="round" d="m183.01094 55.756554l0 0c7.066925 0 13.596985 3.7703705 17.130112 9.890709c3.5331268 6.120346 3.5325165 13.660721 -0.0016326904 19.78048c-3.5341492 6.119751 -10.064835 9.889038 -17.13176 9.887871" fill-rule="evenodd"/><path fill="#000000" fill-opacity="0.0" d="m172.80096 55.756554l0 0c-7.0669403 0 -13.596985 3.7703705 -17.130127 9.890709c-3.5331268 6.120346 -3.5325012 13.660721 0.0016479492 19.78048c3.5341492 6.119751 10.064819 9.889038 17.13176 9.887871l-0.0032806396 -19.779533z" fill-rule="evenodd"/><path fill="#000000" fill-opacity="0.0" d="m172.80096 55.756554l0 0c-7.0669403 0 -13.596985 3.7703705 -17.130127 9.890709c-3.5331268 6.120346 -3.5325012 13.660721 0.0016479492 19.78048c3.5341492 6.119751 10.064819 9.889038 17.13176 9.887871" fill-rule="evenodd"/><path stroke="#efefef" stroke-width="4.0" stroke-linejoin="round" stroke-linecap="round" d="m172.80096 55.756554l0 0c-7.0669403 0 -13.596985 3.7703705 -17.130127 9.890709c-3.5331268 6.120346 -3.5325012 13.660721 0.0016479492 19.78048c3.5341492 6.119751 10.064819 9.889038 17.13176 9.887871" fill-rule="evenodd"/><path fill="#000000" fill-opacity="0.0" d="m161.9212 108.791985l31.968506 0l0 42.015755l-31.968506 0z" fill-rule="evenodd"/><path fill="#000000" d="m179.67073 135.71199l-1.640625 0l0 -10.453133q-0.59375 0.5625 -1.5625 1.140625q-0.953125 0.5625 -1.71875 0.84375l0 -1.59375q1.375 -0.640625 2.40625 -1.5625q1.03125 -0.921875 1.453125 -1.78125l1.0625 0l0 13.406258z" fill-rule="nonzero"/><path fill="#000000" fill-opacity="0.0" d="m257.3406 4.1528797l0 0c7.066925 0 13.596985 3.77037 17.130096 9.890711c3.533142 6.1203403 3.5325317 13.660719 -0.0016174316 19.780476c-3.5341492 6.119755 -10.064819 9.889042 -17.131775 9.887867l0.0032958984 -19.779526z" fill-rule="evenodd"/><path fill="#000000" fill-opacity="0.0" d="m257.3406 4.1528797l0 0c7.066925 0 13.596985 3.77037 17.130096 9.890711c3.533142 6.1203403 3.5325317 13.660719 -0.0016174316 19.780476c-3.5341492 6.119755 -10.064819 9.889042 -17.131775 9.887867" fill-rule="evenodd"/><path stroke="#000000" stroke-width="4.0" stroke-linejoin="round" stroke-linecap="round" d="m257.3406 4.1528797l0 0c7.066925 0 13.596985 3.77037 17.130096 9.890711c3.533142 6.1203403 3.5325317 13.660719 -0.0016174316 19.780476c-3.5341492 6.119755 -10.064819 9.889042 -17.131775 9.887867" fill-rule="evenodd"/><path fill="#000000" fill-opacity="0.0" d="m247.13062 4.1528797l0 0c-7.066925 0 -13.596985 3.77037 -17.130112 9.890711c-3.5331268 6.1203403 -3.5325012 13.660719 0.0016326904 19.780476c3.5341492 6.119755 10.064835 9.889042 17.13176 9.887867l-0.0032806396 -19.779526z" fill-rule="evenodd"/><path fill="#000000" fill-opacity="0.0" d="m247.13062 4.1528797l0 0c-7.066925 0 -13.596985 3.77037 -17.130112 9.890711c-3.5331268 6.1203403 -3.5325012 13.660719 0.0016326904 19.780476c3.5341492 6.119755 10.064835 9.889042 17.13176 9.887867" fill-rule="evenodd"/><path stroke="#efefef" stroke-width="4.0" stroke-linejoin="round" stroke-linecap="round" d="m247.13062 4.1528797l0 0c-7.066925 0 -13.596985 3.77037 -17.130112 9.890711c-3.5331268 6.1203403 -3.5325012 13.660719 0.0016326904 19.780476c3.5341492 6.119755 10.064835 9.889042 17.13176 9.887867" fill-rule="evenodd"/><path fill="#000000" fill-opacity="0.0" d="m257.3406 55.756554l0 0c7.066925 0 13.596985 3.7703705 17.130096 9.890709c3.533142 6.120346 3.5325317 13.660721 -0.0016174316 19.78048c-3.5341492 6.119751 -10.064819 9.889038 -17.131775 9.887871l0.0032958984 -19.779533z" fill-rule="evenodd"/><path fill="#000000" fill-opacity="0.0" d="m257.3406 55.756554l0 0c7.066925 0 13.596985 3.7703705 17.130096 9.890709c3.533142 6.120346 3.5325317 13.660721 -0.0016174316 19.78048c-3.5341492 6.119751 -10.064819 9.889038 -17.131775 9.887871" fill-rule="evenodd"/><path stroke="#efefef" stroke-width="4.0" stroke-linejoin="round" stroke-linecap="round" d="m257.3406 55.756554l0 0c7.066925 0 13.596985 3.7703705 17.130096 9.890709c3.533142 6.120346 3.5325317 13.660721 -0.0016174316 19.78048c-3.5341492 6.119751 -10.064819 9.889038 -17.131775 9.887871" fill-rule="evenodd"/><path fill="#000000" fill-opacity="0.0" d="m247.13062 55.756554l0 0c-7.066925 0 -13.596985 3.7703705 -17.130112 9.890709c-3.5331268 6.120346 -3.5325012 13.660721 0.0016326904 19.78048c3.5341492 6.119751 10.064835 9.889038 17.13176 9.887871l-0.0032806396 -19.779533z" fill-rule="evenodd"/><path fill="#000000" fill-opacity="0.0" d="m247.13062 55.756554l0 0c-7.066925 0 -13.596985 3.7703705 -17.130112 9.890709c-3.5331268 6.120346 -3.5325012 13.660721 0.0016326904 19.78048c3.5341492 6.119751 10.064835 9.889038 17.13176 9.887871" fill-rule="evenodd"/><path stroke="#000000" stroke-width="4.0" stroke-linejoin="round" stroke-linecap="round" d="m247.13062 55.756554l0 0c-7.066925 0 -13.596985 3.7703705 -17.130112 9.890709c-3.5331268 6.120346 -3.5325012 13.660721 0.0016326904 19.78048c3.5341492 6.119751 10.064835 9.889038 17.13176 9.887871" fill-rule="evenodd"/><path fill="#000000" fill-opacity="0.0" d="m236.24956 108.791985l31.96849 0l0 42.015755l-31.96849 0z" fill-rule="evenodd"/><path fill="#000000" d="m256.43658 134.13387l0 1.578125l-8.82814 0q-0.015625 -0.59375 0.1875 -1.140625q0.34375 -0.90625 1.078125 -1.78125q0.75 -0.875 2.15625 -2.015625q2.171875 -1.78125 2.9375 -2.8281326q0.765625 -1.046875 0.765625 -1.96875q0 -0.984375 -0.703125 -1.640625q-0.6875 -0.671875 -1.8125 -0.671875q-1.1875 0 -1.90625 0.71875q-0.703125 0.703125 -0.703125 1.953125l-1.6875 -0.171875q0.171875 -1.890625 1.296875 -2.875q1.140625 -0.984375 3.03125 -0.984375q1.921875 0 3.046875 1.0625q1.1250153 1.0625 1.1250153 2.640625q0 0.796875 -0.328125 1.578125q-0.32814026 0.7812576 -1.0937653 1.6406326q-0.75 0.84375 -2.53125 2.34375q-1.46875 1.234375 -1.890625 1.6875q-0.421875 0.4375 -0.6875 0.875l6.5468903 0z" fill-rule="nonzero"/><path fill="#000000" fill-opacity="0.0" d="m331.67026 4.1528797l0 0c7.066925 0 13.596985 3.77037 17.130127 9.890711c3.5331116 6.1203403 3.5325012 13.660719 -0.0016479492 19.780476c-3.5341492 6.119755 -10.064819 9.889042 -17.131775 9.887867l0.0032958984 -19.779526z" fill-rule="evenodd"/><path fill="#000000" fill-opacity="0.0" d="m331.67026 4.1528797l0 0c7.066925 0 13.596985 3.77037 17.130127 9.890711c3.5331116 6.1203403 3.5325012 13.660719 -0.0016479492 19.780476c-3.5341492 6.119755 -10.064819 9.889042 -17.131775 9.887867" fill-rule="evenodd"/><path stroke="#000000" stroke-width="4.0" stroke-linejoin="round" stroke-linecap="round" d="m331.67026 4.1528797l0 0c7.066925 0 13.596985 3.77037 17.130127 9.890711c3.5331116 6.1203403 3.5325012 13.660719 -0.0016479492 19.780476c-3.5341492 6.119755 -10.064819 9.889042 -17.131775 9.887867" fill-rule="evenodd"/><path fill="#000000" fill-opacity="0.0" d="m321.46027 4.1528797l0 0c-7.066925 0 -13.596985 3.77037 -17.130096 9.890711c-3.533142 6.1203403 -3.5325012 13.660719 0.0016174316 19.780476c3.5341492 6.119755 10.06485 9.889042 17.131775 9.887867l-0.0032958984 -19.779526z" fill-rule="evenodd"/><path fill="#000000" fill-opacity="0.0" d="m321.46027 4.1528797l0 0c-7.066925 0 -13.596985 3.77037 -17.130096 9.890711c-3.533142 6.1203403 -3.5325012 13.660719 0.0016174316 19.780476c3.5341492 6.119755 10.06485 9.889042 17.131775 9.887867" fill-rule="evenodd"/><path stroke="#efefef" stroke-width="4.0" stroke-linejoin="round" stroke-linecap="round" d="m321.46027 4.1528797l0 0c-7.066925 0 -13.596985 3.77037 -17.130096 9.890711c-3.533142 6.1203403 -3.5325012 13.660719 0.0016174316 19.780476c3.5341492 6.119755 10.06485 9.889042 17.131775 9.887867" fill-rule="evenodd"/><path fill="#000000" fill-opacity="0.0" d="m331.67026 55.756554l0 0c7.066925 0 13.596985 3.7703705 17.130127 9.890709c3.5331116 6.120346 3.5325012 13.660721 -0.0016479492 19.78048c-3.5341492 6.119751 -10.064819 9.889038 -17.131775 9.887871l0.0032958984 -19.779533z" fill-rule="evenodd"/><path fill="#000000" fill-opacity="0.0" d="m331.67026 55.756554l0 0c7.066925 0 13.596985 3.7703705 17.130127 9.890709c3.5331116 6.120346 3.5325012 13.660721 -0.0016479492 19.78048c-3.5341492 6.119751 -10.064819 9.889038 -17.131775 9.887871" fill-rule="evenodd"/><path stroke="#000000" stroke-width="4.0" stroke-linejoin="round" stroke-linecap="round" d="m331.67026 55.756554l0 0c7.066925 0 13.596985 3.7703705 17.130127 9.890709c3.5331116 6.120346 3.5325012 13.660721 -0.0016479492 19.78048c-3.5341492 6.119751 -10.064819 9.889038 -17.131775 9.887871" fill-rule="evenodd"/><path fill="#000000" fill-opacity="0.0" d="m321.46027 55.756554l0 0c-7.066925 0 -13.596985 3.7703705 -17.130096 9.890709c-3.533142 6.120346 -3.5325012 13.660721 0.0016174316 19.78048c3.5341492 6.119751 10.06485 9.889038 17.131775 9.887871l-0.0032958984 -19.779533z" fill-rule="evenodd"/><path fill="#000000" fill-opacity="0.0" d="m321.46027 55.756554l0 0c-7.066925 0 -13.596985 3.7703705 -17.130096 9.890709c-3.533142 6.120346 -3.5325012 13.660721 0.0016174316 19.78048c3.5341492 6.119751 10.06485 9.889038 17.131775 9.887871" fill-rule="evenodd"/><path stroke="#efefef" stroke-width="4.0" stroke-linejoin="round" stroke-linecap="round" d="m321.46027 55.756554l0 0c-7.066925 0 -13.596985 3.7703705 -17.130096 9.890709c-3.533142 6.120346 -3.5325012 13.660721 0.0016174316 19.78048c3.5341492 6.119751 10.06485 9.889038 17.131775 9.887871" fill-rule="evenodd"/><path fill="#000000" fill-opacity="0.0" d="m310.5779 108.791985l31.968506 0l0 42.015755l-31.968506 0z" fill-rule="evenodd"/><path fill="#000000" d="m322.15555 132.18074l1.640625 -0.21875q0.28125 1.40625 0.953125 2.015625q0.6875 0.609375 1.65625 0.609375q1.15625 0 1.953125 -0.796875q0.796875 -0.796875 0.796875 -1.984375q0 -1.125 -0.734375 -1.859375q-0.734375 -0.734375 -1.875 -0.734375q-0.46875 0 -1.15625 0.171875l0.1875 -1.4375076q0.15625 0.015625 0.265625 0.015625q1.046875 0 1.875 -0.546875q0.84375 -0.546875 0.84375 -1.671875q0 -0.90625 -0.609375 -1.5q-0.609375 -0.59375 -1.578125 -0.59375q-0.953125 0 -1.59375 0.609375q-0.640625 0.59375 -0.8125 1.796875l-1.640625 -0.296875q0.296875 -1.640625 1.359375 -2.546875q1.0625 -0.90625 2.65625 -0.90625q1.09375 0 2.0 0.46875q0.921875 0.46875 1.40625 1.28125q0.5 0.8125 0.5 1.71875q0 0.859375 -0.46875 1.578125q-0.46875 0.7031326 -1.375 1.1250076q1.1875 0.28125 1.84375 1.140625q0.65625 0.859375 0.65625 2.15625q0 1.734375 -1.28125 2.953125q-1.265625 1.21875 -3.21875 1.21875q-1.765625 0 -2.921875 -1.046875q-1.15625 -1.046875 -1.328125 -2.71875z" fill-rule="nonzero"/><path fill="#000000" fill-opacity="0.0" d="m471.44244 4.1528797l0 0c7.066925 0 13.596985 3.77037 17.130096 9.890711c3.533142 6.1203403 3.5325317 13.660719 -0.0016174316 19.780476c-3.5341492 6.119755 -10.064819 9.889042 -17.131775 9.887867l0.0032958984 -19.779526z" fill-rule="evenodd"/><path fill="#000000" fill-opacity="0.0" d="m471.44244 4.1528797l0 0c7.066925 0 13.596985 3.77037 17.130096 9.890711c3.533142 6.1203403 3.5325317 13.660719 -0.0016174316 19.780476c-3.5341492 6.119755 -10.064819 9.889042 -17.131775 9.887867" fill-rule="evenodd"/><path stroke="#efefef" stroke-width="4.0" stroke-linejoin="round" stroke-linecap="round" d="m471.44244 4.1528797l0 0c7.066925 0 13.596985 3.77037 17.130096 9.890711c3.533142 6.1203403 3.5325317 13.660719 -0.0016174316 19.780476c-3.5341492 6.119755 -10.064819 9.889042 -17.131775 9.887867" fill-rule="evenodd"/><path fill="#000000" fill-opacity="0.0" d="m461.23245 4.1528797l0 0c-7.066925 0 -13.596985 3.77037 -17.130127 9.890711c-3.5331116 6.1203403 -3.5325012 13.660719 0.0016479492 19.780476c3.5341492 6.119755 10.064819 9.889042 17.131775 9.887867l-0.0032958984 -19.779526z" fill-rule="evenodd"/><path fill="#000000" fill-opacity="0.0" d="m461.23245 4.1528797l0 0c-7.066925 0 -13.596985 3.77037 -17.130127 9.890711c-3.5331116 6.1203403 -3.5325012 13.660719 0.0016479492 19.780476c3.5341492 6.119755 10.064819 9.889042 17.131775 9.887867" fill-rule="evenodd"/><path stroke="#000000" stroke-width="4.0" stroke-linejoin="round" stroke-linecap="round" d="m461.23245 4.1528797l0 0c-7.066925 0 -13.596985 3.77037 -17.130127 9.890711c-3.5331116 6.1203403 -3.5325012 13.660719 0.0016479492 19.780476c3.5341492 6.119755 10.064819 9.889042 17.131775 9.887867" fill-rule="evenodd"/><path fill="#000000" fill-opacity="0.0" d="m471.44244 55.756554l0 0c7.066925 0 13.596985 3.7703705 17.130096 9.890709c3.533142 6.120346 3.5325317 13.660721 -0.0016174316 19.78048c-3.5341492 6.119751 -10.064819 9.889038 -17.131775 9.887871l0.0032958984 -19.779533z" fill-rule="evenodd"/><path fill="#000000" fill-opacity="0.0" d="m471.44244 55.756554l0 0c7.066925 0 13.596985 3.7703705 17.130096 9.890709c3.533142 6.120346 3.5325317 13.660721 -0.0016174316 19.78048c-3.5341492 6.119751 -10.064819 9.889038 -17.131775 9.887871" fill-rule="evenodd"/><path stroke="#000000" stroke-width="4.0" stroke-linejoin="round" stroke-linecap="round" d="m471.44244 55.756554l0 0c7.066925 0 13.596985 3.7703705 17.130096 9.890709c3.533142 6.120346 3.5325317 13.660721 -0.0016174316 19.78048c-3.5341492 6.119751 -10.064819 9.889038 -17.131775 9.887871" fill-rule="evenodd"/><path fill="#000000" fill-opacity="0.0" d="m461.23245 55.756554l0 0c-7.066925 0 -13.596985 3.7703705 -17.130127 9.890709c-3.5331116 6.120346 -3.5325012 13.660721 0.0016479492 19.78048c3.5341492 6.119751 10.064819 9.889038 17.131775 9.887871l-0.0032958984 -19.779533z" fill-rule="evenodd"/><path fill="#000000" fill-opacity="0.0" d="m461.23245 55.756554l0 0c-7.066925 0 -13.596985 3.7703705 -17.130127 9.890709c-3.5331116 6.120346 -3.5325012 13.660721 0.0016479492 19.78048c3.5341492 6.119751 10.064819 9.889038 17.131775 9.887871" fill-rule="evenodd"/><path stroke="#efefef" stroke-width="4.0" stroke-linejoin="round" stroke-linecap="round" d="m461.23245 55.756554l0 0c-7.066925 0 -13.596985 3.7703705 -17.130127 9.890709c-3.5331116 6.120346 -3.5325012 13.660721 0.0016479492 19.78048c3.5341492 6.119751 10.064819 9.889038 17.131775 9.887871" fill-rule="evenodd"/><path fill="#000000" fill-opacity="0.0" d="m445.896 108.791985l40.881897 0l0 42.015755l-40.881897 0z" fill-rule="evenodd"/><path fill="#000000" d="m461.93036 132.21199l1.71875 -0.140625q0.1875 1.25 0.875 1.890625q0.703125 0.625 1.6875 0.625q1.1875 0 2.0 -0.890625q0.828125 -0.890625 0.828125 -2.359375q0 -1.40625 -0.796875 -2.21875q-0.78125 -0.8125 -2.0625 -0.8125q-0.78125 0 -1.421875 0.359375q-0.640625 0.359375 -1.0 0.9375l-1.546875 -0.203125l1.296875 -6.8593826l6.640625 0l0 1.5625l-5.328125 0l-0.71875 3.59375q1.203125 -0.84375 2.515625 -0.84375q1.75 0 2.953125 1.2187576q1.203125 1.203125 1.203125 3.109375q0 1.8125 -1.046875 3.140625q-1.296875 1.625 -3.515625 1.625q-1.8125 0 -2.96875 -1.015625q-1.15625 -1.03125 -1.3125 -2.71875z" fill-rule="nonzero"/><path fill="#000000" fill-opacity="0.0" d="m545.7721 4.1528797l0 0c7.0669556 0 13.596985 3.77037 17.130127 9.890711c3.533142 6.1203403 3.5324707 13.660719 -0.0016479492 19.780476c-3.5341187 6.119755 -10.064819 9.889042 -17.131775 9.887867l0.0032958984 -19.779526z" fill-rule="evenodd"/><path fill="#000000" fill-opacity="0.0" d="m545.7721 4.1528797l0 0c7.0669556 0 13.596985 3.77037 17.130127 9.890711c3.533142 6.1203403 3.5324707 13.660719 -0.0016479492 19.780476c-3.5341187 6.119755 -10.064819 9.889042 -17.131775 9.887867" fill-rule="evenodd"/><path stroke="#efefef" stroke-width="4.0" stroke-linejoin="round" stroke-linecap="round" d="m545.7721 4.1528797l0 0c7.0669556 0 13.596985 3.77037 17.130127 9.890711c3.533142 6.1203403 3.5324707 13.660719 -0.0016479492 19.780476c-3.5341187 6.119755 -10.064819 9.889042 -17.131775 9.887867" fill-rule="evenodd"/><path fill="#000000" fill-opacity="0.0" d="m535.56213 4.1528797l0 0c-7.0669556 0 -13.596985 3.77037 -17.130127 9.890711c-3.533142 6.1203403 -3.5325317 13.660719 0.0016479492 19.780476c3.5341187 6.119755 10.064819 9.889042 17.131714 9.887867l-0.0032348633 -19.779526z" fill-rule="evenodd"/><path fill="#000000" fill-opacity="0.0" d="m535.56213 4.1528797l0 0c-7.0669556 0 -13.596985 3.77037 -17.130127 9.890711c-3.533142 6.1203403 -3.5325317 13.660719 0.0016479492 19.780476c3.5341187 6.119755 10.064819 9.889042 17.131714 9.887867" fill-rule="evenodd"/><path stroke="#000000" stroke-width="4.0" stroke-linejoin="round" stroke-linecap="round" d="m535.56213 4.1528797l0 0c-7.0669556 0 -13.596985 3.77037 -17.130127 9.890711c-3.533142 6.1203403 -3.5325317 13.660719 0.0016479492 19.780476c3.5341187 6.119755 10.064819 9.889042 17.131714 9.887867" fill-rule="evenodd"/><path fill="#000000" fill-opacity="0.0" d="m545.7721 55.756554l0 0c7.0669556 0 13.596985 3.7703705 17.130127 9.890709c3.533142 6.120346 3.5324707 13.660721 -0.0016479492 19.78048c-3.5341187 6.119751 -10.064819 9.889038 -17.131775 9.887871l0.0032958984 -19.779533z" fill-rule="evenodd"/><path fill="#000000" fill-opacity="0.0" d="m545.7721 55.756554l0 0c7.0669556 0 13.596985 3.7703705 17.130127 9.890709c3.533142 6.120346 3.5324707 13.660721 -0.0016479492 19.78048c-3.5341187 6.119751 -10.064819 9.889038 -17.131775 9.887871" fill-rule="evenodd"/><path stroke="#000000" stroke-width="4.0" stroke-linejoin="round" stroke-linecap="round" d="m545.7721 55.756554l0 0c7.0669556 0 13.596985 3.7703705 17.130127 9.890709c3.533142 6.120346 3.5324707 13.660721 -0.0016479492 19.78048c-3.5341187 6.119751 -10.064819 9.889038 -17.131775 9.887871" fill-rule="evenodd"/><path fill="#000000" fill-opacity="0.0" d="m535.56213 55.756554l0 0c-7.0669556 0 -13.596985 3.7703705 -17.130127 9.890709c-3.533142 6.120346 -3.5325317 13.660721 0.0016479492 19.78048c3.5341187 6.119751 10.064819 9.889038 17.131714 9.887871l-0.0032348633 -19.779533z" fill-rule="evenodd"/><path fill="#000000" fill-opacity="0.0" d="m535.56213 55.756554l0 0c-7.0669556 0 -13.596985 3.7703705 -17.130127 9.890709c-3.533142 6.120346 -3.5325317 13.660721 0.0016479492 19.78048c3.5341187 6.119751 10.064819 9.889038 17.131714 9.887871" fill-rule="evenodd"/><path stroke="#000000" stroke-width="4.0" stroke-linejoin="round" stroke-linecap="round" d="m535.56213 55.756554l0 0c-7.0669556 0 -13.596985 3.7703705 -17.130127 9.890709c-3.533142 6.120346 -3.5325317 13.660721 0.0016479492 19.78048c3.5341187 6.119751 10.064819 9.889038 17.131714 9.887871" fill-rule="evenodd"/><path fill="#000000" fill-opacity="0.0" d="m520.227 108.791985l40.881897 0l0 42.015755l-40.881897 0z" fill-rule="evenodd"/><path fill="#000000" d="m544.7613 125.63386l-1.625 0.125q-0.21875 -0.96875 -0.625 -1.40625q-0.65625 -0.703125 -1.640625 -0.703125q-0.78125 0 -1.375 0.4375q-0.765625 0.5625 -1.21875 1.65625q-0.453125 1.078125 -0.46875 3.0781326q0.59375 -0.8906326 1.453125 -1.3281326q0.859375 -0.4375 1.796875 -0.4375q1.640625 0 2.78125 1.2031326q1.15625 1.203125 1.15625 3.109375q0 1.265625 -0.546875 2.34375q-0.53125 1.078125 -1.484375 1.65625q-0.9375 0.578125 -2.140625 0.578125q-2.0625 0 -3.359375 -1.5q-1.28125 -1.515625 -1.28125 -4.984375q0 -3.8750076 1.421875 -5.6250076q1.25 -1.53125 3.375 -1.53125q1.5625 0 2.5625 0.890625q1.015625 0.875 1.21875 2.4375zm-6.6875 5.7500076q0 0.84375 0.359375 1.625q0.359375 0.765625 1.0 1.171875q0.640625 0.40625 1.359375 0.40625q1.03125 0 1.78125 -0.828125q0.75 -0.84375 0.75 -2.28125q0 -1.390625 -0.734375 -2.1875q-0.734375 -0.796875 -1.859375 -0.796875q-1.109375 0 -1.890625 0.796875q-0.765625 0.796875 -0.765625 2.09375z" fill-rule="nonzero"/><path fill="#000000" fill-opacity="0.0" d="m685.54425 4.1528797l0 0c7.0669556 0 13.596985 3.77037 17.130127 9.890711c3.533142 6.1203403 3.5325317 13.660719 -0.0016479492 19.780476c-3.5341187 6.119755 -10.064819 9.889042 -17.131714 9.887867l0.0032348633 -19.779526z" fill-rule="evenodd"/><path fill="#000000" fill-opacity="0.0" d="m685.54425 4.1528797l0 0c7.0669556 0 13.596985 3.77037 17.130127 9.890711c3.533142 6.1203403 3.5325317 13.660719 -0.0016479492 19.780476c-3.5341187 6.119755 -10.064819 9.889042 -17.131714 9.887867" fill-rule="evenodd"/><path stroke="#000000" stroke-width="4.0" stroke-linejoin="round" stroke-linecap="round" d="m685.54425 4.1528797l0 0c7.0669556 0 13.596985 3.77037 17.130127 9.890711c3.533142 6.1203403 3.5325317 13.660719 -0.0016479492 19.780476c-3.5341187 6.119755 -10.064819 9.889042 -17.131714 9.887867" fill-rule="evenodd"/><path fill="#000000" fill-opacity="0.0" d="m675.3343 4.1528797l0 0c-7.0669556 0 -13.596985 3.77037 -17.130127 9.890711c-3.533142 6.1203403 -3.5324707 13.660719 0.0016479492 19.780476c3.5341797 6.119755 10.064819 9.889042 17.131775 9.887867l-0.0032958984 -19.779526z" fill-rule="evenodd"/><path fill="#000000" fill-opacity="0.0" d="m675.3343 4.1528797l0 0c-7.0669556 0 -13.596985 3.77037 -17.130127 9.890711c-3.533142 6.1203403 -3.5324707 13.660719 0.0016479492 19.780476c3.5341797 6.119755 10.064819 9.889042 17.131775 9.887867" fill-rule="evenodd"/><path stroke="#000000" stroke-width="4.0" stroke-linejoin="round" stroke-linecap="round" d="m675.3343 4.1528797l0 0c-7.0669556 0 -13.596985 3.77037 -17.130127 9.890711c-3.533142 6.1203403 -3.5324707 13.660719 0.0016479492 19.780476c3.5341797 6.119755 10.064819 9.889042 17.131775 9.887867" fill-rule="evenodd"/><path fill="#000000" fill-opacity="0.0" d="m685.54425 55.756554l0 0c7.0669556 0 13.596985 3.7703705 17.130127 9.890709c3.533142 6.120346 3.5325317 13.660721 -0.0016479492 19.78048c-3.5341187 6.119751 -10.064819 9.889038 -17.131714 9.887871l0.0032348633 -19.779533z" fill-rule="evenodd"/><path fill="#000000" fill-opacity="0.0" d="m685.54425 55.756554l0 0c7.0669556 0 13.596985 3.7703705 17.130127 9.890709c3.533142 6.120346 3.5325317 13.660721 -0.0016479492 19.78048c-3.5341187 6.119751 -10.064819 9.889038 -17.131714 9.887871" fill-rule="evenodd"/><path stroke="#000000" stroke-width="4.0" stroke-linejoin="round" stroke-linecap="round" d="m685.54425 55.756554l0 0c7.0669556 0 13.596985 3.7703705 17.130127 9.890709c3.533142 6.120346 3.5325317 13.660721 -0.0016479492 19.78048c-3.5341187 6.119751 -10.064819 9.889038 -17.131714 9.887871" fill-rule="evenodd"/><path fill="#000000" fill-opacity="0.0" d="m675.3343 55.756554l0 0c-7.0669556 0 -13.596985 3.7703705 -17.130127 9.890709c-3.533142 6.120346 -3.5324707 13.660721 0.0016479492 19.78048c3.5341797 6.119751 10.064819 9.889038 17.131775 9.887871l-0.0032958984 -19.779533z" fill-rule="evenodd"/><path fill="#000000" fill-opacity="0.0" d="m675.3343 55.756554l0 0c-7.0669556 0 -13.596985 3.7703705 -17.130127 9.890709c-3.533142 6.120346 -3.5324707 13.660721 0.0016479492 19.78048c3.5341797 6.119751 10.064819 9.889038 17.131775 9.887871" fill-rule="evenodd"/><path stroke="#000000" stroke-width="4.0" stroke-linejoin="round" stroke-linecap="round" d="m675.3343 55.756554l0 0c-7.0669556 0 -13.596985 3.7703705 -17.130127 9.890709c-3.533142 6.120346 -3.5324707 13.660721 0.0016479492 19.78048c3.5341797 6.119751 10.064819 9.889038 17.131775 9.887871" fill-rule="evenodd"/><path fill="#000000" fill-opacity="0.0" d="m659.99835 108.791985l40.881897 0l0 42.015755l-40.881897 0z" fill-rule="evenodd"/><path fill="#000000" d="m678.5483 128.47762q-1.015625 -0.375 -1.515625 -1.0625076q-0.484375 -0.703125 -0.484375 -1.671875q0 -1.453125 1.046875 -2.4375q1.046875 -1.0 2.78125 -1.0q1.75 0 2.8125 1.015625q1.078125 1.015625 1.078125 2.46875q0 0.9375 -0.5 1.625q-0.484375 0.6875076 -1.46875 1.0625076q1.21875 0.390625 1.859375 1.28125q0.65625 0.890625 0.65625 2.140625q0 1.703125 -1.21875 2.875q-1.21875 1.171875 -3.1875 1.171875q-1.984375 0 -3.203125 -1.171875q-1.203125 -1.171875 -1.203125 -2.921875q0 -1.3125 0.65625 -2.1875q0.671875 -0.875 1.890625 -1.1875zm-0.328125 -2.7812576q0 0.9375 0.609375 1.546875q0.609375 0.59375 1.59375 0.59375q0.9375 0 1.546875 -0.59375q0.609375 -0.59375 0.609375 -1.453125q0 -0.90625 -0.625 -1.515625q-0.625 -0.625 -1.5625 -0.625q-0.9375 0 -1.5625 0.609375q-0.609375 0.59375 -0.609375 1.4375zm-0.53125 6.1562576q0 0.703125 0.328125 1.359375q0.34375 0.65625 1.0 1.015625q0.65625 0.359375 1.40625 0.359375q1.171875 0 1.9375 -0.75q0.765625 -0.75 0.765625 -1.921875q0 -1.1875 -0.796875 -1.953125q-0.78125 -0.78125 -1.953125 -0.78125q-1.15625 0 -1.921875 0.765625q-0.765625 0.765625 -0.765625 1.90625z" fill-rule="nonzero"/><path fill="#000000" fill-opacity="0.0" d="m759.8739 4.1528797l0 0c7.0669556 0 13.597046 3.77037 17.130127 9.890711c3.533142 6.1203403 3.5325317 13.660719 -0.0016479492 19.780476c-3.5341187 6.119755 -10.064819 9.889042 -17.131714 9.887867l0.0032348633 -19.779526z" fill-rule="evenodd"/><path fill="#000000" fill-opacity="0.0" d="m759.8739 4.1528797l0 0c7.0669556 0 13.597046 3.77037 17.130127 9.890711c3.533142 6.1203403 3.5325317 13.660719 -0.0016479492 19.780476c-3.5341187 6.119755 -10.064819 9.889042 -17.131714 9.887867" fill-rule="evenodd"/><path stroke="#000000" stroke-width="4.0" stroke-linejoin="round" stroke-linecap="round" d="m759.8739 4.1528797l0 0c7.0669556 0 13.597046 3.77037 17.130127 9.890711c3.533142 6.1203403 3.5325317 13.660719 -0.0016479492 19.780476c-3.5341187 6.119755 -10.064819 9.889042 -17.131714 9.887867" fill-rule="evenodd"/><path fill="#000000" fill-opacity="0.0" d="m749.66394 4.1528797l0 0c-7.0668945 0 -13.596985 3.77037 -17.130127 9.890711c-3.533081 6.1203403 -3.5324707 13.660719 0.0016479492 19.780476c3.5341797 6.119755 10.064819 9.889042 17.131775 9.887867l-0.0032958984 -19.779526z" fill-rule="evenodd"/><path fill="#000000" fill-opacity="0.0" d="m749.66394 4.1528797l0 0c-7.0668945 0 -13.596985 3.77037 -17.130127 9.890711c-3.533081 6.1203403 -3.5324707 13.660719 0.0016479492 19.780476c3.5341797 6.119755 10.064819 9.889042 17.131775 9.887867" fill-rule="evenodd"/><path stroke="#000000" stroke-width="4.0" stroke-linejoin="round" stroke-linecap="round" d="m749.66394 4.1528797l0 0c-7.0668945 0 -13.596985 3.77037 -17.130127 9.890711c-3.533081 6.1203403 -3.5324707 13.660719 0.0016479492 19.780476c3.5341797 6.119755 10.064819 9.889042 17.131775 9.887867" fill-rule="evenodd"/><path fill="#000000" fill-opacity="0.0" d="m759.8739 55.756554l0 0c7.0669556 0 13.597046 3.7703705 17.130127 9.890709c3.533142 6.120346 3.5325317 13.660721 -0.0016479492 19.78048c-3.5341187 6.119751 -10.064819 9.889038 -17.131714 9.887871l0.0032348633 -19.779533z" fill-rule="evenodd"/><path fill="#000000" fill-opacity="0.0" d="m759.8739 55.756554l0 0c7.0669556 0 13.597046 3.7703705 17.130127 9.890709c3.533142 6.120346 3.5325317 13.660721 -0.0016479492 19.78048c-3.5341187 6.119751 -10.064819 9.889038 -17.131714 9.887871" fill-rule="evenodd"/><path stroke="#000000" stroke-width="4.0" stroke-linejoin="round" stroke-linecap="round" d="m759.8739 55.756554l0 0c7.0669556 0 13.597046 3.7703705 17.130127 9.890709c3.533142 6.120346 3.5325317 13.660721 -0.0016479492 19.78048c-3.5341187 6.119751 -10.064819 9.889038 -17.131714 9.887871" fill-rule="evenodd"/><path fill="#000000" fill-opacity="0.0" d="m749.66394 55.756554l0 0c-7.0668945 0 -13.596985 3.7703705 -17.130127 9.890709c-3.533081 6.120346 -3.5324707 13.660721 0.0016479492 19.78048c3.5341797 6.119751 10.064819 9.889038 17.131775 9.887871l-0.0032958984 -19.779533z" fill-rule="evenodd"/><path fill="#000000" fill-opacity="0.0" d="m749.66394 55.756554l0 0c-7.0668945 0 -13.596985 3.7703705 -17.130127 9.890709c-3.533081 6.120346 -3.5324707 13.660721 0.0016479492 19.78048c3.5341797 6.119751 10.064819 9.889038 17.131775 9.887871" fill-rule="evenodd"/><path stroke="#efefef" stroke-width="4.0" stroke-linejoin="round" stroke-linecap="round" d="m749.66394 55.756554l0 0c-7.0668945 0 -13.596985 3.7703705 -17.130127 9.890709c-3.533081 6.120346 -3.5324707 13.660721 0.0016479492 19.78048c3.5341797 6.119751 10.064819 9.889038 17.131775 9.887871" fill-rule="evenodd"/><path fill="#000000" fill-opacity="0.0" d="m734.328 108.791985l40.881897 0l0 42.015755l-40.881897 0z" fill-rule="evenodd"/><path fill="#000000" d="m750.5967 132.61824l1.578125 -0.140625q0.203125 1.109375 0.765625 1.609375q0.5625 0.5 1.453125 0.5q0.75 0 1.3125 -0.34375q0.578125 -0.34375 0.9375 -0.921875q0.375 -0.578125 0.609375 -1.5625q0.25 -0.984375 0.25 -2.0q0 -0.109375 0 -0.328125q-0.5 0.78125 -1.359375 1.265625q-0.84375 0.484375 -1.828125 0.484375q-1.671875 0 -2.8125 -1.203125q-1.140625 -1.203125 -1.140625 -3.1718826q0 -2.03125 1.1875 -3.265625q1.203125 -1.234375 3.0 -1.234375q1.3125 0 2.390625 0.703125q1.078125 0.703125 1.640625 2.0q0.5625 1.296875 0.5625 3.7500076q0 2.5625 -0.5625 4.078125q-0.5625 1.515625 -1.65625 2.3125q-1.09375 0.796875 -2.578125 0.796875q-1.5625 0 -2.5625 -0.875q-0.984375 -0.875 -1.1875 -2.453125zm6.71875 -5.8906326q0 -1.40625 -0.75 -2.234375q-0.75 -0.828125 -1.8125 -0.828125q-1.09375 0 -1.90625 0.890625q-0.8125 0.890625 -0.8125 2.3125q0 1.2812576 0.765625 2.0781326q0.78125 0.796875 1.90625 0.796875q1.140625 0 1.875 -0.796875q0.734375 -0.796875 0.734375 -2.2187576z" fill-rule="nonzero"/><path fill="#000000" fill-opacity="0.0" d="m4.3621182 160.20668l0 22.740158" fill-rule="evenodd"/><path stroke="#000000" stroke-width="3.0" stroke-linejoin="round" stroke-linecap="round" d="m4.3621182 160.20668l0 22.740158" fill-rule="evenodd"/><path fill="#000000" fill-opacity="0.0" d="m28.362118 160.20668l0 22.740158" fill-rule="evenodd"/><path stroke="#000000" stroke-width="3.0" stroke-linejoin="round" stroke-linecap="round" d="m28.362118 160.20668l0 22.740158" fill-rule="evenodd"/><path fill="#000000" fill-opacity="0.0" d="m52.362118 160.20668l0 22.740158" fill-rule="evenodd"/><path stroke="#000000" stroke-width="3.0" stroke-linejoin="round" stroke-linecap="round" d="m52.362118 160.20668l0 22.740158" fill-rule="evenodd"/><path fill="#000000" fill-opacity="0.0" d="m12.976292 180.20143l15.401575 26.645676" fill-rule="evenodd"/><path stroke="#000000" stroke-width="3.0" stroke-linejoin="round" stroke-linecap="round" d="m12.976292 180.20143l15.401575 26.645676" fill-rule="evenodd"/><path fill="#000000" fill-opacity="0.0" d="m44.377865 180.20143l-15.401573 26.645676" fill-rule="evenodd"/><path stroke="#000000" stroke-width="3.0" stroke-linejoin="round" stroke-linecap="round" d="m44.377865 180.20143l-15.401573 26.645676" fill-rule="evenodd"/><path fill="#000000" fill-opacity="0.0" d="m151.244 160.20668l0 22.740158" fill-rule="evenodd"/><path stroke="#000000" stroke-width="3.0" stroke-linejoin="round" stroke-linecap="round" d="m151.244 160.20668l0 22.740158" fill-rule="evenodd"/><path fill="#000000" fill-opacity="0.0" d="m175.244 160.20668l0 22.740158" fill-rule="evenodd"/><path stroke="#efefef" stroke-width="3.0" stroke-linejoin="round" stroke-linecap="round" d="m175.244 160.20668l0 22.740158" fill-rule="evenodd"/><path fill="#000000" fill-opacity="0.0" d="m199.244 160.20668l0 22.740158" fill-rule="evenodd"/><path stroke="#efefef" stroke-width="3.0" stroke-linejoin="round" stroke-linecap="round" d="m199.244 160.20668l0 22.740158" fill-rule="evenodd"/><path fill="#000000" fill-opacity="0.0" d="m159.85818 180.20143l15.401566 26.645676" fill-rule="evenodd"/><path stroke="#efefef" stroke-width="3.0" stroke-linejoin="round" stroke-linecap="round" d="m159.85818 180.20143l15.401566 26.645676" fill-rule="evenodd"/><path fill="#000000" fill-opacity="0.0" d="m191.25975 180.20143l-15.401566 26.645676" fill-rule="evenodd"/><path stroke="#efefef" stroke-width="3.0" stroke-linejoin="round" stroke-linecap="round" d="m191.25975 180.20143l-15.401566 26.645676" fill-rule="evenodd"/><path fill="#000000" fill-opacity="0.0" d="m224.68495 160.20668l0 22.740158" fill-rule="evenodd"/><path stroke="#000000" stroke-width="3.0" stroke-linejoin="round" stroke-linecap="round" d="m224.68495 160.20668l0 22.740158" fill-rule="evenodd"/><path fill="#000000" fill-opacity="0.0" d="m248.68495 160.20668l0 22.740158" fill-rule="evenodd"/><path stroke="#000000" stroke-width="3.0" stroke-linejoin="round" stroke-linecap="round" d="m248.68495 160.20668l0 22.740158" fill-rule="evenodd"/><path fill="#000000" fill-opacity="0.0" d="m272.68497 160.20668l0 22.740158" fill-rule="evenodd"/><path stroke="#efefef" stroke-width="3.0" stroke-linejoin="round" stroke-linecap="round" d="m272.68497 160.20668l0 22.740158" fill-rule="evenodd"/><path fill="#000000" fill-opacity="0.0" d="m233.29913 180.20143l15.401566 26.645676" fill-rule="evenodd"/><path stroke="#efefef" stroke-width="3.0" stroke-linejoin="round" stroke-linecap="round" d="m233.29913 180.20143l15.401566 26.645676" fill-rule="evenodd"/><path fill="#000000" fill-opacity="0.0" d="m264.7007 180.20143l-15.401581 26.645676" fill-rule="evenodd"/><path stroke="#efefef" stroke-width="3.0" stroke-linejoin="round" stroke-linecap="round" d="m264.7007 180.20143l-15.401581 26.645676" fill-rule="evenodd"/><path fill="#000000" fill-opacity="0.0" d="m298.1259 160.20668l0 22.740158" fill-rule="evenodd"/><path stroke="#000000" stroke-width="3.0" stroke-linejoin="round" stroke-linecap="round" d="m298.1259 160.20668l0 22.740158" fill-rule="evenodd"/><path fill="#000000" fill-opacity="0.0" d="m322.1259 160.20668l0 22.740158" fill-rule="evenodd"/><path stroke="#000000" stroke-width="3.0" stroke-linejoin="round" stroke-linecap="round" d="m322.1259 160.20668l0 22.740158" fill-rule="evenodd"/><path fill="#000000" fill-opacity="0.0" d="m346.1259 160.20668l0 22.740158" fill-rule="evenodd"/><path stroke="#000000" stroke-width="3.0" stroke-linejoin="round" stroke-linecap="round" d="m346.1259 160.20668l0 22.740158" fill-rule="evenodd"/><path fill="#000000" fill-opacity="0.0" d="m306.74008 180.20143l15.40155 26.645676" fill-rule="evenodd"/><path stroke="#efefef" stroke-width="3.0" stroke-linejoin="round" stroke-linecap="round" d="m306.74008 180.20143l15.40155 26.645676" fill-rule="evenodd"/><path fill="#000000" fill-opacity="0.0" d="m338.14163 180.20143l-15.40155 26.645676" fill-rule="evenodd"/><path stroke="#efefef" stroke-width="3.0" stroke-linejoin="round" stroke-linecap="round" d="m338.14163 180.20143l-15.40155 26.645676" fill-rule="evenodd"/><path fill="#000000" fill-opacity="0.0" d="m371.56683 160.20668l0 22.740158" fill-rule="evenodd"/><path stroke="#000000" stroke-width="3.0" stroke-linejoin="round" stroke-linecap="round" d="m371.56683 160.20668l0 22.740158" fill-rule="evenodd"/><path fill="#000000" fill-opacity="0.0" d="m395.56683 160.20668l0 22.740158" fill-rule="evenodd"/><path stroke="#efefef" stroke-width="3.0" stroke-linejoin="round" stroke-linecap="round" d="m395.56683 160.20668l0 22.740158" fill-rule="evenodd"/><path fill="#000000" fill-opacity="0.0" d="m419.56683 160.20668l0 22.740158" fill-rule="evenodd"/><path stroke="#efefef" stroke-width="3.0" stroke-linejoin="round" stroke-linecap="round" d="m419.56683 160.20668l0 22.740158" fill-rule="evenodd"/><path fill="#000000" fill-opacity="0.0" d="m380.18103 180.20143l15.40155 26.645676" fill-rule="evenodd"/><path stroke="#000000" stroke-width="3.0" stroke-linejoin="round" stroke-linecap="round" d="m380.18103 180.20143l15.40155 26.645676" fill-rule="evenodd"/><path fill="#000000" fill-opacity="0.0" d="m411.58258 180.20143l-15.40155 26.645676" fill-rule="evenodd"/><path stroke="#000000" stroke-width="3.0" stroke-linejoin="round" stroke-linecap="round" d="m411.58258 180.20143l-15.40155 26.645676" fill-rule="evenodd"/><path fill="#000000" fill-opacity="0.0" d="m445.00778 160.20668l0 22.740158" fill-rule="evenodd"/><path stroke="#efefef" stroke-width="3.0" stroke-linejoin="round" stroke-linecap="round" d="m445.00778 160.20668l0 22.740158" fill-rule="evenodd"/><path fill="#000000" fill-opacity="0.0" d="m469.00778 160.20668l0 22.740158" fill-rule="evenodd"/><path stroke="#efefef" stroke-width="3.0" stroke-linejoin="round" stroke-linecap="round" d="m469.00778 160.20668l0 22.740158" fill-rule="evenodd"/><path fill="#000000" fill-opacity="0.0" d="m493.00778 160.20668l0 22.740158" fill-rule="evenodd"/><path stroke="#efefef" stroke-width="3.0" stroke-linejoin="round" stroke-linecap="round" d="m493.00778 160.20668l0 22.740158" fill-rule="evenodd"/><path fill="#000000" fill-opacity="0.0" d="m453.62195 180.20143l15.401581 26.645676" fill-rule="evenodd"/><path stroke="#000000" stroke-width="3.0" stroke-linejoin="round" stroke-linecap="round" d="m453.62195 180.20143l15.401581 26.645676" fill-rule="evenodd"/><path fill="#000000" fill-opacity="0.0" d="m485.02353 180.20143l-15.401581 26.645676" fill-rule="evenodd"/><path stroke="#000000" stroke-width="3.0" stroke-linejoin="round" stroke-linecap="round" d="m485.02353 180.20143l-15.401581 26.645676" fill-rule="evenodd"/><path fill="#000000" fill-opacity="0.0" d="m518.4487 160.20668l0 22.740158" fill-rule="evenodd"/><path stroke="#efefef" stroke-width="3.0" stroke-linejoin="round" stroke-linecap="round" d="m518.4487 160.20668l0 22.740158" fill-rule="evenodd"/><path fill="#000000" fill-opacity="0.0" d="m542.4487 160.20668l0 22.740158" fill-rule="evenodd"/><path stroke="#efefef" stroke-width="3.0" stroke-linejoin="round" stroke-linecap="round" d="m542.4487 160.20668l0 22.740158" fill-rule="evenodd"/><path fill="#000000" fill-opacity="0.0" d="m566.4487 160.20668l0 22.740158" fill-rule="evenodd"/><path stroke="#000000" stroke-width="3.0" stroke-linejoin="round" stroke-linecap="round" d="m566.4487 160.20668l0 22.740158" fill-rule="evenodd"/><path fill="#000000" fill-opacity="0.0" d="m527.0629 180.20143l15.40155 26.645676" fill-rule="evenodd"/><path stroke="#000000" stroke-width="3.0" stroke-linejoin="round" stroke-linecap="round" d="m527.0629 180.20143l15.40155 26.645676" fill-rule="evenodd"/><path fill="#000000" fill-opacity="0.0" d="m558.4645 180.20143l-15.40155 26.645676" fill-rule="evenodd"/><path stroke="#000000" stroke-width="3.0" stroke-linejoin="round" stroke-linecap="round" d="m558.4645 180.20143l-15.40155 26.645676" fill-rule="evenodd"/><path fill="#000000" fill-opacity="0.0" d="m591.88965 160.20668l0 22.740158" fill-rule="evenodd"/><path stroke="#efefef" stroke-width="3.0" stroke-linejoin="round" stroke-linecap="round" d="m591.88965 160.20668l0 22.740158" fill-rule="evenodd"/><path fill="#000000" fill-opacity="0.0" d="m615.88965 160.20668l0 22.740158" fill-rule="evenodd"/><path stroke="#000000" stroke-width="3.0" stroke-linejoin="round" stroke-linecap="round" d="m615.88965 160.20668l0 22.740158" fill-rule="evenodd"/><path fill="#000000" fill-opacity="0.0" d="m639.88965 160.20668l0 22.740158" fill-rule="evenodd"/><path stroke="#000000" stroke-width="3.0" stroke-linejoin="round" stroke-linecap="round" d="m639.88965 160.20668l0 22.740158" fill-rule="evenodd"/><path fill="#000000" fill-opacity="0.0" d="m600.50385 180.20143l15.40155 26.645676" fill-rule="evenodd"/><path stroke="#000000" stroke-width="3.0" stroke-linejoin="round" stroke-linecap="round" d="m600.50385 180.20143l15.40155 26.645676" fill-rule="evenodd"/><path fill="#000000" fill-opacity="0.0" d="m631.9054 180.20143l-15.40155 26.645676" fill-rule="evenodd"/><path stroke="#000000" stroke-width="3.0" stroke-linejoin="round" stroke-linecap="round" d="m631.9054 180.20143l-15.40155 26.645676" fill-rule="evenodd"/><path fill="#000000" fill-opacity="0.0" d="m657.6754 160.20668l0 22.740158" fill-rule="evenodd"/><path stroke="#000000" stroke-width="3.0" stroke-linejoin="round" stroke-linecap="round" d="m657.6754 160.20668l0 22.740158" fill-rule="evenodd"/><path fill="#000000" fill-opacity="0.0" d="m681.6754 160.20668l0 22.740158" fill-rule="evenodd"/><path stroke="#000000" stroke-width="3.0" stroke-linejoin="round" stroke-linecap="round" d="m681.6754 160.20668l0 22.740158" fill-rule="evenodd"/><path fill="#000000" fill-opacity="0.0" d="m705.6754 160.20668l0 22.740158" fill-rule="evenodd"/><path stroke="#000000" stroke-width="3.0" stroke-linejoin="round" stroke-linecap="round" d="m705.6754 160.20668l0 22.740158" fill-rule="evenodd"/><path fill="#000000" fill-opacity="0.0" d="m666.2896 180.20143l15.40155 26.645676" fill-rule="evenodd"/><path stroke="#000000" stroke-width="3.0" stroke-linejoin="round" stroke-linecap="round" d="m666.2896 180.20143l15.40155 26.645676" fill-rule="evenodd"/><path fill="#000000" fill-opacity="0.0" d="m697.69116 180.20143l-15.40155 26.645676" fill-rule="evenodd"/><path stroke="#000000" stroke-width="3.0" stroke-linejoin="round" stroke-linecap="round" d="m697.69116 180.20143l-15.40155 26.645676" fill-rule="evenodd"/><path fill="#000000" fill-opacity="0.0" d="m598.11224 108.791985l40.881897 0l0 42.015755l-40.881897 0z" fill-rule="evenodd"/><path fill="#000000" d="m614.256 124.10261l0 -1.578125l8.640625 0l0 1.28125q-1.28125 1.359375 -2.53125 3.609375q-1.25 2.2500076 -1.9375 4.6250076q-0.484375 1.671875 -0.625 3.671875l-1.6875 0q0.03125 -1.578125 0.625 -3.8125q0.59375 -2.234375 1.6875 -4.2968826q1.109375 -2.078125 2.359375 -3.5l-6.53125 0z" fill-rule="nonzero"/><path fill="#000000" fill-opacity="0.0" d="m598.11224 28.727682l40.881897 0l0 42.015747l-40.881897 0z" fill-rule="evenodd"/><path fill="#000000" d="m617.66223 52.366432q0 -0.328125 0 -0.5q0 -0.96875 0.265625 -1.671875q0.203125 -0.515625 0.640625 -1.0625q0.328125 -0.390625 1.171875 -1.140625q0.859375 -0.75 1.109375 -1.1875q0.265625 -0.453125 0.265625 -0.984375q0 -0.953125 -0.75 -1.671875q-0.734375 -0.734375 -1.828125 -0.734375q-1.046875 0 -1.75 0.65625q-0.703125 0.65625 -0.921875 2.046875l-1.6875 -0.203125q0.234375 -1.859375 1.359375 -2.84375q1.125 -1.0 2.96875 -1.0q1.96875 0 3.125 1.0625q1.171875 1.0625 1.171875 2.578125q0 0.875 -0.40625 1.609375q-0.40625 0.734375 -1.609375 1.796875q-0.796875 0.703125 -1.046875 1.046875q-0.25 0.34375 -0.375 0.78125q-0.109375 0.4375 -0.125 1.421875l-1.578125 0zm-0.09375 3.28125l0 -1.875l1.859375 0l0 1.875l-1.859375 0z" fill-rule="nonzero"/><path fill="#000000" fill-opacity="0.0" d="m376.0104 108.791985l40.881897 0l0 42.015755l-40.881897 0z" fill-rule="evenodd"/><path fill="#000000" d="m397.29474 135.71199l0 -3.203125l-5.796875 0l0 -1.5l6.09375 -8.656258l1.34375 0l0 8.656258l1.796875 0l0 1.5l-1.796875 0l0 3.203125l-1.640625 0zm0 -4.703125l0 -6.0156326l-4.1875 6.0156326l4.1875 0z" fill-rule="nonzero"/><path fill="#000000" fill-opacity="0.0" d="m376.0104 28.727682l40.881897 0l0 42.015747l-40.881897 0z" fill-rule="evenodd"/><path fill="#000000" d="m395.56036 52.366432q0 -0.328125 0 -0.5q0 -0.96875 0.265625 -1.671875q0.203125 -0.515625 0.640625 -1.0625q0.328125 -0.390625 1.171875 -1.140625q0.859375 -0.75 1.109375 -1.1875q0.265625 -0.453125 0.265625 -0.984375q0 -0.953125 -0.75 -1.671875q-0.734375 -0.734375 -1.828125 -0.734375q-1.046875 0 -1.75 0.65625q-0.703125 0.65625 -0.921875 2.046875l-1.6875 -0.203125q0.234375 -1.859375 1.359375 -2.84375q1.125 -1.0 2.96875 -1.0q1.96875 0 3.125 1.0625q1.171875 1.0625 1.171875 2.578125q0 0.875 -0.40625 1.609375q-0.40625 0.734375 -1.609375 1.796875q-0.796875 0.703125 -1.046875 1.046875q-0.25 0.34375 -0.375 0.78125q-0.109375 0.4375 -0.125 1.421875l-1.578125 0zm-0.09375 3.28125l0 -1.875l1.859375 0l0 1.875l-1.859375 0z" fill-rule="nonzero"/><path fill="#000000" fill-opacity="0.0" d="m734.3287 155.1017l40.881897 0l0 42.015747l-40.881897 0z" fill-rule="evenodd"/><path fill="#000000" d="m753.8786 178.74045q0 -0.328125 0 -0.5q0 -0.96875 0.265625 -1.671875q0.203125 -0.515625 0.640625 -1.0625q0.328125 -0.390625 1.171875 -1.140625q0.859375 -0.75 1.109375 -1.1875q0.265625 -0.453125 0.265625 -0.984375q0 -0.953125 -0.75 -1.671875q-0.734375 -0.734375 -1.828125 -0.734375q-1.046875 0 -1.75 0.65625q-0.703125 0.65625 -0.921875 2.046875l-1.6875 -0.203125q0.234375 -1.859375 1.359375 -2.84375q1.125 -1.0 2.96875 -1.0q1.96875 0 3.125 1.0625q1.171875 1.0625 1.171875 2.578125q0 0.875 -0.40625 1.609375q-0.40625 0.734375 -1.609375 1.796875q-0.796875 0.703125 -1.046875 1.046875q-0.25 0.34375 -0.375 0.78125q-0.109375 0.4375 -0.125 1.421875l-1.578125 0zm-0.09375 3.28125l0 -1.875l1.859375 0l0 1.875l-1.859375 0z" fill-rule="nonzero"/><path fill="#000000" fill-opacity="0.0" d="m81.362785 155.1017l40.88189 0l0 42.015747l-40.88189 0z" fill-rule="evenodd"/><path fill="#000000" d="m100.91274 178.74045q0 -0.328125 0 -0.5q0 -0.96875 0.265625 -1.671875q0.203125 -0.515625 0.640625 -1.0625q0.328125 -0.390625 1.171875 -1.140625q0.859375 -0.75 1.109375 -1.1875q0.265625 -0.453125 0.265625 -0.984375q0 -0.953125 -0.75 -1.671875q-0.734375 -0.734375 -1.828125 -0.734375q-1.046875 0 -1.75 0.65625q-0.703125 0.65625 -0.921875 2.046875l-1.6875 -0.203125q0.234375 -1.859375 1.359375 -2.84375q1.125 -1.0 2.96875 -1.0q1.96875 0 3.125 1.0625q1.171875 1.0625 1.171875 2.578125q0 0.875 -0.40625 1.609375q-0.40625 0.734375 -1.609375 1.796875q-0.796875 0.703125 -1.046875 1.046875q-0.25 0.34375 -0.375 0.78125q-0.109375 0.4375 -0.125 1.421875l-1.578125 0zm-0.09375 3.28125l0 -1.875l1.859375 0l0 1.875l-1.859375 0z" fill-rule="nonzero"/></g></svg>