<svg version="1.1" viewBox="0.0 0.0 670.8451443569554 291.37007874015745" fill="none" stroke="none" stroke-linecap="square" stroke-miterlimit="10" xmlns:xlink="http://www.w3.org/1999/xlink" xmlns="http://www.w3.org/2000/svg"><clipPath id="p.0"><path d="m0 0l670.84515 0l0 291.3701l-670.84515 0l0 -291.3701z" clip-rule="nonzero"/></clipPath><g clip-path="url(#p.0)"><path fill="#000000" fill-opacity="0.0" d="m0 0l670.84515 0l0 291.3701l-670.84515 0z" fill-rule="evenodd"/><path fill="#000000" fill-opacity="0.0" d="m17.386763 125.16603l0 41.039368" fill-rule="evenodd"/><path stroke="#000000" stroke-width="3.0" stroke-linejoin="round" stroke-linecap="round" d="m17.386763 125.16603l0 41.039368" fill-rule="evenodd"/><path fill="#000000" fill-opacity="0.0" d="m78.383064 125.16603l0 41.039368" fill-rule="evenodd"/><path stroke="#000000" stroke-width="3.0" stroke-linejoin="round" stroke-linecap="round" d="m78.383064 125.16603l0 41.039368" fill-rule="evenodd"/><path fill="#000000" fill-opacity="0.0" d="m47.885624 107.50073l0 14.992126" fill-rule="evenodd"/><path stroke="#000000" stroke-width="3.0" stroke-linejoin="round" stroke-linecap="round" d="m47.885624 107.50073l0 14.992126" fill-rule="evenodd"/><path fill="#000000" fill-opacity="0.0" d="m26.250418 105.23254l21.493029 37.22608" fill-rule="evenodd"/><path stroke="#000000" stroke-width="3.0" stroke-linejoin="round" stroke-linecap="round" d="m26.250418 105.23254l21.493029 37.22608" fill-rule="evenodd"/><path fill="#000000" fill-opacity="0.0" d="m69.36853 104.99253l-21.63137 37.465034" fill-rule="evenodd"/><path stroke="#000000" stroke-width="3.0" stroke-linejoin="round" stroke-linecap="round" d="m69.36853 104.99253l-21.63137 37.465034" fill-rule="evenodd"/><path fill="#000000" fill-opacity="0.0" d="m26.250418 186.13754l21.493029 -37.226074" fill-rule="evenodd"/><path stroke="#000000" stroke-width="3.0" stroke-linejoin="round" stroke-linecap="round" d="m26.250418 186.13754l21.493029 -37.226074" fill-rule="evenodd"/><path fill="#000000" fill-opacity="0.0" d="m69.36853 186.37755l-21.63137 -37.465027" fill-rule="evenodd"/><path stroke="#000000" stroke-width="3.0" stroke-linejoin="round" stroke-linecap="round" d="m69.36853 186.37755l-21.63137 -37.465027" fill-rule="evenodd"/><path fill="#000000" fill-opacity="0.0" d="m113.95663 26.298958l0 41.039368" fill-rule="evenodd"/><path stroke="#000000" stroke-width="3.0" stroke-linejoin="round" stroke-linecap="round" d="m113.95663 26.298958l0 41.039368" fill-rule="evenodd"/><path fill="#000000" fill-opacity="0.0" d="m174.95293 26.298958l0 41.039368" fill-rule="evenodd"/><path stroke="#d9d9d9" stroke-width="3.0" stroke-linejoin="round" stroke-linecap="round" d="m174.95293 26.298958l0 41.039368" fill-rule="evenodd"/><path fill="#000000" fill-opacity="0.0" d="m144.45549 8.633659l0 14.992126" fill-rule="evenodd"/><path stroke="#d9d9d9" stroke-width="3.0" stroke-linejoin="round" stroke-linecap="round" d="m144.45549 8.633659l0 14.992126" fill-rule="evenodd"/><path fill="#000000" fill-opacity="0.0" d="m122.82028 6.365457l21.493027 37.22608" fill-rule="evenodd"/><path stroke="#d9d9d9" stroke-width="3.0" stroke-linejoin="round" stroke-linecap="round" d="m122.82028 6.365457l21.493027 37.22608" fill-rule="evenodd"/><path fill="#000000" fill-opacity="0.0" d="m165.93839 6.125458l-21.631363 37.46503" fill-rule="evenodd"/><path stroke="#d9d9d9" stroke-width="3.0" stroke-linejoin="round" stroke-linecap="round" d="m165.93839 6.125458l-21.631363 37.46503" fill-rule="evenodd"/><path fill="#000000" fill-opacity="0.0" d="m122.82028 87.27047l21.493027 -37.226078" fill-rule="evenodd"/><path stroke="#d9d9d9" stroke-width="3.0" stroke-linejoin="round" stroke-linecap="round" d="m122.82028 87.27047l21.493027 -37.226078" fill-rule="evenodd"/><path fill="#000000" fill-opacity="0.0" d="m165.93839 87.51047l-21.631363 -37.465027" fill-rule="evenodd"/><path stroke="#d9d9d9" stroke-width="3.0" stroke-linejoin="round" stroke-linecap="round" d="m165.93839 87.51047l-21.631363 -37.465027" fill-rule="evenodd"/><path fill="#000000" fill-opacity="0.0" d="m123.35242 98.4462l42.204727 0l0 42.015747l-42.204727 0z" fill-rule="evenodd"/><path fill="#000000" d="m146.22005 125.366196l-1.640625 0l0 -10.453125q-0.59375 0.5625 -1.5625 1.140625q-0.953125 0.5625 -1.71875 0.84375l0 -1.59375q1.375 -0.640625 2.40625 -1.5625q1.03125 -0.921875 1.453125 -1.78125l1.0625 0l0 13.40625z" fill-rule="nonzero"/><path fill="#000000" fill-opacity="0.0" d="m210.52649 28.788876l0 41.03937" fill-rule="evenodd"/><path stroke="#000000" stroke-width="3.0" stroke-linejoin="round" stroke-linecap="round" d="m210.52649 28.788876l0 41.03937" fill-rule="evenodd"/><path fill="#000000" fill-opacity="0.0" d="m271.5228 28.788876l0 41.03937" fill-rule="evenodd"/><path stroke="#000000" stroke-width="3.0" stroke-linejoin="round" stroke-linecap="round" d="m271.5228 28.788876l0 41.03937" fill-rule="evenodd"/><path fill="#000000" fill-opacity="0.0" d="m241.02534 11.123575l0 14.992126" fill-rule="evenodd"/><path stroke="#d9d9d9" stroke-width="3.0" stroke-linejoin="round" stroke-linecap="round" d="m241.02534 11.123575l0 14.992126" fill-rule="evenodd"/><path fill="#000000" fill-opacity="0.0" d="m219.39014 8.855372l21.493042 37.226078" fill-rule="evenodd"/><path stroke="#d9d9d9" stroke-width="3.0" stroke-linejoin="round" stroke-linecap="round" d="m219.39014 8.855372l21.493042 37.226078" fill-rule="evenodd"/><path fill="#000000" fill-opacity="0.0" d="m262.50824 8.615374l-21.631363 37.465027" fill-rule="evenodd"/><path stroke="#d9d9d9" stroke-width="3.0" stroke-linejoin="round" stroke-linecap="round" d="m262.50824 8.615374l-21.631363 37.465027" fill-rule="evenodd"/><path fill="#000000" fill-opacity="0.0" d="m219.39014 89.76038l21.493042 -37.226074" fill-rule="evenodd"/><path stroke="#d9d9d9" stroke-width="3.0" stroke-linejoin="round" stroke-linecap="round" d="m219.39014 89.76038l21.493042 -37.226074" fill-rule="evenodd"/><path fill="#000000" fill-opacity="0.0" d="m262.50824 90.00039l-21.631363 -37.465034" fill-rule="evenodd"/><path stroke="#d9d9d9" stroke-width="3.0" stroke-linejoin="round" stroke-linecap="round" d="m262.50824 90.00039l-21.631363 -37.465034" fill-rule="evenodd"/><path fill="#000000" fill-opacity="0.0" d="m219.92227 98.4462l42.204742 0l0 42.015747l-42.204742 0z" fill-rule="evenodd"/><path fill="#000000" d="m245.2274 123.78807l0 1.578125l-8.828125 0q-0.015625 -0.59375 0.1875 -1.140625q0.34375 -0.90625 1.078125 -1.78125q0.75 -0.875 2.15625 -2.015625q2.171875 -1.78125 2.9375 -2.828125q0.765625 -1.046875 0.765625 -1.96875q0 -0.984375 -0.703125 -1.640625q-0.6875 -0.671875 -1.8125 -0.671875q-1.1875 0 -1.90625 0.71875q-0.703125 0.703125 -0.703125 1.953125l-1.6875 -0.171875q0.171875 -1.890625 1.296875 -2.875q1.140625 -0.984375 3.03125 -0.984375q1.921875 0 3.046875 1.0625q1.125 1.0625 1.125 2.640625q0 0.796875 -0.328125 1.578125q-0.328125 0.78125 -1.09375 1.640625q-0.75 0.84375 -2.53125 2.34375q-1.46875 1.234375 -1.890625 1.6875q-0.421875 0.4375 -0.6875 0.875l6.546875 0z" fill-rule="nonzero"/><path fill="#000000" fill-opacity="0.0" d="m307.09634 28.788876l0 41.03937" fill-rule="evenodd"/><path stroke="#000000" stroke-width="3.0" stroke-linejoin="round" stroke-linecap="round" d="m307.09634 28.788876l0 41.03937" fill-rule="evenodd"/><path fill="#000000" fill-opacity="0.0" d="m368.09265 28.788876l0 41.03937" fill-rule="evenodd"/><path stroke="#000000" stroke-width="3.0" stroke-linejoin="round" stroke-linecap="round" d="m368.09265 28.788876l0 41.03937" fill-rule="evenodd"/><path fill="#000000" fill-opacity="0.0" d="m337.5952 11.123575l0 14.992126" fill-rule="evenodd"/><path stroke="#000000" stroke-width="3.0" stroke-linejoin="round" stroke-linecap="round" d="m337.5952 11.123575l0 14.992126" fill-rule="evenodd"/><path fill="#000000" fill-opacity="0.0" d="m315.96 8.855372l21.493042 37.226078" fill-rule="evenodd"/><path stroke="#d9d9d9" stroke-width="3.0" stroke-linejoin="round" stroke-linecap="round" d="m315.96 8.855372l21.493042 37.226078" fill-rule="evenodd"/><path fill="#000000" fill-opacity="0.0" d="m359.07812 8.615374l-21.631378 37.465027" fill-rule="evenodd"/><path stroke="#d9d9d9" stroke-width="3.0" stroke-linejoin="round" stroke-linecap="round" d="m359.07812 8.615374l-21.631378 37.465027" fill-rule="evenodd"/><path fill="#000000" fill-opacity="0.0" d="m315.96 89.76038l21.493042 -37.226074" fill-rule="evenodd"/><path stroke="#d9d9d9" stroke-width="3.0" stroke-linejoin="round" stroke-linecap="round" d="m315.96 89.76038l21.493042 -37.226074" fill-rule="evenodd"/><path fill="#000000" fill-opacity="0.0" d="m359.07812 90.00039l-21.631378 -37.465034" fill-rule="evenodd"/><path stroke="#d9d9d9" stroke-width="3.0" stroke-linejoin="round" stroke-linecap="round" d="m359.07812 90.00039l-21.631378 -37.465034" fill-rule="evenodd"/><path fill="#000000" fill-opacity="0.0" d="m316.49213 98.4462l42.204742 0l0 42.015747l-42.204742 0z" fill-rule="evenodd"/><path fill="#000000" d="m333.1879 121.834946l1.640625 -0.21875q0.28125 1.40625 0.953125 2.015625q0.6875 0.609375 1.65625 0.609375q1.15625 0 1.953125 -0.796875q0.796875 -0.796875 0.796875 -1.984375q0 -1.125 -0.734375 -1.859375q-0.734375 -0.734375 -1.875 -0.734375q-0.46875 0 -1.15625 0.171875l0.1875 -1.4375q0.15625 0.015625 0.265625 0.015625q1.046875 0 1.875 -0.546875q0.84375 -0.546875 0.84375 -1.671875q0 -0.90625 -0.609375 -1.5q-0.609375 -0.59375 -1.578125 -0.59375q-0.953125 0 -1.59375 0.609375q-0.640625 0.59375 -0.8125 1.796875l-1.640625 -0.296875q0.296875 -1.640625 1.359375 -2.546875q1.0625 -0.90625 2.65625 -0.90625q1.09375 0 2.0 0.46875q0.921875 0.46875 1.40625 1.28125q0.5 0.8125 0.5 1.71875q0 0.859375 -0.46875 1.578125q-0.46875 0.703125 -1.375 1.125q1.1875 0.28125 1.84375 1.140625q0.65625 0.859375 0.65625 2.15625q0 1.734375 -1.28125 2.953125q-1.265625 1.21875 -3.21875 1.21875q-1.765625 0 -2.921875 -1.046875q-1.15625 -1.046875 -1.328125 -2.71875z" fill-rule="nonzero"/><path fill="#000000" fill-opacity="0.0" d="m403.6662 28.788876l0 41.03937" fill-rule="evenodd"/><path stroke="#000000" stroke-width="3.0" stroke-linejoin="round" stroke-linecap="round" d="m403.6662 28.788876l0 41.03937" fill-rule="evenodd"/><path fill="#000000" fill-opacity="0.0" d="m464.6625 28.788876l0 41.03937" fill-rule="evenodd"/><path stroke="#d9d9d9" stroke-width="3.0" stroke-linejoin="round" stroke-linecap="round" d="m464.6625 28.788876l0 41.03937" fill-rule="evenodd"/><path fill="#000000" fill-opacity="0.0" d="m434.16507 11.123575l0 14.992126" fill-rule="evenodd"/><path stroke="#d9d9d9" stroke-width="3.0" stroke-linejoin="round" stroke-linecap="round" d="m434.16507 11.123575l0 14.992126" fill-rule="evenodd"/><path fill="#000000" fill-opacity="0.0" d="m412.52988 8.855372l21.493011 37.226078" fill-rule="evenodd"/><path stroke="#000000" stroke-width="3.0" stroke-linejoin="round" stroke-linecap="round" d="m412.52988 8.855372l21.493011 37.226078" fill-rule="evenodd"/><path fill="#000000" fill-opacity="0.0" d="m455.64798 8.615374l-21.631378 37.465027" fill-rule="evenodd"/><path stroke="#000000" stroke-width="3.0" stroke-linejoin="round" stroke-linecap="round" d="m455.64798 8.615374l-21.631378 37.465027" fill-rule="evenodd"/><path fill="#000000" fill-opacity="0.0" d="m412.52988 89.76038l21.493011 -37.226074" fill-rule="evenodd"/><path stroke="#d9d9d9" stroke-width="3.0" stroke-linejoin="round" stroke-linecap="round" d="m412.52988 89.76038l21.493011 -37.226074" fill-rule="evenodd"/><path fill="#000000" fill-opacity="0.0" d="m455.64798 90.00039l-21.631378 -37.465034" fill-rule="evenodd"/><path stroke="#d9d9d9" stroke-width="3.0" stroke-linejoin="round" stroke-linecap="round" d="m455.64798 90.00039l-21.631378 -37.465034" fill-rule="evenodd"/><path fill="#000000" fill-opacity="0.0" d="m413.062 98.4462l42.204712 0l0 42.015747l-42.204712 0z" fill-rule="evenodd"/><path fill="#000000" d="m435.00775 125.366196l0 -3.203125l-5.796875 0l0 -1.5l6.09375 -8.65625l1.34375 0l0 8.65625l1.796875 0l0 1.5l-1.796875 0l0 3.203125l-1.640625 0zm0 -4.703125l0 -6.015625l-4.1875 6.015625l4.1875 0z" fill-rule="nonzero"/><path fill="#000000" fill-opacity="0.0" d="m500.23608 28.794346l0 41.03937" fill-rule="evenodd"/><path stroke="#d9d9d9" stroke-width="3.0" stroke-linejoin="round" stroke-linecap="round" d="m500.23608 28.794346l0 41.03937" fill-rule="evenodd"/><path fill="#000000" fill-opacity="0.0" d="m561.23236 28.794346l0 41.03937" fill-rule="evenodd"/><path stroke="#d9d9d9" stroke-width="3.0" stroke-linejoin="round" stroke-linecap="round" d="m561.23236 28.794346l0 41.03937" fill-rule="evenodd"/><path fill="#000000" fill-opacity="0.0" d="m530.7349 11.129046l0 14.9921255" fill-rule="evenodd"/><path stroke="#d9d9d9" stroke-width="3.0" stroke-linejoin="round" stroke-linecap="round" d="m530.7349 11.129046l0 14.9921255" fill-rule="evenodd"/><path fill="#000000" fill-opacity="0.0" d="m509.09973 8.860844l21.493042 37.226078" fill-rule="evenodd"/><path stroke="#000000" stroke-width="3.0" stroke-linejoin="round" stroke-linecap="round" d="m509.09973 8.860844l21.493042 37.226078" fill-rule="evenodd"/><path fill="#000000" fill-opacity="0.0" d="m552.21783 8.620845l-21.631348 37.465027" fill-rule="evenodd"/><path stroke="#000000" stroke-width="3.0" stroke-linejoin="round" stroke-linecap="round" d="m552.21783 8.620845l-21.631348 37.465027" fill-rule="evenodd"/><path fill="#000000" fill-opacity="0.0" d="m509.09973 89.765854l21.493042 -37.226074" fill-rule="evenodd"/><path stroke="#d9d9d9" stroke-width="3.0" stroke-linejoin="round" stroke-linecap="round" d="m509.09973 89.765854l21.493042 -37.226074" fill-rule="evenodd"/><path fill="#000000" fill-opacity="0.0" d="m552.21783 90.00586l-21.631348 -37.465034" fill-rule="evenodd"/><path stroke="#d9d9d9" stroke-width="3.0" stroke-linejoin="round" stroke-linecap="round" d="m552.21783 90.00586l-21.631348 -37.465034" fill-rule="evenodd"/><path fill="#000000" fill-opacity="0.0" d="m509.63187 98.4462l42.204742 0l0 42.015747l-42.204742 0z" fill-rule="evenodd"/><path fill="#000000" d="m526.32764 121.866196l1.71875 -0.140625q0.1875 1.25 0.875 1.890625q0.703125 0.625 1.6875 0.625q1.1875 0 2.0 -0.890625q0.828125 -0.890625 0.828125 -2.359375q0 -1.40625 -0.796875 -2.21875q-0.78125 -0.8125 -2.0625 -0.8125q-0.78125 0 -1.421875 0.359375q-0.640625 0.359375 -1.0 0.9375l-1.546875 -0.203125l1.296875 -6.859375l6.640625 0l0 1.5625l-5.328125 0l-0.71875 3.59375q1.203125 -0.84375 2.515625 -0.84375q1.75 0 2.953125 1.21875q1.203125 1.203125 1.203125 3.109375q0 1.8125 -1.046875 3.140625q-1.296875 1.625 -3.515625 1.625q-1.8125 0 -2.96875 -1.015625q-1.15625 -1.03125 -1.3125 -2.71875z" fill-rule="nonzero"/><path fill="#000000" fill-opacity="0.0" d="m596.8059 28.798723l0 41.039368" fill-rule="evenodd"/><path stroke="#d9d9d9" stroke-width="3.0" stroke-linejoin="round" stroke-linecap="round" d="m596.8059 28.798723l0 41.039368" fill-rule="evenodd"/><path fill="#000000" fill-opacity="0.0" d="m657.80225 28.798723l0 41.039368" fill-rule="evenodd"/><path stroke="#000000" stroke-width="3.0" stroke-linejoin="round" stroke-linecap="round" d="m657.80225 28.798723l0 41.039368" fill-rule="evenodd"/><path fill="#000000" fill-opacity="0.0" d="m627.3048 11.133424l0 14.9921255" fill-rule="evenodd"/><path stroke="#d9d9d9" stroke-width="3.0" stroke-linejoin="round" stroke-linecap="round" d="m627.3048 11.133424l0 14.9921255" fill-rule="evenodd"/><path fill="#000000" fill-opacity="0.0" d="m605.6696 8.865221l21.492981 37.22608" fill-rule="evenodd"/><path stroke="#000000" stroke-width="3.0" stroke-linejoin="round" stroke-linecap="round" d="m605.6696 8.865221l21.492981 37.22608" fill-rule="evenodd"/><path fill="#000000" fill-opacity="0.0" d="m648.7877 8.625221l-21.631409 37.46503" fill-rule="evenodd"/><path stroke="#000000" stroke-width="3.0" stroke-linejoin="round" stroke-linecap="round" d="m648.7877 8.625221l-21.631409 37.46503" fill-rule="evenodd"/><path fill="#000000" fill-opacity="0.0" d="m605.6696 89.77023l21.492981 -37.226078" fill-rule="evenodd"/><path stroke="#d9d9d9" stroke-width="3.0" stroke-linejoin="round" stroke-linecap="round" d="m605.6696 89.77023l21.492981 -37.226078" fill-rule="evenodd"/><path fill="#000000" fill-opacity="0.0" d="m648.7877 90.01023l-21.631409 -37.465027" fill-rule="evenodd"/><path stroke="#d9d9d9" stroke-width="3.0" stroke-linejoin="round" stroke-linecap="round" d="m648.7877 90.01023l-21.631409 -37.465027" fill-rule="evenodd"/><path fill="#000000" fill-opacity="0.0" d="m606.2017 98.4462l42.204712 0l0 42.015747l-42.204712 0z" fill-rule="evenodd"/><path fill="#000000" d="m631.39746 115.28807l-1.625 0.125q-0.21875 -0.96875 -0.625 -1.40625q-0.65625 -0.703125 -1.640625 -0.703125q-0.78125 0 -1.375 0.4375q-0.765625 0.5625 -1.21875 1.65625q-0.453125 1.078125 -0.46875 3.078125q0.59375 -0.890625 1.453125 -1.328125q0.859375 -0.4375 1.796875 -0.4375q1.640625 0 2.78125 1.203125q1.15625 1.203125 1.15625 3.109375q0 1.265625 -0.546875 2.34375q-0.53125 1.078125 -1.484375 1.65625q-0.9375 0.578125 -2.140625 0.578125q-2.0625 0 -3.359375 -1.5q-1.28125 -1.515625 -1.28125 -4.984375q0 -3.875 1.421875 -5.625q1.25 -1.53125 3.375 -1.53125q1.5625 0 2.5625 0.890625q1.015625 0.875 1.21875 2.4375zm-6.6875 5.75q0 0.84375 0.359375 1.625q0.359375 0.765625 1.0 1.171875q0.640625 0.40625 1.359375 0.40625q1.03125 0 1.78125 -0.828125q0.75 -0.84375 0.75 -2.28125q0 -1.390625 -0.734375 -2.1875q-0.734375 -0.796875 -1.859375 -0.796875q-1.109375 0 -1.890625 0.796875q-0.765625 0.796875 -0.765625 2.09375z" fill-rule="nonzero"/><path fill="#000000" fill-opacity="0.0" d="m113.95585 181.17422l0 41.039368" fill-rule="evenodd"/><path stroke="#000000" stroke-width="3.0" stroke-linejoin="round" stroke-linecap="round" d="m113.95585 181.17422l0 41.039368" fill-rule="evenodd"/><path fill="#000000" fill-opacity="0.0" d="m174.95215 181.17422l0 41.039368" fill-rule="evenodd"/><path stroke="#000000" stroke-width="3.0" stroke-linejoin="round" stroke-linecap="round" d="m174.95215 181.17422l0 41.039368" fill-rule="evenodd"/><path fill="#000000" fill-opacity="0.0" d="m144.45471 163.50893l0 14.992126" fill-rule="evenodd"/><path stroke="#d9d9d9" stroke-width="3.0" stroke-linejoin="round" stroke-linecap="round" d="m144.45471 163.50893l0 14.992126" fill-rule="evenodd"/><path fill="#000000" fill-opacity="0.0" d="m122.8195 161.24072l21.493027 37.22609" fill-rule="evenodd"/><path stroke="#000000" stroke-width="3.0" stroke-linejoin="round" stroke-linecap="round" d="m122.8195 161.24072l21.493027 37.22609" fill-rule="evenodd"/><path fill="#000000" fill-opacity="0.0" d="m165.93762 161.00073l-21.631378 37.465027" fill-rule="evenodd"/><path stroke="#000000" stroke-width="3.0" stroke-linejoin="round" stroke-linecap="round" d="m165.93762 161.00073l-21.631378 37.465027" fill-rule="evenodd"/><path fill="#000000" fill-opacity="0.0" d="m122.8195 242.14574l21.493027 -37.226074" fill-rule="evenodd"/><path stroke="#d9d9d9" stroke-width="3.0" stroke-linejoin="round" stroke-linecap="round" d="m122.8195 242.14574l21.493027 -37.226074" fill-rule="evenodd"/><path fill="#000000" fill-opacity="0.0" d="m165.93762 242.38574l-21.631378 -37.465027" fill-rule="evenodd"/><path stroke="#d9d9d9" stroke-width="3.0" stroke-linejoin="round" stroke-linecap="round" d="m165.93762 242.38574l-21.631378 -37.465027" fill-rule="evenodd"/><path fill="#000000" fill-opacity="0.0" d="m123.35164 253.31758l42.204727 0l0 42.015762l-42.204727 0z" fill-rule="evenodd"/><path fill="#000000" d="m140.15677 268.6282l0 -1.578125l8.640625 0l0 1.28125q-1.28125 1.359375 -2.53125 3.609375q-1.25 2.25 -1.9375 4.625q-0.484375 1.671875 -0.625 3.671875l-1.6875 0q0.03125 -1.578125 0.625 -3.8125q0.59375 -2.234375 1.6875 -4.296875q1.109375 -2.078125 2.359375 -3.5l-6.53125 0z" fill-rule="nonzero"/><path fill="#000000" fill-opacity="0.0" d="m210.52571 183.67448l0 41.039383" fill-rule="evenodd"/><path stroke="#000000" stroke-width="3.0" stroke-linejoin="round" stroke-linecap="round" d="m210.52571 183.67448l0 41.039383" fill-rule="evenodd"/><path fill="#000000" fill-opacity="0.0" d="m271.522 183.67448l0 41.039383" fill-rule="evenodd"/><path stroke="#000000" stroke-width="3.0" stroke-linejoin="round" stroke-linecap="round" d="m271.522 183.67448l0 41.039383" fill-rule="evenodd"/><path fill="#000000" fill-opacity="0.0" d="m241.02457 166.00919l0 14.992126" fill-rule="evenodd"/><path stroke="#000000" stroke-width="3.0" stroke-linejoin="round" stroke-linecap="round" d="m241.02457 166.00919l0 14.992126" fill-rule="evenodd"/><path fill="#000000" fill-opacity="0.0" d="m219.38936 163.74098l21.493042 37.22609" fill-rule="evenodd"/><path stroke="#000000" stroke-width="3.0" stroke-linejoin="round" stroke-linecap="round" d="m219.38936 163.74098l21.493042 37.22609" fill-rule="evenodd"/><path fill="#000000" fill-opacity="0.0" d="m262.50748 163.50099l-21.631363 37.465027" fill-rule="evenodd"/><path stroke="#000000" stroke-width="3.0" stroke-linejoin="round" stroke-linecap="round" d="m262.50748 163.50099l-21.631363 37.465027" fill-rule="evenodd"/><path fill="#000000" fill-opacity="0.0" d="m219.38936 244.646l21.493042 -37.226074" fill-rule="evenodd"/><path stroke="#d9d9d9" stroke-width="3.0" stroke-linejoin="round" stroke-linecap="round" d="m219.38936 244.646l21.493042 -37.226074" fill-rule="evenodd"/><path fill="#000000" fill-opacity="0.0" d="m262.50748 244.886l-21.631363 -37.465027" fill-rule="evenodd"/><path stroke="#d9d9d9" stroke-width="3.0" stroke-linejoin="round" stroke-linecap="round" d="m262.50748 244.886l-21.631363 -37.465027" fill-rule="evenodd"/><path fill="#000000" fill-opacity="0.0" d="m219.9215 253.31758l42.204727 0l0 42.015762l-42.204727 0z" fill-rule="evenodd"/><path fill="#000000" d="m239.13287 273.0032q-1.015625 -0.375 -1.515625 -1.0625q-0.484375 -0.703125 -0.484375 -1.671875q0 -1.453125 1.046875 -2.4375q1.046875 -1.0 2.78125 -1.0q1.75 0 2.8125 1.015625q1.078125 1.015625 1.078125 2.46875q0 0.9375 -0.5 1.625q-0.484375 0.6875 -1.46875 1.0625q1.21875 0.390625 1.859375 1.28125q0.65625 0.890625 0.65625 2.140625q0 1.703125 -1.21875 2.875q-1.21875 1.171875 -3.1875 1.171875q-1.984375 0 -3.203125 -1.171875q-1.203125 -1.171875 -1.203125 -2.921875q0 -1.3125 0.65625 -2.1875q0.671875 -0.875 1.890625 -1.1875zm-0.328125 -2.78125q0 0.9375 0.609375 1.546875q0.609375 0.59375 1.59375 0.59375q0.9375 0 1.546875 -0.59375q0.609375 -0.59375 0.609375 -1.453125q0 -0.90625 -0.625 -1.515625q-0.625 -0.625 -1.5625 -0.625q-0.9375 0 -1.5625 0.609375q-0.609375 0.59375 -0.609375 1.4375zm-0.53125 6.15625q0 0.703125 0.328125 1.359375q0.34375 0.65625 1.0 1.015625q0.65625 0.359375 1.40625 0.359375q1.171875 0 1.9375 -0.75q0.765625 -0.75 0.765625 -1.921875q0 -1.1875 -0.796875 -1.953125q-0.78125 -0.78125 -1.953125 -0.78125q-1.15625 0 -1.921875 0.765625q-0.765625 0.765625 -0.765625 1.90625z" fill-rule="nonzero"/><path fill="#000000" fill-opacity="0.0" d="m307.09558 178.68382l0 41.039368" fill-rule="evenodd"/><path stroke="#000000" stroke-width="3.0" stroke-linejoin="round" stroke-linecap="round" d="m307.09558 178.68382l0 41.039368" fill-rule="evenodd"/><path fill="#000000" fill-opacity="0.0" d="m368.0919 178.68382l0 41.039368" fill-rule="evenodd"/><path stroke="#d9d9d9" stroke-width="3.0" stroke-linejoin="round" stroke-linecap="round" d="m368.0919 178.68382l0 41.039368" fill-rule="evenodd"/><path fill="#000000" fill-opacity="0.0" d="m337.59442 161.01851l0 14.992126" fill-rule="evenodd"/><path stroke="#d9d9d9" stroke-width="3.0" stroke-linejoin="round" stroke-linecap="round" d="m337.59442 161.01851l0 14.992126" fill-rule="evenodd"/><path fill="#000000" fill-opacity="0.0" d="m315.95923 158.75032l21.493042 37.226074" fill-rule="evenodd"/><path stroke="#000000" stroke-width="3.0" stroke-linejoin="round" stroke-linecap="round" d="m315.95923 158.75032l21.493042 37.226074" fill-rule="evenodd"/><path fill="#000000" fill-opacity="0.0" d="m359.07733 158.51031l-21.631348 37.465027" fill-rule="evenodd"/><path stroke="#000000" stroke-width="3.0" stroke-linejoin="round" stroke-linecap="round" d="m359.07733 158.51031l-21.631348 37.465027" fill-rule="evenodd"/><path fill="#000000" fill-opacity="0.0" d="m315.95923 239.65533l21.493042 -37.22609" fill-rule="evenodd"/><path stroke="#000000" stroke-width="3.0" stroke-linejoin="round" stroke-linecap="round" d="m315.95923 239.65533l21.493042 -37.22609" fill-rule="evenodd"/><path fill="#000000" fill-opacity="0.0" d="m359.07733 239.89532l-21.631348 -37.465027" fill-rule="evenodd"/><path stroke="#000000" stroke-width="3.0" stroke-linejoin="round" stroke-linecap="round" d="m359.07733 239.89532l-21.631348 -37.465027" fill-rule="evenodd"/><path fill="#000000" fill-opacity="0.0" d="m316.49136 253.31758l42.204712 0l0 42.015762l-42.204712 0z" fill-rule="evenodd"/><path fill="#000000" d="m333.42148 277.14383l1.578125 -0.140625q0.203125 1.109375 0.765625 1.609375q0.5625 0.5 1.453125 0.5q0.75 0 1.3125 -0.34375q0.578125 -0.34375 0.9375 -0.921875q0.375 -0.578125 0.609375 -1.5625q0.25 -0.984375 0.25 -2.0q0 -0.109375 0 -0.328125q-0.5 0.78125 -1.359375 1.265625q-0.84375 0.484375 -1.828125 0.484375q-1.671875 0 -2.8125 -1.203125q-1.140625 -1.203125 -1.140625 -3.171875q0 -2.03125 1.1875 -3.265625q1.203125 -1.234375 3.0 -1.234375q1.3125 0 2.390625 0.703125q1.078125 0.703125 1.640625 2.0q0.5625 1.296875 0.5625 3.75q0 2.5625 -0.5625 4.078125q-0.5625 1.515625 -1.65625 2.3125q-1.09375 0.796875 -2.578125 0.796875q-1.5625 0 -2.5625 -0.875q-0.984375 -0.875 -1.1875 -2.453125zm6.71875 -5.890625q0 -1.40625 -0.75 -2.234375q-0.75 -0.828125 -1.8125 -0.828125q-1.09375 0 -1.90625 0.890625q-0.8125 0.890625 -0.8125 2.3125q0 1.28125 0.765625 2.078125q0.78125 0.796875 1.90625 0.796875q1.140625 0 1.875 -0.796875q0.734375 -0.796875 0.734375 -2.21875z" fill-rule="nonzero"/><path fill="#000000" fill-opacity="0.0" d="m403.66544 178.68929l0 41.039368" fill-rule="evenodd"/><path stroke="#d9d9d9" stroke-width="3.0" stroke-linejoin="round" stroke-linecap="round" d="m403.66544 178.68929l0 41.039368" fill-rule="evenodd"/><path fill="#000000" fill-opacity="0.0" d="m464.66174 178.68929l0 41.039368" fill-rule="evenodd"/><path stroke="#d9d9d9" stroke-width="3.0" stroke-linejoin="round" stroke-linecap="round" d="m464.66174 178.68929l0 41.039368" fill-rule="evenodd"/><path fill="#000000" fill-opacity="0.0" d="m434.1643 161.02399l0 14.992126" fill-rule="evenodd"/><path stroke="#d9d9d9" stroke-width="3.0" stroke-linejoin="round" stroke-linecap="round" d="m434.1643 161.02399l0 14.992126" fill-rule="evenodd"/><path fill="#000000" fill-opacity="0.0" d="m412.52908 158.75578l21.493042 37.226074" fill-rule="evenodd"/><path stroke="#000000" stroke-width="3.0" stroke-linejoin="round" stroke-linecap="round" d="m412.52908 158.75578l21.493042 37.226074" fill-rule="evenodd"/><path fill="#000000" fill-opacity="0.0" d="m455.6472 158.5158l-21.631348 37.465027" fill-rule="evenodd"/><path stroke="#000000" stroke-width="3.0" stroke-linejoin="round" stroke-linecap="round" d="m455.6472 158.5158l-21.631348 37.465027" fill-rule="evenodd"/><path fill="#000000" fill-opacity="0.0" d="m412.52908 239.6608l21.493042 -37.226074" fill-rule="evenodd"/><path stroke="#000000" stroke-width="3.0" stroke-linejoin="round" stroke-linecap="round" d="m412.52908 239.6608l21.493042 -37.226074" fill-rule="evenodd"/><path fill="#000000" fill-opacity="0.0" d="m455.6472 239.9008l-21.631348 -37.465042" fill-rule="evenodd"/><path stroke="#000000" stroke-width="3.0" stroke-linejoin="round" stroke-linecap="round" d="m455.6472 239.9008l-21.631348 -37.465042" fill-rule="evenodd"/><path fill="#000000" fill-opacity="0.0" d="m413.06122 253.31758l42.204742 0l0 42.015762l-42.204742 0z" fill-rule="evenodd"/><path fill="#000000" d="m430.741 280.23758l-1.640625 0l0 -10.453125q-0.59375 0.5625 -1.5625 1.140625q-0.953125 0.5625 -1.71875 0.84375l0 -1.59375q1.375 -0.640625 2.40625 -1.5625q1.03125 -0.921875 1.453125 -1.78125l1.0625 0l0 13.40625zm4.203827 -6.59375q0 -2.359375 0.484375 -3.796875q0.484375 -1.453125 1.4375 -2.234375q0.96875 -0.78125 2.421875 -0.78125q1.078125 0 1.890625 0.4375q0.8125 0.421875 1.328125 1.25q0.53125 0.8125 0.828125 1.984375q0.3125 1.15625 0.3125 3.140625q0 2.359375 -0.484375 3.8125q-0.484375 1.4375 -1.453125 2.234375q-0.953125 0.78125 -2.421875 0.78125q-1.921875 0 -3.03125 -1.390625q-1.3125 -1.671875 -1.3125 -5.4375zm1.671875 0q0 3.296875 0.765625 4.390625q0.78125 1.078125 1.90625 1.078125q1.140625 0 1.90625 -1.09375q0.765625 -1.09375 0.765625 -4.375q0 -3.296875 -0.765625 -4.375q-0.765625 -1.078125 -1.921875 -1.078125q-1.125 0 -1.796875 0.953125q-0.859375 1.21875 -0.859375 4.5z" fill-rule="nonzero"/><path fill="#000000" fill-opacity="0.0" d="m500.2353 181.1786l0 41.039368" fill-rule="evenodd"/><path stroke="#d9d9d9" stroke-width="3.0" stroke-linejoin="round" stroke-linecap="round" d="m500.2353 181.1786l0 41.039368" fill-rule="evenodd"/><path fill="#000000" fill-opacity="0.0" d="m561.2316 181.1786l0 41.039368" fill-rule="evenodd"/><path stroke="#000000" stroke-width="3.0" stroke-linejoin="round" stroke-linecap="round" d="m561.2316 181.1786l0 41.039368" fill-rule="evenodd"/><path fill="#000000" fill-opacity="0.0" d="m530.73413 163.5133l0 14.992126" fill-rule="evenodd"/><path stroke="#d9d9d9" stroke-width="3.0" stroke-linejoin="round" stroke-linecap="round" d="m530.73413 163.5133l0 14.992126" fill-rule="evenodd"/><path fill="#000000" fill-opacity="0.0" d="m509.09894 161.2451l21.493042 37.226074" fill-rule="evenodd"/><path stroke="#000000" stroke-width="3.0" stroke-linejoin="round" stroke-linecap="round" d="m509.09894 161.2451l21.493042 37.226074" fill-rule="evenodd"/><path fill="#000000" fill-opacity="0.0" d="m552.21704 161.00511l-21.631348 37.465027" fill-rule="evenodd"/><path stroke="#000000" stroke-width="3.0" stroke-linejoin="round" stroke-linecap="round" d="m552.21704 161.00511l-21.631348 37.465027" fill-rule="evenodd"/><path fill="#000000" fill-opacity="0.0" d="m509.09894 242.15012l21.493042 -37.226074" fill-rule="evenodd"/><path stroke="#000000" stroke-width="3.0" stroke-linejoin="round" stroke-linecap="round" d="m509.09894 242.15012l21.493042 -37.226074" fill-rule="evenodd"/><path fill="#000000" fill-opacity="0.0" d="m552.21704 242.39012l-21.631348 -37.465027" fill-rule="evenodd"/><path stroke="#000000" stroke-width="3.0" stroke-linejoin="round" stroke-linecap="round" d="m552.21704 242.39012l-21.631348 -37.465027" fill-rule="evenodd"/><path fill="#000000" fill-opacity="0.0" d="m509.63107 253.31758l42.204742 0l0 42.015762l-42.204742 0z" fill-rule="evenodd"/><path fill="#000000" d="m528.00354 280.23758l-1.640625 0l0 -10.453125q-0.59375 0.5625 -1.5625 1.140625q-0.953125 0.5625 -1.71875 0.84375l0 -1.59375q1.375 -0.640625 2.40625 -1.5625q1.03125 -0.921875 1.453125 -1.78125l1.0625 0l0 13.40625zm8.990295 0l-1.640625 0l0 -10.453125q-0.59375 0.5625 -1.5625 1.140625q-0.953125 0.5625 -1.71875 0.84375l0 -1.59375q1.375 -0.640625 2.40625 -1.5625q1.03125 -0.921875 1.453125 -1.78125l1.0625 0l0 13.40625z" fill-rule="nonzero"/><path fill="#000000" fill-opacity="0.0" d="m596.8052 181.17204l0 41.039368" fill-rule="evenodd"/><path stroke="#000000" stroke-width="3.0" stroke-linejoin="round" stroke-linecap="round" d="m596.8052 181.17204l0 41.039368" fill-rule="evenodd"/><path fill="#000000" fill-opacity="0.0" d="m657.80145 181.17204l0 41.039368" fill-rule="evenodd"/><path stroke="#000000" stroke-width="3.0" stroke-linejoin="round" stroke-linecap="round" d="m657.80145 181.17204l0 41.039368" fill-rule="evenodd"/><path fill="#000000" fill-opacity="0.0" d="m627.304 163.50674l0 14.992126" fill-rule="evenodd"/><path stroke="#d9d9d9" stroke-width="3.0" stroke-linejoin="round" stroke-linecap="round" d="m627.304 163.50674l0 14.992126" fill-rule="evenodd"/><path fill="#000000" fill-opacity="0.0" d="m605.6688 161.23854l21.493042 37.226074" fill-rule="evenodd"/><path stroke="#000000" stroke-width="3.0" stroke-linejoin="round" stroke-linecap="round" d="m605.6688 161.23854l21.493042 37.226074" fill-rule="evenodd"/><path fill="#000000" fill-opacity="0.0" d="m648.7869 160.99855l-21.631348 37.465027" fill-rule="evenodd"/><path stroke="#000000" stroke-width="3.0" stroke-linejoin="round" stroke-linecap="round" d="m648.7869 160.99855l-21.631348 37.465027" fill-rule="evenodd"/><path fill="#000000" fill-opacity="0.0" d="m605.6688 242.14355l21.493042 -37.226074" fill-rule="evenodd"/><path stroke="#000000" stroke-width="3.0" stroke-linejoin="round" stroke-linecap="round" d="m605.6688 242.14355l21.493042 -37.226074" fill-rule="evenodd"/><path fill="#000000" fill-opacity="0.0" d="m648.7869 242.38356l-21.631348 -37.465042" fill-rule="evenodd"/><path stroke="#000000" stroke-width="3.0" stroke-linejoin="round" stroke-linecap="round" d="m648.7869 242.38356l-21.631348 -37.465042" fill-rule="evenodd"/><path fill="#000000" fill-opacity="0.0" d="m606.2009 253.31758l42.204773 0l0 42.015762l-42.204773 0z" fill-rule="evenodd"/><path fill="#000000" d="m623.88074 280.23758l-1.640625 0l0 -10.453125q-0.59375 0.5625 -1.5625 1.140625q-0.953125 0.5625 -1.71875 0.84375l0 -1.59375q1.375 -0.640625 2.40625 -1.5625q1.03125 -0.921875 1.453125 -1.78125l1.0625 0l0 13.40625zm12.813171 -1.578125l0 1.578125l-8.828125 0q-0.015625 -0.59375 0.1875 -1.140625q0.34375 -0.90625 1.078125 -1.78125q0.75 -0.875 2.15625 -2.015625q2.171875 -1.78125 2.9375 -2.828125q0.765625 -1.046875 0.765625 -1.96875q0 -0.984375 -0.703125 -1.640625q-0.6875 -0.671875 -1.8125 -0.671875q-1.1875 0 -1.90625 0.71875q-0.703125 0.703125 -0.703125 1.953125l-1.6875 -0.171875q0.171875 -1.890625 1.296875 -2.875q1.140625 -0.984375 3.03125 -0.984375q1.921875 0 3.046875 1.0625q1.125 1.0625 1.125 2.640625q0 0.796875 -0.328125 1.578125q-0.328125 0.78125 -1.09375 1.640625q-0.75 0.84375 -2.53125 2.34375q-1.46875 1.234375 -1.890625 1.6875q-0.421875 0.4375 -0.6875 0.875l6.546875 0z" fill-rule="nonzero"/><path fill="#000000" fill-opacity="0.0" d="m196.17802 0l0 290.74014" fill-rule="evenodd"/><path stroke="#000000" stroke-width="1.0" stroke-linejoin="round" stroke-linecap="butt" stroke-dasharray="1.0,3.0" d="m196.17802 0l0 290.74014" fill-rule="evenodd"/><path fill="#000000" fill-opacity="0.0" d="m292.7479 0l0 290.74014" fill-rule="evenodd"/><path stroke="#000000" stroke-width="1.0" stroke-linejoin="round" stroke-linecap="butt" stroke-dasharray="1.0,3.0" d="m292.7479 0l0 290.74014" fill-rule="evenodd"/><path fill="#000000" fill-opacity="0.0" d="m389.31775 0l0 290.74014" fill-rule="evenodd"/><path stroke="#000000" stroke-width="1.0" stroke-linejoin="round" stroke-linecap="butt" stroke-dasharray="1.0,3.0" d="m389.31775 0l0 290.74014" fill-rule="evenodd"/><path fill="#000000" fill-opacity="0.0" d="m485.8876 0l0 290.74014" fill-rule="evenodd"/><path stroke="#000000" stroke-width="1.0" stroke-linejoin="round" stroke-linecap="butt" stroke-dasharray="1.0,3.0" d="m485.8876 0l0 290.74014" fill-rule="evenodd"/><path fill="#000000" fill-opacity="0.0" d="m582.45746 0l0 290.74014" fill-rule="evenodd"/><path stroke="#000000" stroke-width="1.0" stroke-linejoin="round" stroke-linecap="butt" stroke-dasharray="1.0,3.0" d="m582.45746 0l0 290.74014" fill-rule="evenodd"/><path fill="#000000" fill-opacity="0.0" d="m103.7874 150.73134l567.0551 0" fill-rule="evenodd"/><path stroke="#000000" stroke-width="1.0" stroke-linejoin="round" stroke-linecap="butt" stroke-dasharray="1.0,3.0" d="m103.7874 150.73134l567.0551 0" fill-rule="evenodd"/></g></svg>