<?xml version="1.0"?>
<svg class="chart main" id="chart-main" width="722.5687255859375px" height="291.75">
  <g id="clickable-main" class="clickable" transform="translate(88.046875,14.0875)">
    <g class="x axis clickable" transform="translate(0,216.94750000000002)" aria-hidden="true" fill="none" font-size="10" font-family="sans-serif" text-anchor="middle">
      <path class="domain" stroke="currentColor" d="M0.5,6V0.5H511.6V6" style="opacity: 0;"/>
      <g class="tick" opacity="1" transform="translate(0.5,0)">
        <line stroke="currentColor" y2="6"/>
        <text fill="currentColor" y="9" dy="0.71em">1910</text>
      </g>
      <g class="tick" opacity="1" transform="translate(47.38378048870101,0)">
        <line stroke="currentColor" y2="6"/>
        <text fill="currentColor" y="9" dy="0.71em">1920</text>
      </g>
      <g class="tick" opacity="1" transform="translate(94.28045648159208,0)">
        <line stroke="currentColor" y2="6"/>
        <text fill="currentColor" y="9" dy="0.71em">1930</text>
      </g>
      <g class="tick" opacity="1" transform="translate(141.16429462176134,0)">
        <line stroke="currentColor" y2="6"/>
        <text fill="currentColor" y="9" dy="0.71em">1940</text>
      </g>
      <g class="tick" opacity="1" transform="translate(188.06043570412234,0)">
        <line stroke="currentColor" y2="6"/>
        <text fill="currentColor" y="9" dy="0.71em">1950</text>
      </g>
      <g class="tick" opacity="1" transform="translate(234.94480875482165,0)">
        <line stroke="currentColor" y2="6"/>
        <text fill="currentColor" y="9" dy="0.71em">1960</text>
      </g>
      <g class="tick" opacity="1" transform="translate(281.84148474771274,0)">
        <line stroke="currentColor" y2="6"/>
        <text fill="currentColor" y="9" dy="0.71em">1970</text>
      </g>
      <g class="tick" opacity="1" transform="translate(328.725322887882,0)">
        <line stroke="currentColor" y2="6"/>
        <text fill="currentColor" y="9" dy="0.71em">1980</text>
      </g>
      <g class="tick" opacity="1" transform="translate(375.621463970243,0)">
        <line stroke="currentColor" y2="6"/>
        <text fill="currentColor" y="9" dy="0.71em">1990</text>
      </g>
      <g class="tick" opacity="1" transform="translate(422.50530211041223,0)">
        <line stroke="currentColor" y2="6"/>
        <text fill="currentColor" y="9" dy="0.71em">2000</text>
      </g>
      <g class="tick" opacity="1" transform="translate(469.40197810330335,0)">
        <line stroke="currentColor" y2="6"/>
        <text fill="currentColor" y="9" dy="0.71em">2010</text>
      </g>
    </g>
    <g class="y grid clickable" fill="none" font-size="10" font-family="sans-serif" text-anchor="end">
      <path class="domain" stroke="currentColor" d="M511.1,217.44750000000002H0.5V0.5H511.1"/>
      <g class="tick" opacity="1" transform="translate(0,217.44750000000002)">
        <line stroke="currentColor" x2="511.1"/>
        <text fill="currentColor" x="-3" dy="0.32em"/>
      </g>
      <g class="tick" opacity="1" transform="translate(0, 174.05799865722656)">
        <line stroke="currentColor" x2="511.1"/>
        <text fill="currentColor" x="-3" dy="0.32em"/>
      </g>
      <g class="tick" opacity="1" transform="translate(0, 130.6685028076172)">
        <line stroke="currentColor" x2="511.1"/>
        <text fill="currentColor" x="-3" dy="0.32em"/>
      </g>
      <g class="tick" opacity="1" transform="translate(0, 87.27899932861328)">
        <line stroke="currentColor" x2="511.1"/>
        <text fill="currentColor" x="-3" dy="0.32em"/>
      </g>
      <g class="tick" opacity="1" transform="translate(0, 43.88949966430664)">
        <line stroke="currentColor" x2="511.1"/>
        <text fill="currentColor" x="-3" dy="0.32em"/>
      </g>
      <g class="tick" opacity="1" transform="translate(0, 0.5)">
        <line stroke="currentColor" x2="511.1"/>
        <text fill="currentColor" x="-3" dy="0.32em"/>
      </g>
    </g>
    <g class="x axis zero" transform="translate(0,216.94750000000002)" fill="none" font-size="10" font-family="sans-serif" text-anchor="middle">
      <path class="domain" stroke="currentColor" d="M0.5,0.5H511.6" style="stroke: rgb(158, 158, 158);"/>
      <g class="tick" opacity="1" transform="translate(0.5,0)">
        <line stroke="currentColor" y2="0"/>
        <text fill="currentColor" y="3" dy="0.71em"/>
      </g>
      <g class="tick" opacity="1" transform="translate(47.38378048870101,0)">
        <line stroke="currentColor" y2="0"/>
        <text fill="currentColor" y="3" dy="0.71em"/>
      </g>
      <g class="tick" opacity="1" transform="translate(94.28045648159208,0)">
        <line stroke="currentColor" y2="0"/>
        <text fill="currentColor" y="3" dy="0.71em"/>
      </g>
      <g class="tick" opacity="1" transform="translate(141.16429462176134,0)">
        <line stroke="currentColor" y2="0"/>
        <text fill="currentColor" y="3" dy="0.71em"/>
      </g>
      <g class="tick" opacity="1" transform="translate(188.06043570412234,0)">
        <line stroke="currentColor" y2="0"/>
        <text fill="currentColor" y="3" dy="0.71em"/>
      </g>
      <g class="tick" opacity="1" transform="translate(234.94480875482165,0)">
        <line stroke="currentColor" y2="0"/>
        <text fill="currentColor" y="3" dy="0.71em"/>
      </g>
      <g class="tick" opacity="1" transform="translate(281.84148474771274,0)">
        <line stroke="currentColor" y2="0"/>
        <text fill="currentColor" y="3" dy="0.71em"/>
      </g>
      <g class="tick" opacity="1" transform="translate(328.725322887882,0)">
        <line stroke="currentColor" y2="0"/>
        <text fill="currentColor" y="3" dy="0.71em"/>
      </g>
      <g class="tick" opacity="1" transform="translate(375.621463970243,0)">
        <line stroke="currentColor" y2="0"/>
        <text fill="currentColor" y="3" dy="0.71em"/>
      </g>
      <g class="tick" opacity="1" transform="translate(422.50530211041223,0)">
        <line stroke="currentColor" y2="0"/>
        <text fill="currentColor" y="3" dy="0.71em"/>
      </g>
      <g class="tick" opacity="1" transform="translate(469.40197810330335,0)">
        <line stroke="currentColor" y2="0"/>
        <text fill="currentColor" y="3" dy="0.71em"/>
      </g>
    </g>
    <g class="y axis" aria-hidden="true" id="y-axis-main" fill="none" font-size="10" font-family="sans-serif" text-anchor="end">
      <g class="tick" opacity="1" transform="translate(0,217.44750000000002)">
        <line stroke="currentColor" x2="-6"/>
        <text fill="currentColor" x="-9" dy="0.32em">0.00000000%</text>
      </g>
      <g class="tick" opacity="1" transform="translate(0,181.28958333333335)">
        <line stroke="currentColor" x2="-6"/>
        <text fill="currentColor" x="-9" dy="0.32em">0.00000100%</text>
      </g>
      <g class="tick" opacity="1" transform="translate(0,145.13166666666666)">
        <line stroke="currentColor" x2="-6"/>
        <text fill="currentColor" x="-9" dy="0.32em">0.00000200%</text>
      </g>
      <g class="tick" opacity="1" transform="translate(0,108.97375000000001)">
        <line stroke="currentColor" x2="-6"/>
        <text fill="currentColor" x="-9" dy="0.32em">0.00000300%</text>
      </g>
      <g class="tick" opacity="1" transform="translate(0,72.81583333333333)">
        <line stroke="currentColor" x2="-6"/>
        <text fill="currentColor" x="-9" dy="0.32em">0.00000400%</text>
      </g>
      <g class="tick" opacity="1" transform="translate(0,36.657916666666665)">
        <line stroke="currentColor" x2="-6"/>
        <text fill="currentColor" x="-9" dy="0.32em">0.00000500%</text>
      </g>
    </g>
    <rect class="invisible hover" opacity="0" x="0" y="0" width="514.1" height="216.94750000000002"/>
    <filter id="dropshadow">
      <feOffset in="SourceGraphic" dx="1" dy="2" result="offsetOut"/>
      <feColorMatrix in="offsetOut" result="shadowColor" type="matrix" values="0.24 0 0 0 0 0 0.25 0 0 0 0 0 0.26 0 0 0 0 0 0.75 0"/>
      <feGaussianBlur in="shadowColor" stdDeviation="3" result="gBlur"/>
      <feBlend in="SourceGraphic" in2="gBlur" result="blur"/>
    </filter>
    <path class="line visible clickable" d="M0,216.94750000000002L0.7809693739120926,216.94750000000002C1.5619387478241853,216.94750000000002,3.1238774956483706,216.94750000000002,4.685816243472556,216.9417256648929C6.247754991296741,216.93595132978578,7.8096937391209265,216.92440265957157,9.37377212906542,216.91945322947979C10.937850519009912,216.91450379938794,12.504068551074711,216.91615360941853,14.068146941019203,216.91697851443385C15.632225330963697,216.91780341944914,17.194164078787882,216.91780341944914,18.756093218034025,216.91780341944914C20.31802235728017,216.91780341944914,21.879941887948274,216.91780341944914,23.44187102719442,216.91780341944914C25.003800166440566,216.91780341944914,26.565738914264752,216.91780341944914,28.129817304209244,216.91780341944914C29.69389569415374,216.91780341944914,31.26011372621854,216.91780341944914,32.824192116163026,216.90792433416723C34.388270506107524,216.89804524888538,35.95020925393171,216.8782870783216,37.51214800175589,216.8684766836906C39.074086749580076,216.85866628905967,40.63602549740426,216.85880367036157,42.19796424522845,216.84294517658563C43.759902993052634,216.82708668280966,45.32184174087681,216.7952323139559,46.88592013082131,216.779305129529C48.4499985207658,216.76337794510212,50.0162165528306,216.76337794510212,51.58029494277509,216.75508877238602C53.14437333271959,216.74679959966988,54.70631208054377,216.73022125423768,56.26825082836795,216.72193208152157C57.83018957619214,216.71364290880547,59.39212832401633,216.71364290880547,60.95406707184051,216.70525728595237C62.51600581966469,216.69687166309927,64.07794456748888,216.68010041739308,65.64202295743337,216.63420514787467C67.20610134737787,216.5883098783562,68.77231937944266,216.51329058502552,70.33639776938716,216.44131917459026C71.90047615933166,216.369347764155,73.46241490715583,216.30042423661516,75.02435365498002,216.1491774157156C76.5862924028042,215.99793059481604,78.14823115062839,215.7643604805568,79.71016989845258,215.56931025911578C81.27210864627676,215.3742600376747,82.83404739410095,215.21772970905178,84.39812578404543,214.94804214751787C85.96220417398995,214.678354585984,87.52842220605471,214.29550979153916,89.09250059599923,213.96382395463152C90.65657898594371,213.63213811772388,92.2185177337679,213.35161123835346,93.78045648159208,212.83225689433667C95.34239522941625,212.3129025503199,96.90433397724046,211.55472074165672,98.46618357330964,210.56506124290817C100.02803316937882,209.57540174415956,101.58979361369296,208.35426455532559,103.15378285188244,207.56022807561683C104.71777209007193,206.76619159590805,106.28399012213673,206.39925582532456,107.84815766383622,205.79292046202974C109.41232520553574,205.1865850987348,110.97444225686995,204.34085014272856,112.53647015644914,202.47697446101282C114.09849805602835,200.61309877929702,115.66043680385253,197.7310823718717,117.2223755516767,195.9862588100926C118.7843142995009,194.24143524831348,120.34625304732509,193.63380453218053,121.91033143726959,193.1003192187213C123.47440982721407,192.5668339052621,125.04062785927887,192.10749399447658,126.60470624922338,191.63026492449566C128.16878463916785,191.15303585451474,129.73072338699203,190.6579176253384,131.29266213481623,189.91333167022285C132.8546008826404,189.1687457151073,134.4165396304646,188.17469203405258,135.97847837828877,185.73719772741072C137.54041712611297,183.2997034207689,139.10235587393717,179.41876848853994,140.66643426388165,176.08068170008096C142.23051265382614,172.74259491162192,143.79673068589094,169.94735626693284,145.36080907583542,168.77515878714505C146.9248874657799,167.6029613073572,148.4868262136041,168.05380499247062,150.0487649614283,166.0680029282769C151.61070370925248,164.0822008640832,153.17264245707668,159.65975305058234,154.73458120490088,155.0249784081482C156.29651995272505,150.3902037657141,157.85845870054922,145.5431022943467,159.42253709049373,139.716079388069C160.98661548043822,133.8890564817913,162.55283351250299,127.08211214060323,164.11691190244747,120.800073087239C165.68099029239195,114.51803403387476,167.24292904021615,108.76090026833435,168.80486778804035,104.39129454855161C170.36680653586453,100.02168882876886,171.92874528368873,97.0396111547438,173.49068403151293,91.70172401861207C175.05262277933707,86.36383688248031,176.61456152716127,78.67014028424192,178.17863991710578,73.04780142744683C179.74271830705027,67.42546257065175,181.3089363391151,63.874481455299986,182.87292557730453,61.557176654476926C184.43691481549402,59.23987185365386,185.9986752598082,58.1562433673595,187.56052485587736,56.6127600249853C189.1223744519465,55.069276682611104,190.6843131997707,53.06593848415707,192.2462519475949,50.41468959078393C193.80819069541909,47.76344069741078,195.3701294432433,44.464281109118524,196.93420783318777,42.11306406650723C198.49828622313225,39.76184702389593,200.06450425519708,38.358572526965595,201.62867179689658,38.69605696850378C203.1928393385961,39.03354141004197,204.7549563899303,41.11178479004867,206.3169842895095,44.78117815321573C207.87901218908868,48.45057151638277,209.44095093691286,53.71111486271017,211.00288968473706,57.01979206547477C212.56482843256126,60.32846926823937,214.12676718038543,61.68528032744117,215.6908455703299,63.0209669170356C217.2549239602744,64.35665350663004,218.8211419923392,65.67121562661711,220.38522038228368,67.49537985976384C221.94929877222816,69.31954409291058,223.51123752005233,71.65331043921697,225.07317626787653,76.75946365311735C226.63511501570073,81.86561686701775,228.1970537635249,89.74415694851216,229.7589925113491,97.05292336612165C231.3209312591733,104.36168978373114,232.88287000699748,111.10068253745574,234.44694839694193,115.75368888445507C236.01102678688645,120.4066952314544,237.57724481895127,122.97371517172844,239.14132320889576,125.20200308534727C240.70540159884024,127.43029099896609,242.26734034666444,129.31984688592968,243.8292790944886,130.94470652888808C245.3912178423128,132.56956617184645,246.953156590137,133.92972957079965,248.51500618620616,135.78822392440478C250.07685578227537,137.6467182780099,251.6386162265895,140.00354358626691,253.202694616534,142.18144098573978C254.76677300647847,144.35933838521265,256.3331693420533,146.35830787590135,257.8972477319978,147.57201545795127C259.46132612194225,148.7857230400012,261.0230865662564,149.21416871341233,262.5849361623256,149.6526848627026C264.1467857583948,150.09120101199287,265.70872450621897,150.53978763716228,267.2706632540432,150.65374693352146C268.8326020018674,150.7677062298807,270.39454074969154,150.5470381974297,271.9587082913911,150.4522117331983C273.52287583309055,150.3573852689669,275.0892721686654,150.38840037295503,276.6534397103649,151.10986947689796C278.2176072520644,151.8313385808409,279.77954599988857,153.2432616847386,281.34148474771274,153.94658748443604C282.90342349553697,154.6499132841335,284.46536224336114,154.6446417796307,286.0273009911853,154.51062405549146C287.5892397390095,154.3766063313522,289.15117848683366,154.11384238757654,290.71525687677814,154.4573314680637C292.2793352667226,154.80082054855083,293.8455532987875,155.7505626533008,295.40963168873196,156.24816764411275C296.97371007867645,156.74577263492472,298.5356488265006,156.7912405117987,300.0975875743248,157.17697708132195C301.659526322149,157.56271365084524,303.2214650699732,158.28871891301785,304.78340381779736,159.7418011039191C306.34534256562154,161.19488329482036,307.9072813134457,163.3750424144503,309.4713597033902,163.1452121605614C311.0354380933347,162.91538190667248,312.60165612539953,160.2755622792648,314.165734515344,159.3940803335278C315.7298129052885,158.51259838779083,317.2917516531127,159.38945412372462,318.85369040093684,160.48116368067565C320.41562914876107,161.57287323762668,321.97756789658524,162.87943661559487,323.5395066444094,162.74876884984607C325.10144539223364,162.61810108409728,326.6633841400578,161.0502021746314,328.2274625300023,160.04658636514532C329.7915409199468,159.0429705556592,331.35775895201164,158.60363784615285,332.92183734195606,158.1351332936796C334.4859157319006,157.6666287412063,336.0478544797248,157.1689523457661,337.609793227549,156.13812877560756C339.1717319753731,155.10730520544902,340.73367072319735,153.54333446057214,342.29560947102146,153.73613966650836C343.8575482188457,153.92894487244456,345.41948696666987,155.87852602919384,346.9835653566143,155.68826644060226C348.54764374655883,155.4980068520107,350.1138617786237,153.16790651807824,351.6778510168131,151.55367095917964C353.2418402550026,149.93943540028098,354.8036006993168,149.04106461641618,356.3654502953859,149.2669042050266C357.9272998914551,149.49274379363703,359.4892386392792,150.84279375472272,361.0511773871035,151.87379835508875C362.6131161349276,152.9048029554548,364.1750548827519,153.6167621951012,365.7391332726964,154.42401368497585C367.3032116626409,155.2312651748505,368.86942969470573,156.13380891495345,370.43350808465016,157.61371225881103C371.9975864745946,159.09361560266868,373.5595252224188,161.15087855028094,375.121463970243,162.81952013249995C376.68340271806716,164.48816171471893,378.2453414658914,165.76818193154463,379.80728021371556,167.9911613577019C381.36921896153973,170.2141407838592,382.93115770936396,173.38007941934805,384.49523609930844,176.11120498887215C386.0593144892529,178.84233055839618,387.62553252131767,181.1386430619555,389.1896109112622,182.72555675987323C390.75368930120675,184.3124704577909,392.3156280490309,185.18998535006702,393.8775667968551,185.3263649550722C395.4395055446792,185.4627445600773,397.00144429250344,184.8579888778115,398.5633830403276,184.702976605155C400.1253217881518,184.54796433249848,401.687260535976,184.8426954694513,403.2513389259205,184.7142517389298C404.815417315865,184.5858080084083,406.38163534792983,184.0341894104125,407.94571373787426,182.92101863830257C409.5097921278188,181.80784786619265,411.07173087564297,180.13312491996865,412.6336696234671,179.06770314954076C414.19560837129137,178.0022813791129,415.7575471191155,177.54616078448112,417.31948586693966,176.9929692163852C418.88142461476383,176.43977764828932,420.44336336258806,175.78951510672928,422.0074417525325,174.46694656623208C423.571520142477,173.1443780257349,425.1377381745419,171.14950348630055,426.70181656448636,170.80060515925615C428.26589495443085,170.45170683221178,429.827833702255,171.7487847175574,431.3897724500792,172.1295551888958C432.9517111979034,172.51032566023423,434.5136499457276,171.9747887175654,436.0755886935517,172.10974167086522C437.637527441376,172.24469462416502,439.1994661892001,173.05013747343344,440.7635445791446,174.0075573873678C442.32762296908913,174.96497730130216,443.89384100115393,176.0743742799025,445.4579193910984,176.30265530848376C447.02199778104296,176.53093633706507,448.58393652886707,175.87810141562736,450.14587527669136,175.5587441150801C451.70781402451547,175.23938681453282,453.26975277233964,175.25350713487595,454.8316915201638,176.4020860692663C456.39363026798804,177.55066500365663,457.9555690158122,179.8337025520942,459.51964740575664,181.2160999196315C461.0837257957012,182.5984972871688,462.649943827766,183.08025447380587,464.21402221771046,183.7008684853316C465.77810060765495,184.32148249685733,467.3400393554792,185.08095333327174,468.9019781033033,185.45559146195362C470.4639168511275,185.83022959063547,472.0258555989517,185.82003501158488,473.58779434677587,186.10294862181033C475.1497330946001,186.38586223203575,476.71167184242427,186.96188403153724,478.2757502323688,186.8327106751702C479.83982862231323,186.70353731880314,481.4060466543781,185.8691688065676,482.9701250443225,185.20817951683503C484.53420343426706,184.5471902271025,486.0961421820912,184.059580159873,487.65808092991546,183.1986689769965C489.2200196777396,182.33775779411997,490.7819584255638,181.10354549559648,492.3438971733879,180.16758787388144C493.90583592121214,179.23163025216647,495.4677746690363,178.59392730725995,497.03185305898074,177.9121101119778C498.5959314489253,177.2302929166957,500.16214948099014,176.50436147103798,501.7262278709347,175.820422960848C503.2903062608791,175.136484450658,504.8522450087033,174.49453887593575,506.4141837565274,173.61109037404037C507.9761225043517,172.727641872145,509.5380612521758,171.60269044307654,510.3190306260879,171.04021472854228L511.1,170.47773901400805" fill-opacity="0" style="stroke: rgb(25, 118, 210); opacity: 1;"/>
    <path class="line invisible hover clickable" d="M0,216.94750000000002L0.7809693739120926,216.94750000000002C1.5619387478241853,216.94750000000002,3.1238774956483706,216.94750000000002,4.685816243472556,216.9417256648929C6.247754991296741,216.93595132978578,7.8096937391209265,216.92440265957157,9.37377212906542,216.91945322947979C10.937850519009912,216.91450379938794,12.504068551074711,216.91615360941853,14.068146941019203,216.91697851443385C15.632225330963697,216.91780341944914,17.194164078787882,216.91780341944914,18.756093218034025,216.91780341944914C20.31802235728017,216.91780341944914,21.879941887948274,216.91780341944914,23.44187102719442,216.91780341944914C25.003800166440566,216.91780341944914,26.565738914264752,216.91780341944914,28.129817304209244,216.91780341944914C29.69389569415374,216.91780341944914,31.26011372621854,216.91780341944914,32.824192116163026,216.90792433416723C34.388270506107524,216.89804524888538,35.95020925393171,216.8782870783216,37.51214800175589,216.8684766836906C39.074086749580076,216.85866628905967,40.63602549740426,216.85880367036157,42.19796424522845,216.84294517658563C43.759902993052634,216.82708668280966,45.32184174087681,216.7952323139559,46.88592013082131,216.779305129529C48.4499985207658,216.76337794510212,50.0162165528306,216.76337794510212,51.58029494277509,216.75508877238602C53.14437333271959,216.74679959966988,54.70631208054377,216.73022125423768,56.26825082836795,216.72193208152157C57.83018957619214,216.71364290880547,59.39212832401633,216.71364290880547,60.95406707184051,216.70525728595237C62.51600581966469,216.69687166309927,64.07794456748888,216.68010041739308,65.64202295743337,216.63420514787467C67.20610134737787,216.5883098783562,68.77231937944266,216.51329058502552,70.33639776938716,216.44131917459026C71.90047615933166,216.369347764155,73.46241490715583,216.30042423661516,75.02435365498002,216.1491774157156C76.5862924028042,215.99793059481604,78.14823115062839,215.7643604805568,79.71016989845258,215.56931025911578C81.27210864627676,215.3742600376747,82.83404739410095,215.21772970905178,84.39812578404543,214.94804214751787C85.96220417398995,214.678354585984,87.52842220605471,214.29550979153916,89.09250059599923,213.96382395463152C90.65657898594371,213.63213811772388,92.2185177337679,213.35161123835346,93.78045648159208,212.83225689433667C95.34239522941625,212.3129025503199,96.90433397724046,211.55472074165672,98.46618357330964,210.56506124290817C100.02803316937882,209.57540174415956,101.58979361369296,208.35426455532559,103.15378285188244,207.56022807561683C104.71777209007193,206.76619159590805,106.28399012213673,206.39925582532456,107.84815766383622,205.79292046202974C109.41232520553574,205.1865850987348,110.97444225686995,204.34085014272856,112.53647015644914,202.47697446101282C114.09849805602835,200.61309877929702,115.66043680385253,197.7310823718717,117.2223755516767,195.9862588100926C118.7843142995009,194.24143524831348,120.34625304732509,193.63380453218053,121.91033143726959,193.1003192187213C123.47440982721407,192.5668339052621,125.04062785927887,192.10749399447658,126.60470624922338,191.63026492449566C128.16878463916785,191.15303585451474,129.73072338699203,190.6579176253384,131.29266213481623,189.91333167022285C132.8546008826404,189.1687457151073,134.4165396304646,188.17469203405258,135.97847837828877,185.73719772741072C137.54041712611297,183.2997034207689,139.10235587393717,179.41876848853994,140.66643426388165,176.08068170008096C142.23051265382614,172.74259491162192,143.79673068589094,169.94735626693284,145.36080907583542,168.77515878714505C146.9248874657799,167.6029613073572,148.4868262136041,168.05380499247062,150.0487649614283,166.0680029282769C151.61070370925248,164.0822008640832,153.17264245707668,159.65975305058234,154.73458120490088,155.0249784081482C156.29651995272505,150.3902037657141,157.85845870054922,145.5431022943467,159.42253709049373,139.716079388069C160.98661548043822,133.8890564817913,162.55283351250299,127.08211214060323,164.11691190244747,120.800073087239C165.68099029239195,114.51803403387476,167.24292904021615,108.76090026833435,168.80486778804035,104.39129454855161C170.36680653586453,100.02168882876886,171.92874528368873,97.0396111547438,173.49068403151293,91.70172401861207C175.05262277933707,86.36383688248031,176.61456152716127,78.67014028424192,178.17863991710578,73.04780142744683C179.74271830705027,67.42546257065175,181.3089363391151,63.874481455299986,182.87292557730453,61.557176654476926C184.43691481549402,59.23987185365386,185.9986752598082,58.1562433673595,187.56052485587736,56.6127600249853C189.1223744519465,55.069276682611104,190.6843131997707,53.06593848415707,192.2462519475949,50.41468959078393C193.80819069541909,47.76344069741078,195.3701294432433,44.464281109118524,196.93420783318777,42.11306406650723C198.49828622313225,39.76184702389593,200.06450425519708,38.358572526965595,201.62867179689658,38.69605696850378C203.1928393385961,39.03354141004197,204.7549563899303,41.11178479004867,206.3169842895095,44.78117815321573C207.87901218908868,48.45057151638277,209.44095093691286,53.71111486271017,211.00288968473706,57.01979206547477C212.56482843256126,60.32846926823937,214.12676718038543,61.68528032744117,215.6908455703299,63.0209669170356C217.2549239602744,64.35665350663004,218.8211419923392,65.67121562661711,220.38522038228368,67.49537985976384C221.94929877222816,69.31954409291058,223.51123752005233,71.65331043921697,225.07317626787653,76.75946365311735C226.63511501570073,81.86561686701775,228.1970537635249,89.74415694851216,229.7589925113491,97.05292336612165C231.3209312591733,104.36168978373114,232.88287000699748,111.10068253745574,234.44694839694193,115.75368888445507C236.01102678688645,120.4066952314544,237.57724481895127,122.97371517172844,239.14132320889576,125.20200308534727C240.70540159884024,127.43029099896609,242.26734034666444,129.31984688592968,243.8292790944886,130.94470652888808C245.3912178423128,132.56956617184645,246.953156590137,133.92972957079965,248.51500618620616,135.78822392440478C250.07685578227537,137.6467182780099,251.6386162265895,140.00354358626691,253.202694616534,142.18144098573978C254.76677300647847,144.35933838521265,256.3331693420533,146.35830787590135,257.8972477319978,147.57201545795127C259.46132612194225,148.7857230400012,261.0230865662564,149.21416871341233,262.5849361623256,149.6526848627026C264.1467857583948,150.09120101199287,265.70872450621897,150.53978763716228,267.2706632540432,150.65374693352146C268.8326020018674,150.7677062298807,270.39454074969154,150.5470381974297,271.9587082913911,150.4522117331983C273.52287583309055,150.3573852689669,275.0892721686654,150.38840037295503,276.6534397103649,151.10986947689796C278.2176072520644,151.8313385808409,279.77954599988857,153.2432616847386,281.34148474771274,153.94658748443604C282.90342349553697,154.6499132841335,284.46536224336114,154.6446417796307,286.0273009911853,154.51062405549146C287.5892397390095,154.3766063313522,289.15117848683366,154.11384238757654,290.71525687677814,154.4573314680637C292.2793352667226,154.80082054855083,293.8455532987875,155.7505626533008,295.40963168873196,156.24816764411275C296.97371007867645,156.74577263492472,298.5356488265006,156.7912405117987,300.0975875743248,157.17697708132195C301.659526322149,157.56271365084524,303.2214650699732,158.28871891301785,304.78340381779736,159.7418011039191C306.34534256562154,161.19488329482036,307.9072813134457,163.3750424144503,309.4713597033902,163.1452121605614C311.0354380933347,162.91538190667248,312.60165612539953,160.2755622792648,314.165734515344,159.3940803335278C315.7298129052885,158.51259838779083,317.2917516531127,159.38945412372462,318.85369040093684,160.48116368067565C320.41562914876107,161.57287323762668,321.97756789658524,162.87943661559487,323.5395066444094,162.74876884984607C325.10144539223364,162.61810108409728,326.6633841400578,161.0502021746314,328.2274625300023,160.04658636514532C329.7915409199468,159.0429705556592,331.35775895201164,158.60363784615285,332.92183734195606,158.1351332936796C334.4859157319006,157.6666287412063,336.0478544797248,157.1689523457661,337.609793227549,156.13812877560756C339.1717319753731,155.10730520544902,340.73367072319735,153.54333446057214,342.29560947102146,153.73613966650836C343.8575482188457,153.92894487244456,345.41948696666987,155.87852602919384,346.9835653566143,155.68826644060226C348.54764374655883,155.4980068520107,350.1138617786237,153.16790651807824,351.6778510168131,151.55367095917964C353.2418402550026,149.93943540028098,354.8036006993168,149.04106461641618,356.3654502953859,149.2669042050266C357.9272998914551,149.49274379363703,359.4892386392792,150.84279375472272,361.0511773871035,151.87379835508875C362.6131161349276,152.9048029554548,364.1750548827519,153.6167621951012,365.7391332726964,154.42401368497585C367.3032116626409,155.2312651748505,368.86942969470573,156.13380891495345,370.43350808465016,157.61371225881103C371.9975864745946,159.09361560266868,373.5595252224188,161.15087855028094,375.121463970243,162.81952013249995C376.68340271806716,164.48816171471893,378.2453414658914,165.76818193154463,379.80728021371556,167.9911613577019C381.36921896153973,170.2141407838592,382.93115770936396,173.38007941934805,384.49523609930844,176.11120498887215C386.0593144892529,178.84233055839618,387.62553252131767,181.1386430619555,389.1896109112622,182.72555675987323C390.75368930120675,184.3124704577909,392.3156280490309,185.18998535006702,393.8775667968551,185.3263649550722C395.4395055446792,185.4627445600773,397.00144429250344,184.8579888778115,398.5633830403276,184.702976605155C400.1253217881518,184.54796433249848,401.687260535976,184.8426954694513,403.2513389259205,184.7142517389298C404.815417315865,184.5858080084083,406.38163534792983,184.0341894104125,407.94571373787426,182.92101863830257C409.5097921278188,181.80784786619265,411.07173087564297,180.13312491996865,412.6336696234671,179.06770314954076C414.19560837129137,178.0022813791129,415.7575471191155,177.54616078448112,417.31948586693966,176.9929692163852C418.88142461476383,176.43977764828932,420.44336336258806,175.78951510672928,422.0074417525325,174.46694656623208C423.571520142477,173.1443780257349,425.1377381745419,171.14950348630055,426.70181656448636,170.80060515925615C428.26589495443085,170.45170683221178,429.827833702255,171.7487847175574,431.3897724500792,172.1295551888958C432.9517111979034,172.51032566023423,434.5136499457276,171.9747887175654,436.0755886935517,172.10974167086522C437.637527441376,172.24469462416502,439.1994661892001,173.05013747343344,440.7635445791446,174.0075573873678C442.32762296908913,174.96497730130216,443.89384100115393,176.0743742799025,445.4579193910984,176.30265530848376C447.02199778104296,176.53093633706507,448.58393652886707,175.87810141562736,450.14587527669136,175.5587441150801C451.70781402451547,175.23938681453282,453.26975277233964,175.25350713487595,454.8316915201638,176.4020860692663C456.39363026798804,177.55066500365663,457.9555690158122,179.8337025520942,459.51964740575664,181.2160999196315C461.0837257957012,182.5984972871688,462.649943827766,183.08025447380587,464.21402221771046,183.7008684853316C465.77810060765495,184.32148249685733,467.3400393554792,185.08095333327174,468.9019781033033,185.45559146195362C470.4639168511275,185.83022959063547,472.0258555989517,185.82003501158488,473.58779434677587,186.10294862181033C475.1497330946001,186.38586223203575,476.71167184242427,186.96188403153724,478.2757502323688,186.8327106751702C479.83982862231323,186.70353731880314,481.4060466543781,185.8691688065676,482.9701250443225,185.20817951683503C484.53420343426706,184.5471902271025,486.0961421820912,184.059580159873,487.65808092991546,183.1986689769965C489.2200196777396,182.33775779411997,490.7819584255638,181.10354549559648,492.3438971733879,180.16758787388144C493.90583592121214,179.23163025216647,495.4677746690363,178.59392730725995,497.03185305898074,177.9121101119778C498.5959314489253,177.2302929166957,500.16214948099014,176.50436147103798,501.7262278709347,175.820422960848C503.2903062608791,175.136484450658,504.8522450087033,174.49453887593575,506.4141837565274,173.61109037404037C507.9761225043517,172.727641872145,509.5380612521758,171.60269044307654,510.3190306260879,171.04021472854228L511.1,170.47773901400805"/>
    <text class="label hover clickable" aria-hidden="true" transform="translate(511.1,170)" x="3" dy=".1em" style="font-size: 15px; fill: rgb(25, 118, 210); opacity: 1;">soviet music (All)</text>
    <filter id="dropshadow">
      <feOffset in="SourceGraphic" dx="1" dy="2" result="offsetOut"/>
      <feColorMatrix in="offsetOut" result="shadowColor" type="matrix" values="0.24 0 0 0 0 0 0.25 0 0 0 0 0 0.26 0 0 0 0 0 0.75 0"/>
      <feGaussianBlur in="shadowColor" stdDeviation="3" result="gBlur"/>
      <feBlend in="SourceGraphic" in2="gBlur" result="blur"/>
    </filter>
    <g visibility="block" class="tooltip" pointer-events="none" transform="translate(150.234375,64.9124984741211)">
      <rect class="tooltip_rect" visibility="hidden" pointer-events="none" style="" width="294.71875" height="69"/>
      <text x="26" y="25" class="tt_left_column" dy="0" visibility="hidden" style="fill: rgb(77, 77, 77);">
        <tspan x="12" style="color: rgb(60, 64, 67); font-size: 16px; font-weight: 500;">2007</tspan>
        <tspan x="34" dy="30" style="font-size: 14px; font-weight: normal;">&#x202A;soviet music (All)&#x202C;</tspan>
      </text>
      <text y="25" class="tt_right_column" dy="0" x="181.71875" visibility="hidden">
        <tspan x="181.71875" dy="31" style="font-size: 14px; font-weight: normal; fill: rgb(95, 99, 104);">0.0000019212%</tspan>
      </text>
      <circle cx="17" cy="50" r="5" class="tt_dots" style="fill: rgb(25, 118, 210);" visibility="hidden"/>
    </g>
    <g class="mouse-over-effects">
      <path class="follow-line" pointer-events="none" style="stroke: rgb(158, 158, 158); stroke-dasharray: 2, 2; stroke-width: 1px; opacity: 0;" d="M454.953125,216.94750000000002 454.953125,0"/>
      <g class="dot-per-line" transform="translate(454.953125,176.0146942138672)">
        <circle r="5" style="fill: rgb(211, 47, 47); opacity: 0;"/>
      </g>
      <g class="dot-per-line" transform="translate(454.953125,176.0146942138672)">
        <circle r="5" style="fill: rgb(46, 125, 50); opacity: 0;"/>
      </g>
      <g class="dot-per-line" transform="translate(454.953125,176.0146942138672)">
        <circle r="5" style="fill: rgb(245, 124, 0); opacity: 0;"/>
      </g>
      <g class="dot-per-line" transform="translate(454.953125,176.0146942138672)">
        <circle r="5" style="fill: rgb(0, 208, 124); opacity: 0;"/>
      </g>
      <g class="dot-per-line" transform="translate(454.953125,176.0146942138672)">
        <circle r="5" style="fill: rgb(25, 118, 210); opacity: 0;"/>
      </g>
    </g>
  </g>
</svg>
